# Blender v2.77 (sub 0) OBJ File: ''
# www.blender.org
mtllib actualthigh.mtl
o mannequin_idle_reference.010
v -1.545067 -5.763870 -2.019794
v -1.490719 -8.054966 -2.179393
v 0.072635 -8.004807 -2.868862
v 0.051804 -9.702042 -2.402544
v 1.261016 -9.718586 -2.326445
v 1.227985 -9.676891 0.257408
v 1.952885 -9.727001 -1.136079
v 2.312945 -9.479923 0.139450
v 2.675934 -7.785721 0.237704
v 2.352645 -7.827728 -1.648137
v 2.492599 -5.497017 -1.649885
v 2.858577 -3.168991 -1.765237
v 1.831987 -3.253113 -2.934594
v 1.711815 -5.593723 -2.685770
v 0.025166 -0.931293 -3.965075
v 1.974418 -0.778465 -3.351901
v 0.026315 -3.323986 -3.303905
v -1.961016 -0.921352 -3.448912
v -1.800825 -3.346107 -2.756335
v 1.665197 -9.531960 -2.339195
v 1.674946 -8.098106 -2.691188
v 0.065836 -5.713257 -2.824986
v -0.105941 5.563881 5.067299
v -0.047761 8.462612 4.790101
v -2.187345 2.169006 4.559207
v -3.797730 2.619354 2.198022
v -3.895042 -0.519218 -0.081725
v -2.243696 2.020126 -4.026617
v -2.953931 -3.259140 -1.640674
v -2.541767 -5.688236 -1.085381
v -3.353928 -0.736759 -2.095097
v -3.401230 -3.169205 0.065247
v -3.008983 -3.100872 1.999086
v -3.413159 -0.401138 2.136446
v 1.863289 5.983101 4.010798
v 1.875122 9.943916 3.137403
v -2.967880 -5.544910 0.420423
v -1.760230 -3.462090 3.400453
v 0.505638 -1.326260 4.695906
v -1.990613 -0.920086 4.035138
v 0.191128 2.042583 5.133657
v 2.242630 -0.743717 3.579525
v 3.443153 -0.417034 1.985922
v 1.826089 2.653831 3.784711
v 2.015460 8.385860 3.976274
v 3.457254 9.977032 1.373195
v 3.593336 10.056301 -2.335123
v 3.806955 8.434464 1.898876
v 3.510794 6.178589 1.871527
v 3.383703 3.010418 1.912235
v 2.931683 -3.116840 2.030067
v 0.630909 -4.041470 4.093143
v -2.731842 -5.430672 2.027101
v 0.438117 -6.151783 3.930269
v -1.619113 -5.640694 3.121247
v -1.663402 -7.662476 3.142098
v 2.112161 -3.551220 3.342011
v 2.705825 -5.447441 2.050472
v 2.855926 -5.412659 0.270341
v 3.271806 -3.089333 0.136816
v -2.492567 -9.475391 0.203024
v -2.323687 -7.972168 -1.140080
v -2.699710 -7.841454 0.446604
v -2.501222 -7.788467 2.063384
v -1.414382 -9.467960 2.318156
v -0.169839 -9.122620 2.748876
v 0.012887 -7.591286 3.809949
v 1.660880 -7.638260 3.223529
v 1.958674 -5.790146 3.220711
v -1.211987 -9.667824 0.439519
v -1.829667 -9.960934 0.200794
v -1.281866 -9.724735 -1.975450
v -2.167587 -9.664600 -1.033540
v -2.183472 -9.760170 1.329010
v 1.180013 -9.278458 2.352340
v 2.478352 -7.726891 2.039623
v 1.952992 -9.591991 1.366400
v -0.102396 -9.252522 0.731970
v 1.698834 -9.852238 0.327795
v -3.960984 5.849434 2.006377
v -2.869965 5.674232 4.177629
v 3.615488 2.476982 -2.306507
v 3.269567 -0.655594 -2.027389
v 2.104139 2.138737 -3.950518
v -0.127242 1.925224 -4.687252
v -3.580679 2.306721 -2.353685
v -4.192940 2.535160 -0.164665
v -2.227802 8.833626 4.027898
v 0.011260 10.366383 3.670609
v -1.703422 11.019932 3.064880
v -0.330394 5.371502 -4.999623
v -1.829337 8.622223 -4.389003
v -2.381653 5.529026 -4.202866
v -3.756748 5.715904 -2.504105
v -4.254071 5.797966 -0.259988
v -4.128852 9.140903 1.787698
v -3.508332 11.506161 1.209930
v -4.175689 11.323189 -0.716721
v -2.885348 11.809025 -0.781589
v -1.681487 11.113262 -0.593712
v -0.279867 10.231987 -0.375169
v 0.180439 10.411224 -4.394824
v 1.581494 9.955505 -0.458984
v 2.065288 10.010216 -3.859947
v 0.090258 8.269844 -5.125422
v -1.538485 11.049011 -3.797244
v -3.448678 11.487301 -2.406155
v -3.738858 8.960876 -2.630061
v -4.453082 9.085190 -0.461846
v 2.159560 5.422977 -4.376078
v 2.153980 8.099709 -4.477692
v 3.961606 3.054958 -0.285936
v 3.784985 -0.458206 -0.085590
v 2.914215 10.176342 -0.592710
v 3.844109 8.247494 -2.597642
v 3.760109 5.794186 -2.505887
v 4.064829 6.435207 -0.421765
v 4.171863 9.924480 -0.624548
v 4.329217 8.507748 -0.467031
vt 0.9824 0.3999
vt 1.0010 0.3979
vt 0.9854 0.3960
vt 0.8613 0.4185
vt 0.8608 0.4448
vt 0.8809 0.4438
vt 0.8838 0.4175
vt 0.9009 0.4434
vt 0.9033 0.4170
vt 0.9282 0.4180
vt 0.9302 0.3887
vt 0.9458 0.3979
vt 0.9775 0.3882
vt 0.9634 0.3975
vt 0.9619 0.4194
vt 0.9849 0.4194
vt 0.9639 0.4463
vt 0.9858 0.4463
vt 0.9653 0.4727
vt 0.9854 0.4731
vt 0.9663 0.5012
vt 0.9492 0.4453
vt 0.9492 0.4722
vt 0.9277 0.4712
vt 0.9272 0.4990
vt 0.9487 0.5002
vt 0.9473 0.5337
vt 0.9258 0.5315
vt 0.9048 0.4990
vt 0.9028 0.4707
vt 0.9282 0.4438
vt 0.9482 0.4165
vt 0.9502 0.4004
vt 0.9043 0.5325
vt 0.8228 0.6077
vt 0.8018 0.6033
vt 0.8022 0.6211
vt 0.8022 0.5701
vt 0.8271 0.5715
vt 0.8213 0.5315
vt 0.8442 0.5374
vt 0.8438 0.5029
vt 0.8643 0.5371
vt 0.8643 0.5022
vt 0.8843 0.5352
vt 0.8843 0.5005
vt 0.8833 0.4717
vt 0.8638 0.4722
vt 0.8433 0.4722
vt 0.8223 0.4966
vt 0.7998 0.5298
vt 0.7808 0.5374
vt 0.7817 0.5752
vt 0.7808 0.6025
vt 0.7778 0.6177
vt 0.8423 0.4458
vt 0.8232 0.4678
vt 0.7964 0.4917
vt 0.7754 0.4985
vt 0.7549 0.5027
vt 0.7554 0.5420
vt 0.7554 0.5781
vt 0.7549 0.6038
vt 0.7441 0.6230
vt 0.7344 0.6055
vt 0.7344 0.6279
vt 0.8032 0.6455
vt 0.7729 0.6382
vt 0.7490 0.6401
vt 0.7397 0.6438
vt 0.7344 0.5818
vt 0.7344 0.5432
vt 0.7354 0.5029
vt 0.7368 0.4731
vt 0.7573 0.4722
vt 0.7744 0.4668
vt 0.7939 0.4609
vt 0.8237 0.4429
vt 0.8408 0.4189
vt 0.7959 0.4370
vt 0.8013 0.4204
vt 0.8242 0.4199
vt 0.7749 0.4414
vt 0.7583 0.4453
vt 0.7373 0.4463
vt 0.8042 0.3853
vt 0.9053 0.3979
vt 0.8843 0.3984
vt 0.8652 0.3999
vt 0.8481 0.3965
vt 0.8281 0.3994
vt 0.8042 0.4033
vt 0.7773 0.4199
vt 0.8594 0.3921
vt 0.8667 0.3945
vt 0.7764 0.4019
vt 0.7588 0.4194
vt 0.7358 0.4194
vt 0.7534 0.3984
vt 0.7339 0.3999
vt 0.7383 0.3862
vt 0.7358 0.3955
vt 0.8457 0.5742
vt 0.9844 0.5029
vt 0.9663 0.5371
vt 0.9468 0.5713
vt 0.9238 0.5710
vt 0.9038 0.5725
vt 0.8838 0.5742
vt 0.8643 0.5745
vt 0.8472 0.6118
vt 0.8184 0.6333
vt 0.8179 0.6494
vt 0.8516 0.6458
vt 0.8521 0.6614
vt 0.9087 0.6079
vt 0.8843 0.6113
vt 0.8652 0.6121
vt 0.8755 0.6328
vt 0.8960 0.6487
vt 0.9082 0.6658
vt 0.9087 0.6252
vt 0.9302 0.6514
vt 0.9297 0.6345
vt 0.9536 0.6504
vt 0.9473 0.6145
vt 0.9277 0.6040
vt 0.9463 0.6021
vt 0.9663 0.5750
vt 0.9834 0.5432
vt 0.9766 0.6562
vt 0.9771 0.6209
vt 0.9663 0.6030
vt 0.9829 0.5818
vt 0.9980 0.6323
vt 0.9834 0.6055
vn 0.8472 -0.5303 0.0327
vn 0.5023 -0.7900 0.3516
vn 0.0363 -0.9950 0.0933
vn -0.9912 -0.1272 -0.0353
vn -0.9890 -0.1419 -0.0404
vn -0.8586 -0.1681 -0.4842
vn -0.8894 -0.0732 -0.4512
vn -0.5804 -0.1447 -0.8014
vn -0.5911 -0.0686 -0.8037
vn -0.1567 -0.1064 -0.9819
vn -0.1214 -0.7738 -0.6217
vn 0.1272 -0.7974 -0.5899
vn -0.2485 -0.9633 0.1014
vn 0.5804 -0.7998 -0.1528
vn 0.9287 -0.1185 -0.3512
vn 0.9876 -0.1563 -0.0119
vn 0.9097 -0.1030 -0.4023
vn 0.9925 -0.1168 -0.0358
vn 0.8832 -0.1731 -0.4357
vn 0.9830 -0.1825 -0.0177
vn 0.8674 -0.1726 -0.4667
vn 0.5053 -0.0847 -0.8587
vn 0.5201 -0.1655 -0.8379
vn -0.0458 -0.2251 -0.9732
vn 0.0267 -0.2426 -0.9698
vn 0.5325 -0.1892 -0.8250
vn 0.5465 -0.1495 -0.8240
vn 0.0079 -0.1695 -0.9855
vn -0.4884 -0.2429 -0.8381
vn -0.5074 -0.2663 -0.8195
vn -0.1631 -0.1135 -0.9800
vn 0.5087 -0.1105 -0.8538
vn 0.5597 -0.5133 -0.6505
vn -0.5610 -0.1317 -0.8172
vn -0.5134 0.2840 0.8097
vn 0.0559 0.2737 0.9602
vn 0.1760 0.8058 0.5654
vn 0.1009 0.0476 0.9937
vn -0.6644 0.0733 0.7437
vn -0.5538 -0.0987 0.8267
vn -0.9304 -0.0888 0.3554
vn -0.9096 -0.1375 0.3919
vn -0.9964 -0.0735 -0.0414
vn -0.9905 -0.1362 -0.0179
vn -0.8905 -0.0844 -0.4470
vn -0.8625 -0.1763 -0.4743
vn -0.8438 -0.2390 -0.4805
vn -0.9822 -0.1858 -0.0257
vn -0.8967 -0.1512 0.4161
vn -0.5643 -0.1942 0.8024
vn 0.1982 -0.0344 0.9795
vn 0.6893 0.0105 0.7244
vn 0.6296 -0.0221 0.7766
vn 0.5706 0.1965 0.7974
vn 0.4207 0.7739 0.4733
vn -0.8916 -0.1013 0.4412
vn -0.5489 -0.1840 0.8153
vn 0.1444 -0.1597 0.9765
vn 0.7061 -0.0464 0.7066
vn 0.9181 -0.0589 0.3918
vn 0.8944 -0.0179 0.4468
vn 0.8971 -0.0647 0.4371
vn 0.8814 0.1120 0.4588
vn 0.5588 0.7704 0.3068
vn 0.9995 0.0270 0.0112
vn 0.7940 0.6079 0.0020
vn 0.3342 0.9423 0.0172
vn 0.0378 0.9991 0.0208
vn -0.0198 0.9998 0.0060
vn 0.5888 0.7278 -0.3516
vn 0.9969 -0.0711 0.0345
vn 0.9978 -0.0425 0.0498
vn 0.9924 -0.1208 -0.0215
vn 0.9286 -0.1285 0.3479
vn 0.7023 -0.1017 0.7046
vn 0.0954 -0.1475 0.9844
vn -0.5513 -0.0637 0.8318
vn -0.8852 -0.1868 0.4260
vn 0.0453 -0.0687 0.9966
vn -0.0446 -0.3063 0.9509
vn -0.5605 -0.2096 0.8012
vn 0.6762 -0.0943 0.7307
vn 0.9468 -0.0937 0.3078
vn 0.0309 -0.9931 0.1129
vn -0.3370 -0.7551 -0.5624
vn -0.6512 -0.6790 -0.3388
vn -0.8949 -0.4455 -0.0264
vn -0.5305 -0.7854 0.3188
vn -0.2138 -0.7945 0.5683
vn 0.0151 -0.7947 0.6068
vn 0.5577 -0.3257 0.7635
vn 0.3134 -0.9478 0.0591
vn 0.0103 -0.9970 -0.0765
vn 0.2401 -0.8012 0.5481
vn 0.8946 -0.2555 0.3666
vn -0.9447 0.0096 0.3278
vn 0.8990 -0.0935 -0.4277
vn 0.5351 -0.0687 -0.8420
vn -0.0752 -0.0557 -0.9956
vn -0.6019 -0.0038 -0.7985
vn -0.8922 -0.0154 -0.4514
vn -0.9983 -0.0298 -0.0503
vn -0.8896 0.1692 0.4241
vn -0.0996 0.8443 0.5265
vn 0.4479 0.8940 0.0126
vn -0.4753 0.8015 0.3628
vn 0.1599 0.9861 -0.0436
vn -0.4967 0.1499 -0.8549
vn -0.8263 0.0633 -0.5596
vn -0.9967 0.0494 -0.0640
vn -0.8320 0.5537 -0.0349
vn -0.4689 0.7320 -0.4942
vn -0.0905 0.7990 -0.5944
vn 0.1439 0.7473 -0.6486
vn 0.4273 0.7205 -0.5462
vn -0.0067 0.1425 -0.9897
vn 0.5325 0.1161 -0.8384
vn 0.9103 -0.0484 -0.4111
vn 0.8838 0.0632 -0.4636
usemtl mannequin_body_d
s 1
f 8/1/1 77/2/2 79/3/3
f 63/4/4 37/5/5 30/6/6
f 30/6/6 62/7/7 63/4/4
f 62/7/7 30/6/6 1/8/8
f 1/8/8 2/9/9 62/7/7
f 3/10/10 2/9/9 1/8/8
f 2/9/9 3/10/10 4/11/11
f 5/12/12 4/11/11 3/10/10
f 4/11/11 5/12/12 6/13/13
f 7/14/14 6/13/13 5/12/12
f 7/14/14 79/3/3 6/13/13
f 79/3/3 7/14/14 8/1/1
f 8/1/1 7/14/14 10/15/15
f 10/15/15 9/16/16 8/1/1
f 9/16/16 10/15/15 11/17/17
f 11/17/17 59/18/18 9/16/16
f 59/18/18 11/17/17 12/19/19
f 12/19/19 60/20/20 59/18/18
f 60/20/20 12/19/19 83/21/21
f 14/22/22 11/17/17 10/15/15
f 11/17/17 14/22/22 13/23/23
f 13/23/23 12/19/19 11/17/17
f 17/24/24 13/23/23 14/22/22
f 13/23/23 17/24/24 15/25/25
f 15/25/25 16/26/26 13/23/23
f 12/19/19 13/23/23 16/26/26
f 16/26/26 83/21/21 12/19/19
f 83/21/21 16/26/26 84/27/27
f 85/28/28 84/27/27 16/26/26
f 16/26/26 15/25/25 85/28/28
f 85/28/28 15/25/25 18/29/29
f 18/29/29 15/25/25 17/24/24
f 17/24/24 19/30/30 18/29/29
f 19/30/30 17/24/24 22/31/31
f 22/31/31 1/8/8 19/30/30
f 1/8/8 22/31/31 3/10/10
f 21/32/32 3/10/10 22/31/31
f 3/10/10 21/32/32 5/12/12
f 5/12/12 21/32/32 20/33/33
f 5/12/12 20/33/33 7/14/14
f 10/15/15 7/14/14 20/33/33
f 20/33/33 21/32/32 10/15/15
f 10/15/15 21/32/32 14/22/22
f 22/31/31 14/22/22 21/32/32
f 14/22/22 22/31/31 17/24/24
f 18/29/29 28/34/34 85/28/28
f 88/35/35 24/36/36 89/37/37
f 23/38/38 24/36/36 88/35/35
f 88/35/35 81/39/39 23/38/38
f 23/38/38 81/39/39 25/40/40
f 26/41/41 25/40/40 81/39/39
f 25/40/40 26/41/41 34/42/42
f 34/42/42 26/41/41 87/43/43
f 87/43/43 27/44/44 34/42/42
f 27/44/44 87/43/43 86/45/45
f 86/45/45 31/46/46 27/44/44
f 31/46/46 86/45/45 28/34/34
f 28/34/34 18/29/29 31/46/46
f 29/47/47 31/46/46 18/29/29
f 18/29/29 19/30/30 29/47/47
f 29/47/47 19/30/30 1/8/8
f 1/8/8 30/6/6 29/47/47
f 32/48/48 29/47/47 30/6/6
f 30/6/6 37/5/5 32/48/48
f 31/46/46 29/47/47 32/48/48
f 32/48/48 27/44/44 31/46/46
f 27/44/44 32/48/48 33/49/49
f 33/49/49 34/42/42 27/44/44
f 40/50/50 34/42/42 33/49/49
f 34/42/42 40/50/50 25/40/40
f 41/51/51 25/40/40 40/50/50
f 25/40/40 41/51/51 23/38/38
f 23/38/38 41/51/51 44/52/52
f 44/52/52 35/53/53 23/38/38
f 24/36/36 23/38/38 35/53/53
f 35/53/53 45/54/54 24/36/36
f 89/37/37 24/36/36 45/54/54
f 45/54/54 36/55/55 89/37/37
f 33/49/49 32/48/48 37/5/5
f 37/5/5 53/56/56 33/49/49
f 38/57/57 33/49/49 53/56/56
f 33/49/49 38/57/57 40/50/50
f 39/58/58 40/50/50 38/57/57
f 40/50/50 39/58/58 41/51/51
f 41/51/51 39/58/58 42/59/59
f 42/59/59 44/52/52 41/51/51
f 44/52/52 42/59/59 43/60/60
f 43/60/60 50/61/61 44/52/52
f 35/53/53 44/52/52 50/61/61
f 50/61/61 49/62/62 35/53/53
f 45/54/54 35/53/53 49/62/62
f 49/62/62 48/63/63 45/54/54
f 36/55/55 45/54/54 48/63/63
f 48/63/63 46/64/64 36/55/55
f 46/64/64 48/63/63 119/65/65
f 119/65/65 118/66/66 46/64/64
f 101/67/67 89/37/37 36/55/55
f 36/55/55 103/68/68 101/67/67
f 103/68/68 36/55/55 46/64/64
f 46/64/64 114/69/69 103/68/68
f 114/69/69 46/64/64 118/66/66
f 118/66/66 47/70/70 114/69/69
f 117/71/71 119/65/65 48/63/63
f 48/63/63 49/62/62 117/71/71
f 112/72/72 117/71/71 49/62/62
f 49/62/62 50/61/61 112/72/72
f 113/73/73 112/72/72 50/61/61
f 50/61/61 43/60/60 113/73/73
f 60/74/20 113/73/73 43/60/60
f 43/60/60 51/75/74 60/74/20
f 51/75/74 43/60/60 42/59/59
f 42/59/59 57/76/75 51/75/74
f 57/76/75 42/59/59 39/58/58
f 39/58/58 52/77/76 57/76/75
f 38/57/57 52/77/76 39/58/58
f 52/77/76 38/57/57 55/78/77
f 53/56/56 55/78/77 38/57/57
f 55/78/77 53/56/56 64/79/78
f 64/79/78 53/56/56 37/5/5
f 37/5/5 63/4/4 64/79/78
f 55/78/77 54/80/79 52/77/76
f 67/81/80 54/80/79 55/78/77
f 55/78/77 56/82/81 67/81/80
f 64/79/78 56/82/81 55/78/77
f 57/76/75 69/83/82 58/84/83
f 58/84/83 51/75/74 57/76/75
f 51/75/74 58/84/83 59/85/18
f 59/85/18 60/74/20 51/75/74
f 6/13/13 78/86/84 4/11/11
f 72/87/85 4/11/11 78/86/84
f 4/11/11 72/87/85 2/9/9
f 2/9/9 72/87/85 73/88/86
f 73/88/86 62/7/7 2/9/9
f 62/7/7 73/88/86 61/89/87
f 61/89/87 63/4/4 62/7/7
f 63/4/4 61/89/87 74/90/88
f 74/90/88 64/79/78 63/4/4
f 64/79/78 74/90/88 65/91/89
f 65/91/89 56/82/81 64/79/78
f 56/82/81 65/91/89 66/92/90
f 66/92/90 67/81/80 56/82/81
f 68/93/91 67/81/80 66/92/90
f 54/80/79 67/81/80 68/93/91
f 68/93/91 69/83/82 54/80/79
f 52/77/76 54/80/79 69/83/82
f 69/83/82 57/76/75 52/77/76
f 70/94/92 71/95/93 73/88/86
f 73/88/86 72/87/85 70/94/92
f 78/86/84 70/94/92 72/87/85
f 61/89/87 73/88/86 71/95/93
f 71/95/93 74/90/88 61/89/87
f 74/90/88 71/95/93 70/94/92
f 70/94/92 65/91/89 74/90/88
f 65/91/89 70/94/92 78/86/84
f 78/86/84 66/92/90 65/91/89
f 75/96/94 66/92/90 78/86/84
f 66/92/90 75/96/94 68/93/91
f 76/97/95 68/93/91 75/96/94
f 69/83/82 68/93/91 76/97/95
f 76/97/95 58/84/83 69/83/82
f 59/85/18 58/84/83 76/97/95
f 76/97/95 9/98/16 59/85/18
f 9/98/16 76/97/95 77/99/2
f 77/99/2 8/100/1 9/98/16
f 75/96/94 77/99/2 76/97/95
f 77/99/2 75/96/94 6/101/13
f 78/86/84 6/101/13 75/96/94
f 6/101/13 79/102/3 77/99/2
f 80/103/96 81/39/39 88/35/35
f 81/39/39 80/103/96 26/41/41
f 87/43/43 26/41/41 80/103/96
f 83/21/21 113/104/73 60/20/20
f 113/104/73 83/21/21 82/105/97
f 84/27/27 82/105/97 83/21/21
f 82/105/97 84/27/27 110/106/98
f 110/106/98 84/27/27 85/28/28
f 85/28/28 91/107/99 110/106/98
f 91/107/99 85/28/28 28/34/34
f 28/34/34 93/108/100 91/107/99
f 93/108/100 28/34/34 86/45/45
f 86/45/45 94/109/101 93/108/100
f 94/109/101 86/45/45 87/43/43
f 87/43/43 95/110/102 94/109/101
f 80/103/96 95/110/102 87/43/43
f 95/110/102 80/103/96 96/111/103
f 88/35/35 96/111/103 80/103/96
f 96/111/103 88/35/35 90/112/104
f 89/37/37 90/112/104 88/35/35
f 90/112/104 89/37/37 101/67/67
f 101/67/67 100/113/105 90/112/104
f 90/112/104 97/114/106 96/111/103
f 97/114/106 90/112/104 100/113/105
f 100/113/105 99/115/107 97/114/106
f 91/107/99 93/108/100 92/116/108
f 92/116/108 93/108/100 94/109/101
f 94/109/101 108/117/109 92/116/108
f 108/117/109 94/109/101 95/110/102
f 95/110/102 109/118/110 108/117/109
f 96/111/103 109/118/110 95/110/102
f 109/118/110 96/111/103 97/114/106
f 97/114/106 98/119/111 109/118/110
f 98/119/111 97/114/106 99/115/107
f 99/115/107 107/120/112 98/119/111
f 107/120/112 99/115/107 100/121/105
f 100/121/105 106/122/113 107/120/112
f 106/122/113 100/121/105 101/123/67
f 101/123/67 102/124/114 106/122/113
f 102/124/114 101/123/67 103/125/68
f 103/125/68 104/126/115 102/124/114
f 105/127/116 102/124/114 104/126/115
f 104/126/115 111/128/117 105/127/116
f 110/106/98 91/107/99 105/127/116
f 92/116/108 105/127/116 91/107/99
f 102/124/114 105/127/116 92/116/108
f 92/116/108 106/122/113 102/124/114
f 106/122/113 92/116/108 108/117/109
f 108/117/109 107/120/112 106/122/113
f 98/119/111 107/120/112 108/117/109
f 108/117/109 109/118/110 98/119/111
f 105/127/116 111/128/117 110/106/98
f 116/129/118 110/106/98 111/128/117
f 110/106/98 116/129/118 82/105/97
f 112/130/72 82/105/97 116/129/118
f 82/105/97 112/130/72 113/104/73
f 103/125/68 114/131/69 47/132/70
f 47/132/70 104/126/115 103/125/68
f 104/126/115 47/132/70 115/133/119
f 115/133/119 111/128/117 104/126/115
f 111/128/117 115/133/119 116/129/118
f 117/134/71 116/129/118 115/133/119
f 116/129/118 117/134/71 112/130/72
f 47/132/70 118/135/66 119/136/65
f 119/136/65 115/133/119 47/132/70
f 115/133/119 119/136/65 117/134/71
