# Blender v2.77 (sub 0) OBJ File: ''
# www.blender.org
mtllib lowerarm.mtl
o mannequin_idle_reference.008
v 1.990969 15.745206 0.222148
v 0.750085 16.087931 1.181122
v 2.101658 15.754845 -0.785638
v 1.756985 15.928523 -1.833455
v -1.397543 16.426462 -1.165924
v 1.019000 16.209501 -2.655949
v -1.295928 16.462397 -2.141276
v -0.099103 -7.231876 2.367725
v -0.008223 -8.973538 1.482797
v 0.109374 -8.699913 2.608223
v 1.033507 -7.473747 2.242178
v 1.249666 -5.354374 2.622406
v 0.696098 -6.060067 2.152755
v 2.242697 -5.229323 1.343597
v 2.425881 -4.579241 2.181035
v 1.898882 -4.117627 0.975768
v 2.154803 -3.131355 1.675709
v 1.862674 -3.021968 0.468058
v 1.654456 0.746525 -0.178084
v 1.835764 3.077089 0.466639
v 1.665718 -7.622950 1.741717
v 1.528271 -8.380679 1.099243
v 1.037068 -8.601292 2.234386
v 1.468479 -7.386364 0.563540
v 1.202878 -6.438591 1.643637
v 0.968726 -2.938795 -0.860739
v 1.544538 -1.477584 0.217987
v 1.410438 0.611649 -0.849140
v -1.100777 -1.477846 -1.549343
v -0.846783 0.604981 -1.548464
v 0.240063 -1.555112 -1.311999
v 0.686037 0.764165 -1.267502
v 0.930559 -1.519405 -0.537092
v 0.367390 -3.185927 -2.182236
v -0.447166 -1.505872 -1.656479
v -2.144407 -3.133657 -1.249084
v -1.509865 -3.375345 -2.132493
v -0.471628 -3.429739 -2.626354
v 0.380693 -4.615651 -2.022805
v 1.104341 -3.629121 -0.571592
v -1.569902 -4.592807 -2.175793
v -0.530008 -4.759384 -2.521413
v 0.562474 -4.696033 0.110141
v 0.963021 -6.363879 0.977074
v 0.080018 -6.321590 -0.114614
v 1.899651 -8.195376 0.231060
v 1.461767 -9.055485 0.702557
v 0.896987 -9.008885 0.307634
v -1.722000 -5.541235 -1.932853
v -0.437997 -5.380709 -1.372883
v 1.021309 -7.430835 -0.425173
v 1.107653 -8.202377 -1.096612
v 1.222616 -8.852726 -0.552112
v 1.734648 -8.209511 -0.606043
v 1.838224 -8.763776 0.159749
v 1.702714 -8.816964 -0.277887
v 1.399849 -8.959931 0.235487
v 0.281453 -8.613812 -0.701757
v 0.327408 -7.440963 -1.048753
v -0.361171 -7.815235 -1.602895
v -0.584736 -6.450826 -0.919082
v -1.084241 -6.706891 -1.475289
v -0.933363 -5.554124 -2.031025
v -2.253466 -5.421655 -1.281948
v -2.466034 -5.071038 -0.074820
v -2.402857 -4.237978 -0.134262
v -2.079403 -4.431229 -1.479009
v -2.296380 -4.077967 1.577564
v -2.483851 -5.015146 1.622812
v -2.568288 -5.836582 0.024163
v 0.678901 -9.101109 1.170383
v 0.146021 -9.045655 0.238365
v 0.137858 -8.252824 -1.580602
v -0.548801 -8.513960 -0.631077
v -0.926222 -8.308932 -1.188452
v -1.280335 -7.712084 -1.246281
v -1.663717 -6.550176 -1.514083
v -2.406752 -6.291670 -1.001486
v -2.145222 -6.804573 0.110271
v -2.232216 -5.891985 1.523764
v -1.406634 -5.040781 3.018206
v -1.545856 -7.843935 0.203022
v -1.904725 -7.172377 -0.779572
v -1.339543 -7.935418 -0.529441
v -1.020284 -8.424186 -0.165695
v -0.735857 -8.665085 2.172078
v -0.486962 -9.072629 1.314559
v -0.946131 -8.666183 0.756437
v -0.463768 -8.962992 0.237880
v -0.901062 -8.791702 0.254850
v -1.353200 -8.120008 1.193039
v -1.285765 -8.361260 0.264290
v -1.796649 -6.953362 1.385423
v -1.140494 -7.322383 2.610940
v -1.379062 -6.111051 2.841624
v -0.115651 -5.822461 2.691643
v 0.207111 -5.073800 3.114835
v 1.591320 -2.992186 2.760925
v 0.571066 -2.824184 2.916898
v 0.492037 -4.439173 3.282893
v 1.569656 9.387735 1.658442
v 0.420951 9.509744 2.113551
v 0.196213 6.052095 1.546210
v 1.194414 3.118608 0.964282
v 1.191560 0.713555 1.032498
v 1.176341 -1.234614 1.927017
v -0.749213 -2.655141 2.410303
v -1.087673 -4.125655 2.901438
v -2.302879 12.993234 -0.680316
v -1.975762 9.326906 0.787501
v 0.181815 3.335456 1.205124
v -0.658140 0.839021 1.209485
v 0.232323 0.727591 1.312378
v 0.353073 -1.184622 2.187886
v -1.613985 -2.716264 1.366673
v -2.163663 -2.908715 -0.089930
v -1.552642 -1.430602 -1.002333
v -1.485567 -1.379894 -0.207590
v -1.246513 3.504136 0.503613
v -0.696359 3.473232 1.151847
v -1.115070 0.931275 0.569132
v -1.222498 -1.357147 0.846107
v -0.528707 -1.272097 1.779973
v -0.861646 6.125401 1.332323
v -1.203533 9.077109 -2.729712
v -0.068900 5.812302 -2.585159
v -0.978165 3.016646 -1.902861
v -1.103245 5.727837 -2.272725
v -1.157936 0.884279 -0.373640
v -1.782926 6.049220 -0.495898
v -1.384590 3.387664 -0.480259
v -1.729933 5.847299 -1.530858
v -1.365635 3.157145 -1.330365
v -1.133423 0.720601 -1.112372
v -0.202430 0.663435 -1.551754
v -0.191442 3.143040 -2.086813
v 0.658157 3.390310 -1.792901
v 0.171202 9.062808 -3.139607
v -2.100351 9.155231 -1.783116
v -2.363594 9.267344 -0.483395
v -1.537908 6.106873 0.594462
v 0.838525 6.039164 -2.209376
v 1.200391 9.221348 -2.696674
v -0.774756 16.041519 -2.807121
v -1.023265 12.846519 -2.944709
v -1.945621 12.930064 -1.986616
v -1.045044 16.236477 -0.087384
v -1.945314 13.014947 0.678017
v -0.913122 9.440871 1.782429
v 1.547701 12.815633 -3.017096
v 2.436455 12.745062 -2.119637
v -0.216978 16.209568 0.879369
v -0.670393 13.325124 1.837987
v 0.723824 13.358680 2.033180
v 1.773033 13.058291 1.497322
v 1.536626 15.654544 0.973777
v 2.295831 5.903213 -0.456645
v 2.481934 12.782694 0.413294
v 0.363854 12.804753 -3.409386
v 0.086930 16.364731 -2.995280
v 2.135209 9.231313 -1.790979
v 2.877608 12.715124 -0.938812
v 2.652679 9.173307 -0.647922
v 1.771155 6.013836 -1.476080
v 1.533258 3.224597 -1.173834
v 1.944877 3.147847 -0.326829
v 1.678171 -4.660353 3.007502
v 2.228462 -5.651494 2.281269
v 1.716343 -1.396824 0.977994
v 1.574549 0.859136 0.469018
v 2.102255 5.855595 0.591152
v 1.319050 5.926871 1.301915
v 2.394591 9.207784 0.651203
vt 0.4084 0.8474
vt 0.3828 0.8594
vt 0.4341 0.8617
vt 0.4517 0.8890
vt 0.3596 0.8820
vt 0.4521 0.9297
vt 0.3472 0.9154
vt 0.4392 0.9641
vt 0.3494 0.9517
vt 0.3657 0.9793
vt 0.4172 0.9862
vt 0.0640 0.8538
vt 0.0660 0.8425
vt 0.0496 0.8431
vt 0.0336 0.8588
vt 0.0318 0.8461
vt 0.0198 0.8511
vt 0.0472 0.8578
vt 0.0601 0.8643
vt 0.0723 0.8557
vt 0.0693 0.8644
vt 0.0751 0.8712
vt 0.0823 0.8654
vt 0.0886 0.8730
vt 0.1000 0.8669
vt 0.1022 0.8774
vt 0.1212 0.8704
vt 0.1208 0.8791
vt 0.1486 0.8741
vt 0.1477 0.8820
vt 0.1753 0.8729
vt 0.1768 0.8815
vt 0.0459 0.8672
vt 0.0283 0.8704
vt 0.0168 0.8959
vt 0.0373 0.8740
vt 0.0496 0.8794
vt 0.0614 0.8719
vt 0.0819 0.8879
vt 0.0954 0.8908
vt 0.1039 0.8939
vt 0.1206 0.8911
vt 0.1466 0.8896
vt 0.1484 0.8986
vt 0.1782 0.8906
vt 0.1462 0.9177
vt 0.1212 0.9191
vt 0.1212 0.9273
vt 0.1212 0.9117
vt 0.1472 0.9099
vt 0.1205 0.9036
vt 0.1017 0.9037
vt 0.1008 0.9282
vt 0.1026 0.9385
vt 0.0988 0.9189
vt 0.0988 0.9100
vt 0.0844 0.9031
vt 0.0842 0.9186
vt 0.0854 0.9256
vt 0.0828 0.9101
vt 0.0745 0.9104
vt 0.0624 0.9003
vt 0.0497 0.8914
vt 0.0403 0.8824
vt 0.0335 0.8834
vt 0.0295 0.8790
vt 0.0310 0.8840
vt 0.0301 0.8854
vt 0.0328 0.8914
vt 0.0354 0.9003
vt 0.0407 0.8890
vt 0.0726 0.9202
vt 0.0728 0.9138
vt 0.0612 0.9128
vt 0.0498 0.9011
vt 0.0410 0.8950
vt 0.0331 0.8871
vt 0.0404 0.9040
vt 0.0455 0.9086
vt 0.0584 0.9163
vt 0.0602 0.9213
vt 0.0733 0.9273
vt 0.0765 0.9379
vt 0.0866 0.9378
vt 0.0759 0.9517
vt 0.0873 0.9522
vt 0.0749 0.9639
vt 0.0861 0.9656
vt 0.0750 0.9765
vt 0.0673 0.9386
vt 0.0626 0.9296
vt 0.0363 0.9119
vt 0.0391 0.9150
vt 0.0461 0.9186
vt 0.0521 0.9276
vt 0.0557 0.9377
vt 0.0656 0.9514
vt 0.0531 0.9514
vt 0.0434 0.9353
vt 0.0429 0.9242
vt 0.0369 0.9235
vt 0.0303 0.9148
vt 0.0282 0.9650
vt 0.0156 0.9742
vt 0.0323 0.9665
vt 0.0318 0.9779
vt 0.0496 0.9749
vt 0.0622 0.9634
vt 0.0662 0.9740
vt 0.0479 0.9643
vt 0.0394 0.9507
vt 0.0333 0.9424
vt 0.0322 0.9278
vt 0.0372 0.9338
vt 0.0640 0.9856
vt 0.0723 0.9876
vt 0.0826 0.9784
vt 0.0805 0.9883
vt 0.1007 0.9881
vt 0.1022 0.9792
vt 0.1223 0.9887
vt 0.2500 0.9870
vt 0.2507 0.9749
vt 0.2096 0.9739
vt 0.2087 0.9895
vt 0.1772 0.9754
vt 0.1752 0.9945
vt 0.1459 0.9779
vt 0.1462 0.9962
vt 0.1224 0.9781
vt 0.1042 0.9668
vt 0.1040 0.9540
vt 0.2930 0.9530
vt 0.2937 0.9428
vt 0.2489 0.9424
vt 0.2488 0.9525
vt 0.2498 0.9633
vt 0.2103 0.9614
vt 0.1787 0.9614
vt 0.1471 0.9619
vt 0.1213 0.9669
vt 0.1208 0.9514
vt 0.1213 0.9360
vt 0.1472 0.9242
vt 0.2104 0.9513
vt 0.1793 0.9502
vt 0.1484 0.9498
vt 0.2487 0.9315
vt 0.2089 0.9294
vt 0.2104 0.9398
vt 0.2487 0.9200
vt 0.2083 0.9196
vt 0.2098 0.9093
vt 0.1774 0.9101
vt 0.1754 0.9188
vt 0.1765 0.9265
vt 0.1487 0.9339
vt 0.1787 0.9365
vt 0.1804 0.9011
vt 0.2125 0.9008
vt 0.2493 0.9079
vt 0.2942 0.9195
vt 0.2939 0.9316
vt 0.2120 0.8905
vt 0.2512 0.8995
vt 0.2944 0.9072
vt 0.3325 0.9198
vt 0.3367 0.9290
vt 0.3384 0.9378
vt 0.3381 0.9494
vt 0.2964 0.9652
vt 0.2947 0.8982
vt 0.2935 0.8896
vt 0.3347 0.9643
vt 0.3306 0.9769
vt 0.2971 0.9764
vt 0.2942 0.9874
vt 0.3257 0.9868
vt 0.2086 0.8704
vt 0.2101 0.8807
vt 0.2489 0.8685
vt 0.2495 0.8802
vt 0.2920 0.8687
vt 0.2922 0.8806
vt 0.3345 0.8739
vt 0.3374 0.8864
vt 0.3367 0.8997
vt 0.3357 0.9111
vt 0.2510 0.8898
vt 0.0805 0.8564
vt 0.1007 0.8563
vt 0.1223 0.8569
vt 0.1462 0.8644
vt 0.1752 0.8627
vt 0.2087 0.8577
vt 0.2500 0.8552
vt 0.2942 0.8556
vt 0.3330 0.8643
vt 0.3257 0.8550
vn 0.6176 0.4457 0.6480
vn 0.7268 0.6445 0.2375
vn 0.1575 0.7879 0.5953
vn -0.2755 0.8167 0.5069
vn 0.7417 0.6704 -0.0209
vn -0.4908 0.7965 0.3531
vn 0.6739 0.6930 -0.2559
vn -0.5935 0.7959 0.1196
vn 0.4847 0.7178 -0.4998
vn 0.0663 0.7177 -0.6932
vn -0.5973 0.7402 -0.3086
vn 0.3981 -0.3804 0.8347
vn 0.2085 -0.3769 0.9025
vn 0.1606 -0.0479 0.9858
vn 0.5520 -0.5485 0.6280
vn -0.0317 -0.5284 0.8484
vn 0.0217 -0.9692 0.2453
vn 0.4563 0.1403 0.8787
vn 0.9374 -0.2027 0.2831
vn 0.1631 -0.5803 0.7979
vn 0.7002 -0.5893 0.4029
vn 0.8338 -0.2617 -0.4861
vn 0.9736 0.0555 0.2214
vn 0.8415 -0.1198 -0.5267
vn 0.9755 0.2094 0.0674
vn 0.9178 -0.0050 -0.3971
vn 0.9741 0.1998 0.1055
vn 0.9152 0.0181 -0.4026
vn 0.9348 -0.0019 0.3551
vn 0.9897 -0.0979 -0.1040
vn 0.8651 -0.1024 0.4910
vn 0.9805 -0.1174 -0.1578
vn 0.9352 0.0595 0.3489
vn 0.1611 -0.9637 0.2127
vn -0.0349 -0.9693 -0.2432
vn 0.8954 -0.3092 0.3204
vn 0.8896 0.4183 -0.1835
vn 0.8282 0.0868 -0.5536
vn 0.7468 -0.4207 -0.5150
vn 0.8623 -0.2714 -0.4274
vn 0.8510 0.0947 -0.5165
vn 0.7488 -0.0185 -0.6625
vn 0.7404 -0.1684 -0.6507
vn 0.4286 -0.1505 -0.8908
vn 0.7390 -0.1355 -0.6599
vn -0.4650 -0.0192 -0.8851
vn -0.4830 0.2150 -0.8488
vn -0.9112 0.2802 -0.3019
vn 0.1293 0.2282 -0.9650
vn 0.1649 -0.0906 -0.9821
vn 0.6302 0.1465 -0.7625
vn 0.6695 0.1761 -0.7216
vn -0.9060 0.2147 -0.3647
vn -0.9459 0.3152 0.0768
vn -0.5954 0.2128 -0.7747
vn 0.0325 0.1695 -0.9850
vn 0.7159 -0.4615 -0.5239
vn -0.5704 -0.0793 -0.8175
vn -0.8925 0.0407 -0.4491
vn 0.1531 -0.3996 -0.9038
vn 0.7396 -0.5283 -0.4169
vn 0.7666 0.2110 -0.6065
vn 0.6234 0.6117 -0.4869
vn 0.9757 0.2135 0.0487
vn 0.8663 -0.4993 0.0069
vn 0.4989 -0.8246 0.2664
vn 0.2073 -0.9628 -0.1733
vn 0.0164 -0.9812 -0.1922
vn 0.1584 -0.8244 -0.5434
vn -0.0438 -0.8966 -0.4406
vn 0.8183 0.1552 -0.5534
vn -0.5040 -0.2376 -0.8304
vn 0.2998 -0.4746 -0.8275
vn 0.7332 0.0701 -0.6764
vn 0.4692 0.5285 -0.7075
vn 0.4785 -0.0787 -0.8745
vn 0.6529 -0.6583 -0.3746
vn 0.1970 -0.3943 -0.8976
vn 0.0214 0.0513 -0.9984
vn 0.2819 -0.1590 -0.9461
vn -0.4177 -0.3734 -0.8283
vn -0.8880 -0.0054 -0.4597
vn -0.9882 0.0979 -0.1177
vn -0.9904 0.1061 -0.0880
vn -0.9334 -0.0231 0.3580
vn -0.8727 0.3092 0.3777
vn -0.4580 -0.0051 0.8889
vn -0.4425 0.2808 0.8516
vn 0.0593 -0.3485 0.9354
vn -0.9906 -0.1364 0.0029
vn -0.8730 -0.2653 -0.4091
vn -0.3194 -0.8925 -0.3184
vn -0.4934 -0.7339 -0.4668
vn -0.6189 -0.4168 -0.6658
vn -0.8025 -0.5215 -0.2897
vn -0.8892 -0.4484 0.0902
vn -0.8739 -0.3235 0.3629
vn -0.8781 -0.3849 0.2841
vn -0.8635 -0.5032 -0.0344
vn -0.7394 -0.6478 -0.1831
vn -0.6290 -0.6813 -0.3744
vn -0.2947 -0.9220 -0.2511
vn -0.3012 -0.9411 0.1533
vn -0.5280 -0.6184 0.5821
vn -0.4347 -0.2357 0.8692
vn -0.4143 -0.3230 0.8509
vn -0.8539 -0.4891 0.1776
vn -0.6803 -0.7288 0.0777
vn -0.5241 -0.8332 -0.1762
vn -0.8152 -0.5599 -0.1483
vn 0.0318 -0.0609 0.9976
vn 0.4282 -0.1617 0.8891
vn 0.5631 0.3333 0.7561
vn -0.0144 0.3414 0.9398
vn 0.5915 0.3917 0.7048
vn 0.5766 -0.0641 0.8145
vn 0.0723 -0.0725 0.9947
vn 0.0066 -0.1214 0.9926
vn 0.4517 -0.1137 0.8849
vn 0.0734 -0.0479 0.9962
vn 0.4471 -0.0569 0.8926
vn 0.0663 0.2048 0.9765
vn 0.6026 0.1727 0.7790
vn -0.0552 0.4235 0.9042
vn -0.5303 0.3835 0.7561
vn -0.7955 0.4106 0.4456
vn -0.8484 0.1737 0.5000
vn -0.9889 0.1484 0.0060
vn -0.9958 -0.0753 0.0505
vn -0.8477 -0.0563 0.5275
vn -0.4732 -0.0561 0.8792
vn -0.4936 -0.1187 0.8615
vn -0.4623 -0.0587 0.8848
vn -0.5121 0.1061 0.8523
vn -0.5903 0.3400 0.7321
vn -0.8767 0.2604 0.4043
vn -0.9524 0.2772 0.1270
vn -0.9529 0.0159 -0.3028
vn -0.8737 -0.1371 0.4666
vn -0.9054 -0.0813 0.4167
vn -0.9372 0.0374 0.3468
vn -0.8911 -0.0765 -0.4473
vn -0.9282 -0.1382 -0.3454
vn -0.9859 -0.1436 0.0860
vn -0.5275 -0.0821 -0.8455
vn -0.5474 -0.1453 -0.8242
vn 0.0678 -0.1740 -0.9824
vn 0.0773 -0.1863 -0.9794
vn -0.5533 -0.1588 -0.8177
vn -0.9509 -0.1216 -0.2845
vn -0.9998 0.0194 0.0048
vn -0.9916 -0.1080 0.0709
vn 0.4671 -0.1667 -0.8683
vn 0.5116 -0.1775 -0.8407
vn 0.0659 -0.1226 -0.9903
vn -0.5296 0.0238 -0.8479
vn -0.8714 0.0822 -0.4836
vn 0.7605 -0.1503 -0.6316
vn 0.5476 -0.1390 -0.8251
vn 0.0208 0.0137 -0.9997
vn -0.4920 0.2924 -0.8200
vn -0.4410 0.1886 0.8774
vn 0.5382 0.0321 -0.8422
vn 0.8438 0.0525 -0.5340
vn 0.1729 0.1499 0.9734
vn 0.6761 0.0890 0.7314
vn 0.8669 -0.1028 0.4876
vn 0.9816 -0.1201 -0.1486
vn 0.8971 -0.0520 0.4388
vn 0.9899 -0.0897 -0.1098
vn 0.9133 0.0822 0.3990
vn 0.9953 0.0803 -0.0530
vn 0.8124 -0.1294 -0.5685
usemtl mannequin_body_d
s 1
f 156/1/1 1/2/2 2/3/3
f 152/4/4 2/3/3 1/2/2
f 1/2/2 3/5/5 152/4/4
f 147/6/6 152/4/4 3/5/5
f 3/5/5 4/7/7 147/6/6
f 5/8/8 147/6/6 4/7/7
f 4/7/7 6/9/9 5/8/8
f 5/8/8 6/9/9 160/10/10
f 160/10/10 7/11/11 5/8/8
f 13/12/12 96/13/13 8/14/14
f 23/15/15 10/16/16 9/17/17
f 10/16/16 23/15/15 11/18/18
f 11/18/18 8/14/14 10/16/16
f 8/14/14 11/18/18 13/12/12
f 25/19/19 13/12/12 11/18/18
f 12/20/20 13/12/12 25/19/19
f 25/19/19 168/21/21 12/20/20
f 14/22/22 168/21/21 25/19/19
f 15/23/23 168/21/21 14/22/22
f 14/22/22 16/24/24 15/23/23
f 17/25/25 15/23/23 16/24/24
f 16/24/24 18/26/26 17/25/25
f 169/27/27 17/25/25 18/26/26
f 18/26/26 27/28/28 169/27/27
f 170/29/29 169/27/27 27/28/28
f 27/28/28 19/30/30 170/29/29
f 20/31/31 170/29/29 19/30/30
f 19/30/30 166/32/32 20/31/31
f 21/33/33 11/18/18 23/15/15
f 11/18/18 21/33/33 25/19/19
f 71/34/34 9/17/17 72/35/35
f 9/17/17 71/34/34 23/15/15
f 22/36/36 23/15/15 71/34/34
f 23/15/15 22/36/36 21/33/33
f 24/37/37 21/33/33 22/36/36
f 25/19/19 21/33/33 24/37/37
f 24/37/37 44/38/38 25/19/19
f 25/19/19 44/38/38 14/22/22
f 43/39/39 14/22/22 44/38/38
f 16/24/24 14/22/22 43/39/39
f 43/39/39 40/40/40 16/24/24
f 18/26/26 16/24/24 40/40/40
f 40/40/40 26/41/41 18/26/26
f 27/28/28 18/26/26 26/41/41
f 26/41/41 33/42/42 27/28/28
f 27/28/28 33/42/42 28/43/43
f 32/44/44 28/43/43 33/42/42
f 165/45/45 28/43/43 32/44/44
f 30/46/46 29/47/47 117/48/48
f 35/49/49 29/47/47 30/46/46
f 30/46/46 135/50/50 35/49/49
f 31/51/51 35/49/49 135/50/50
f 135/50/50 32/44/44 31/51/51
f 33/42/42 31/51/51 32/44/44
f 31/51/51 33/42/42 26/41/41
f 26/41/41 34/52/52 31/51/51
f 34/52/52 26/41/41 40/40/40
f 35/49/49 31/51/51 34/52/52
f 117/48/48 36/53/53 116/54/54
f 36/53/53 117/48/48 29/47/47
f 29/47/47 37/55/55 36/53/53
f 37/55/55 29/47/47 35/49/49
f 35/49/49 38/56/56 37/55/55
f 34/52/52 38/56/56 35/49/49
f 38/56/56 34/52/52 39/57/57
f 40/40/40 39/57/57 34/52/52
f 39/57/57 40/40/40 43/39/39
f 37/55/55 41/58/58 67/59/59
f 41/58/58 37/55/55 38/56/56
f 38/56/56 42/60/60 41/58/58
f 39/57/57 42/60/60 38/56/56
f 42/60/60 39/57/57 50/61/61
f 43/39/39 50/61/61 39/57/57
f 50/61/61 43/39/39 45/62/62
f 44/38/38 45/62/62 43/39/39
f 51/63/63 45/62/62 44/38/38
f 44/38/38 24/37/37 51/63/63
f 51/63/63 24/37/37 46/64/64
f 22/36/36 46/64/64 24/37/37
f 55/65/65 46/64/64 22/36/36
f 22/36/36 47/66/66 55/65/65
f 55/65/65 47/66/66 57/67/67
f 48/68/68 57/67/67 47/66/66
f 57/67/67 48/68/68 53/69/69
f 58/70/70 53/69/69 48/68/68
f 46/64/64 54/71/71 51/63/63
f 67/59/59 41/58/58 49/72/72
f 63/73/73 49/72/72 41/58/58
f 41/58/58 42/60/60 63/73/73
f 50/61/61 63/73/73 42/60/60
f 63/73/73 50/61/61 61/74/74
f 45/62/62 61/74/74 50/61/61
f 59/75/75 61/74/74 45/62/62
f 45/62/62 51/63/63 59/75/75
f 52/76/76 59/75/75 51/63/63
f 51/63/63 54/71/71 52/76/76
f 53/69/69 52/76/76 54/71/71
f 54/71/71 56/77/77 53/69/69
f 56/77/77 54/71/71 46/64/64
f 46/64/64 55/65/65 56/77/77
f 57/67/67 56/77/77 55/65/65
f 53/69/69 56/77/77 57/67/67
f 52/76/76 53/69/69 58/70/70
f 58/70/70 73/78/78 52/76/76
f 59/75/75 52/76/76 73/78/78
f 73/78/78 60/79/79 59/75/75
f 61/74/74 59/75/75 60/79/79
f 60/79/79 62/80/80 61/74/74
f 61/74/74 62/80/80 63/73/73
f 63/73/73 62/80/80 77/81/81
f 77/81/81 49/72/72 63/73/73
f 64/82/82 49/72/72 77/81/81
f 49/72/72 64/82/82 67/59/59
f 67/59/59 64/82/82 65/83/83
f 65/83/83 66/84/84 67/59/59
f 66/84/84 65/83/83 69/85/85
f 69/85/85 68/86/86 66/84/84
f 68/86/86 69/85/85 81/87/87
f 81/87/87 108/88/88 68/86/86
f 108/88/88 81/87/87 97/89/89
f 69/85/85 65/83/83 70/90/90
f 70/90/90 65/83/83 64/82/82
f 64/82/82 78/91/91 70/90/90
f 77/81/81 78/91/91 64/82/82
f 71/34/34 47/66/66 22/36/36
f 47/66/66 71/34/34 48/68/68
f 72/35/35 48/68/68 71/34/34
f 48/68/68 72/35/35 58/70/70
f 74/92/92 58/70/70 72/35/35
f 73/78/78 58/70/70 74/92/92
f 74/92/92 75/93/93 73/78/78
f 60/79/79 73/78/78 75/93/93
f 75/93/93 76/94/94 60/79/79
f 62/80/80 60/79/79 76/94/94
f 76/94/94 77/81/81 62/80/80
f 77/81/81 76/94/94 83/95/95
f 83/95/95 78/91/91 77/81/81
f 78/91/91 83/95/95 79/96/96
f 79/96/96 70/90/90 78/91/91
f 80/97/97 70/90/90 79/96/96
f 70/90/90 80/97/97 69/85/85
f 81/87/87 69/85/85 80/97/97
f 79/96/96 93/98/98 80/97/97
f 93/98/98 79/96/96 82/99/99
f 82/99/99 79/96/96 83/95/95
f 83/95/95 84/100/100 82/99/99
f 84/100/100 83/95/95 76/94/94
f 76/94/94 75/93/93 84/100/100
f 84/100/100 75/93/93 74/92/92
f 74/92/92 85/101/101 84/100/100
f 85/101/101 74/92/92 89/102/102
f 72/35/35 89/102/102 74/92/92
f 87/103/103 89/102/102 72/35/35
f 72/35/35 9/104/17 87/103/103
f 86/105/104 87/103/103 9/104/17
f 9/104/17 10/106/16 86/105/104
f 86/105/104 10/106/16 8/107/14
f 82/99/99 84/100/100 85/101/101
f 80/97/97 95/108/105 81/87/87
f 81/87/87 95/108/105 96/109/13
f 8/107/14 96/109/13 95/108/105
f 95/108/105 94/110/106 8/107/14
f 8/107/14 94/110/106 86/105/104
f 91/111/107 86/105/104 94/110/106
f 87/103/103 86/105/104 91/111/107
f 91/111/107 88/112/108 87/103/103
f 89/102/102 87/103/103 88/112/108
f 88/112/108 90/113/109 89/102/102
f 89/102/102 90/113/109 85/101/101
f 92/114/110 85/101/101 90/113/109
f 85/101/101 92/114/110 82/99/99
f 91/111/107 82/99/99 92/114/110
f 82/99/99 91/111/107 93/98/98
f 94/110/106 93/98/98 91/111/107
f 93/98/98 94/110/106 95/108/105
f 95/108/105 80/97/97 93/98/98
f 92/114/110 88/112/108 91/111/107
f 90/113/109 88/112/108 92/114/110
f 96/109/13 13/115/12 12/116/20
f 12/116/20 97/89/89 96/109/13
f 96/109/13 97/89/89 81/87/87
f 97/89/89 100/117/111 108/88/88
f 100/117/111 97/89/89 12/116/20
f 12/116/20 167/118/112 100/117/111
f 100/117/111 167/118/112 98/119/113
f 98/119/113 99/120/114 100/117/111
f 99/120/114 98/119/113 106/121/115
f 108/88/88 100/117/111 99/120/114
f 101/122/116 102/123/117 103/124/118
f 103/124/118 172/125/119 101/122/116
f 172/125/119 103/124/118 111/126/120
f 111/126/120 104/127/121 172/125/119
f 104/127/121 111/126/120 113/128/122
f 113/128/122 105/129/123 104/127/121
f 106/121/115 105/129/123 113/128/122
f 113/128/122 114/130/124 106/121/115
f 106/121/115 114/130/124 99/120/114
f 107/131/125 99/120/114 114/130/124
f 99/120/114 107/131/125 108/88/88
f 108/88/88 107/131/125 115/132/126
f 115/132/126 68/86/86 108/88/88
f 68/86/86 115/132/126 116/54/54
f 116/54/54 66/84/84 68/86/86
f 66/84/84 116/54/54 36/53/53
f 36/53/53 67/59/59 66/84/84
f 67/59/59 36/53/53 37/55/55
f 148/133/127 109/134/128 140/135/129
f 140/135/129 110/136/130 148/133/127
f 148/133/127 110/136/130 149/137/131
f 124/138/132 149/137/131 110/136/130
f 149/137/131 124/138/132 103/124/118
f 103/124/118 124/138/132 120/139/133
f 120/139/133 111/126/120 103/124/118
f 111/126/120 120/139/133 112/140/134
f 112/140/134 113/128/122 111/126/120
f 113/128/122 112/140/134 123/141/135
f 123/141/135 114/130/124 113/128/122
f 114/130/124 123/141/135 107/131/125
f 115/132/126 107/131/125 123/141/135
f 123/141/135 122/142/136 115/132/126
f 116/54/54 115/132/126 122/142/136
f 122/142/136 118/143/137 116/54/54
f 116/54/54 118/143/137 117/48/48
f 134/144/138 117/48/48 118/143/137
f 124/138/132 141/145/139 119/146/140
f 119/146/140 120/139/133 124/138/132
f 120/139/133 119/146/140 121/147/141
f 121/147/141 112/140/134 120/139/133
f 112/140/134 121/147/141 122/142/136
f 122/142/136 123/141/135 112/140/134
f 141/145/139 110/136/130 140/135/129
f 110/136/130 141/145/139 124/138/132
f 139/148/142 132/149/143 130/150/144
f 132/149/143 139/148/142 125/151/145
f 125/151/145 128/152/146 132/149/143
f 126/153/147 128/152/146 125/151/145
f 128/152/146 126/153/147 136/154/148
f 136/154/148 127/155/149 128/152/146
f 128/152/146 127/155/149 133/156/150
f 134/144/138 133/156/150 127/155/149
f 133/156/150 134/144/138 129/157/151
f 118/143/137 129/157/151 134/144/138
f 121/147/141 129/157/151 118/143/137
f 118/143/137 122/142/136 121/147/141
f 131/158/152 130/150/144 132/149/143
f 130/150/144 131/158/152 119/146/140
f 121/147/141 119/146/140 131/158/152
f 131/158/152 129/157/151 121/147/141
f 129/157/151 131/158/152 133/156/150
f 132/149/143 133/156/150 131/158/152
f 133/156/150 132/149/143 128/152/146
f 117/48/48 134/144/138 30/46/46
f 127/155/149 30/46/46 134/144/138
f 135/50/50 30/46/46 127/155/149
f 127/155/149 136/154/148 135/50/50
f 32/44/44 135/50/50 136/154/148
f 136/154/148 137/159/153 32/44/44
f 137/159/153 136/154/148 126/153/147
f 126/153/147 142/160/154 137/159/153
f 142/160/154 126/153/147 138/161/155
f 125/151/145 138/161/155 126/153/147
f 138/161/155 125/151/145 145/162/156
f 146/163/157 145/162/156 125/151/145
f 125/151/145 139/148/142 146/163/157
f 109/134/128 146/163/157 139/148/142
f 139/148/142 140/135/129 109/134/128
f 130/150/144 140/135/129 139/148/142
f 140/135/129 130/150/144 141/145/139
f 119/146/140 141/145/139 130/150/144
f 32/44/44 137/159/153 165/45/45
f 164/164/158 165/45/45 137/159/153
f 137/159/153 142/160/154 164/164/158
f 164/164/158 142/160/154 143/165/159
f 138/161/155 143/165/159 142/160/154
f 143/165/159 138/161/155 159/166/160
f 145/162/156 159/166/160 138/161/155
f 159/166/160 145/162/156 144/167/161
f 144/167/161 145/162/156 146/163/157
f 146/163/157 7/168/11 144/167/161
f 5/169/8 7/168/11 146/163/157
f 146/163/157 109/134/128 5/169/8
f 147/170/6 5/169/8 109/134/128
f 109/134/128 148/133/127 147/170/6
f 147/170/6 148/133/127 153/171/162
f 149/137/131 153/171/162 148/133/127
f 153/171/162 149/137/131 102/123/117
f 103/124/118 102/123/117 149/137/131
f 143/165/159 150/172/163 151/173/164
f 159/166/160 150/172/163 143/165/159
f 153/171/162 152/174/4 147/170/6
f 2/175/3 152/174/4 153/171/162
f 153/171/162 154/176/165 2/175/3
f 102/123/117 154/176/165 153/171/162
f 155/177/166 154/176/165 102/123/117
f 102/123/117 101/122/116 155/177/166
f 156/178/1 2/175/3 154/176/165
f 154/176/165 155/177/166 156/178/1
f 171/179/167 20/31/31 166/32/32
f 166/32/32 157/180/168 171/179/167
f 173/181/169 171/179/167 157/180/168
f 157/180/168 163/182/170 173/181/169
f 158/183/171 173/181/169 163/182/170
f 163/182/170 162/184/172 158/183/171
f 158/183/171 162/184/172 3/185/5
f 3/185/5 162/184/172 151/173/164
f 151/173/164 4/186/7 3/185/5
f 4/186/7 151/173/164 150/172/163
f 150/172/163 6/187/9 4/186/7
f 6/187/9 150/172/163 159/166/160
f 159/166/160 160/188/10 6/187/9
f 144/167/161 160/188/10 159/166/160
f 144/167/161 7/168/11 160/188/10
f 143/165/159 161/189/173 164/164/158
f 151/173/164 161/189/173 143/165/159
f 161/189/173 151/173/164 162/184/172
f 162/184/172 163/182/170 161/189/173
f 164/164/158 161/189/173 163/182/170
f 163/182/170 157/180/168 164/164/158
f 165/45/45 164/164/158 157/180/168
f 157/180/168 166/32/32 165/45/45
f 28/43/43 165/45/45 166/32/32
f 166/32/32 19/30/30 28/43/43
f 28/43/43 19/30/30 27/28/28
f 167/190/112 12/20/20 168/21/21
f 168/21/21 15/23/23 167/190/112
f 98/191/113 167/190/112 15/23/23
f 15/23/23 17/25/25 98/191/113
f 106/192/115 98/191/113 17/25/25
f 17/25/25 169/27/27 106/192/115
f 105/193/123 106/192/115 169/27/27
f 169/27/27 170/29/29 105/193/123
f 104/194/121 105/193/123 170/29/29
f 170/29/29 20/31/31 104/194/121
f 104/194/121 20/31/31 171/179/167
f 171/179/167 172/195/119 104/194/121
f 172/195/119 171/179/167 173/181/169
f 173/181/169 101/196/116 172/195/119
f 101/196/116 173/181/169 158/183/171
f 158/183/171 155/197/166 101/196/116
f 155/197/166 158/183/171 1/198/2
f 3/185/5 1/198/2 158/183/171
f 1/198/2 156/199/1 155/197/166
