# Blender v2.77 (sub 0) OBJ File: ''
# www.blender.org
mtllib thigh.mtl
o mannequin_idle_reference.012
v 1.679621 6.647890 3.280806
v 2.923461 10.039988 2.968251
v 2.541253 11.743387 2.181449
v 1.756638 9.666586 4.004251
v 0.795878 8.895987 4.984771
v -0.898323 8.806890 4.895010
v 0.440319 5.765593 4.216303
v -1.615882 5.440588 3.931089
v -3.517119 9.719893 1.410658
v -3.718529 6.516989 0.484766
v -1.502033 6.864286 -3.295293
v -2.747260 1.910391 1.215399
v -3.073018 2.250589 -0.342944
v -2.404648 -2.195814 -0.648525
v -3.361432 5.924688 2.312947
v -3.049568 6.754988 -1.602003
v 3.153584 9.853590 -0.428039
v 0.342676 10.015188 -2.443199
v 0.097713 11.970886 -1.130222
v -1.444217 10.366789 -2.241702
v -2.572399 12.016590 0.633508
v -2.997737 10.098890 -0.836924
v -2.912542 9.305487 3.416487
v -2.350611 11.709787 3.451291
v 3.348636 6.272886 -1.321477
v 1.959485 9.660189 -2.173081
v 2.889624 2.111280 -0.604637
v 1.820795 -2.173811 -1.697779
v 0.853055 -11.300512 -2.320848
v 0.888515 -9.568213 -2.643060
v -0.970865 -9.556784 -2.833381
v 1.502366 -9.584044 -1.821858
v 0.853136 -6.671812 -2.572479
v 1.489945 -6.589014 -1.739317
v 1.045356 -2.016912 -2.578540
v 2.554476 2.119089 -1.991908
v 1.977188 6.048285 -3.216230
v 0.233046 2.567190 -3.383111
v 0.249907 6.517286 -3.641503
v -1.352974 2.677389 -3.028753
v -1.684326 -6.645212 -1.760512
v -2.005325 -2.026014 -1.712592
v -2.556794 2.467489 -1.733282
v 0.015896 -1.941515 -2.991670
v 1.633148 2.233885 -3.062460
v -1.082515 -1.933714 -2.641793
v -0.016035 -6.725611 -3.041601
v -0.159434 -9.552485 -3.130920
v -0.893334 -6.724611 -2.701263
v -1.782886 -9.652704 -1.983302
v -1.967078 -2.376013 0.308987
v -2.053986 -6.712214 -0.780632
v -1.356079 1.329187 2.270872
v 0.342370 1.009787 2.609172
v 1.559082 1.469484 2.107679
v 3.755443 6.929083 0.548172
v 3.193552 6.932093 2.090220
v 3.444832 10.385290 1.457434
v 2.164514 -2.355014 -0.655110
v 2.441042 2.047289 0.900722
v -1.037807 -2.581011 1.324690
v -0.068067 -6.673914 1.478859
v -1.633947 -6.916712 0.107718
v -1.516087 -10.051165 0.107660
v -0.912050 -6.831114 1.100309
v -1.007355 -11.239042 -2.408871
v -1.652866 -11.189920 -1.716601
v -2.031246 -9.810614 -0.935521
v -1.878647 -11.075071 -0.945703
v -1.308588 -11.215082 -0.113640
v -0.814999 -9.880121 1.142179
v -0.081319 -9.709494 1.504062
v 0.060420 -2.700212 1.748715
v -0.045139 -11.437326 1.011220
v 0.793092 -9.678244 1.087351
v 0.984183 -2.678312 1.350141
v 0.695272 -6.599012 1.049180
v 1.389594 -6.552214 0.035471
v 1.774955 -6.533411 -0.824318
v 1.754483 -2.536112 0.342121
v 1.461464 -9.643634 0.092784
v 1.773655 -11.253222 -0.892769
v 1.802305 -9.603312 -0.873638
v 1.476743 -11.457972 -0.125328
v 1.258114 -11.745081 -0.888539
v 0.829771 -11.491053 0.696561
v -0.116597 -11.622663 -0.853531
v -0.732688 -11.292505 0.730171
v -0.811506 -11.485212 -0.878372
v -1.259397 -11.462313 -0.918981
v -0.270855 -11.247644 -2.688711
v 0.734224 -11.759523 -0.850909
v 1.487024 -11.350313 -1.623599
v 0.925721 11.771988 1.007969
v 1.317199 10.971386 3.901393
v 2.096009 11.546484 3.348042
v 1.661251 11.909288 2.106730
v 1.988554 11.879488 0.796112
v 1.184214 11.921988 -0.698900
v -0.028387 11.782089 0.553819
v -1.346077 12.112488 -0.826212
v -1.261289 11.909388 0.919799
v -2.924231 11.731583 2.154109
v -2.110340 12.084391 2.026798
v -0.929012 11.025091 4.139660
v 0.419508 10.708292 4.236392
vt 0.4932 0.7695
vt 0.5352 0.7788
vt 0.5322 0.7615
vt 0.4888 0.7526
vt 0.5303 0.7468
vt 0.4851 0.7383
vt 0.4861 0.7161
vt 0.4504 0.7258
vt 0.4495 0.7451
vt 0.4558 0.7574
vt 0.4624 0.7678
vt 0.4937 0.7955
vt 0.5342 0.8038
vt 0.4937 0.8240
vt 0.5332 0.8333
vt 0.4944 0.8456
vt 0.5337 0.8542
vt 0.4958 0.8734
vt 0.5347 0.8789
vt 0.4973 0.8980
vt 0.5430 0.9017
vt 0.5000 0.9203
vt 0.5908 0.8430
vt 0.5923 0.8643
vt 0.6489 0.8586
vt 0.5420 0.9725
vt 0.5415 0.9937
vt 0.5996 0.9682
vt 0.5039 0.9691
vt 0.5029 0.9402
vt 0.4700 0.9170
vt 0.4700 0.9023
vt 0.4656 0.8838
vt 0.4617 0.8632
vt 0.4602 0.8333
vt 0.4587 0.8138
vt 0.4609 0.7894
vt 0.5029 0.9917
vt 0.4680 0.9387
vt 0.4663 0.9698
vt 0.5454 0.9236
vt 0.5479 0.9432
vt 0.5991 0.9564
vt 0.6548 0.9229
vt 0.6543 0.9387
vt 0.7075 0.9112
vt 0.7075 0.9219
vt 0.7456 0.9213
vt 0.7456 0.9099
vt 0.7710 0.9113
vt 0.7710 0.9018
vt 0.7461 0.9012
vt 0.7700 0.8821
vt 0.7451 0.8847
vt 0.7451 0.8751
vt 0.7705 0.9224
vt 0.7085 0.9003
vt 0.6548 0.9119
vt 0.5986 0.9360
vt 0.5967 0.9166
vt 0.5942 0.8947
vt 0.5918 0.8755
vt 0.6509 0.8739
vt 0.7065 0.8671
vt 0.6519 0.8848
vt 0.6533 0.8996
vt 0.7070 0.8795
vt 0.7080 0.8901
vt 0.7451 0.8658
vt 0.7065 0.8563
vt 0.6494 0.8486
vt 0.5908 0.8239
vt 0.5908 0.8018
vt 0.5894 0.7831
vt 0.5884 0.7675
vt 0.5317 0.7246
vt 0.6455 0.8060
vt 0.6445 0.7908
vt 0.6450 0.7803
vt 0.5894 0.7454
vt 0.7051 0.8319
vt 0.7441 0.8325
vt 0.7451 0.8220
vt 0.7051 0.8192
vt 0.6479 0.8317
vt 0.6475 0.8149
vt 0.7065 0.8480
vt 0.7446 0.8549
vt 0.7446 0.8451
vt 0.7695 0.8749
vt 0.7695 0.8646
vt 0.7695 0.8539
vt 0.7690 0.8423
vt 0.7681 0.8289
vt 0.7686 0.8179
vt 0.7451 0.8096
vt 0.7051 0.8093
vt 0.7686 0.8053
vt 0.7456 0.7963
vt 0.7056 0.7927
vt 0.7056 0.7839
vt 0.7461 0.7860
vt 0.7695 0.7791
vt 0.7690 0.7913
vt 0.7495 0.9386
vt 0.7432 0.9487
vt 0.7549 0.9465
vt 0.7588 0.9517
vt 0.7378 0.9622
vt 0.7651 0.9606
vt 0.7407 0.9742
vt 0.7500 0.9798
vt 0.7700 0.9675
vt 0.7646 0.9789
vt 0.7725 0.9713
vt 0.7788 0.9799
vt 0.7842 0.9703
vt 0.7856 0.9577
vt 0.7852 0.9494
vt 0.7710 0.9370
vt 0.7603 0.9368
vt 0.4429 0.8000
vt 0.4409 0.7827
vt 0.3467 0.7567
vt 0.4021 0.7595
vt 0.4282 0.7594
vt 0.4060 0.7461
vt 0.3643 0.7419
vt 0.3350 0.7535
vt 0.3359 0.7705
vt 0.3242 0.7673
vt 0.3245 0.7920
vt 0.3362 0.7953
vt 0.3418 0.8240
vt 0.3833 0.8279
vt 0.3796 0.8417
vt 0.4058 0.8417
vt 0.4302 0.8212
vn 0.3530 0.0445 0.9345
vn 0.3022 -0.2691 0.9145
vn 0.6735 -0.2162 0.7068
vn 0.6085 0.0747 0.7900
vn 0.8211 -0.1659 0.5461
vn 0.8217 0.1019 0.5607
vn 0.9404 0.3377 0.0396
vn 0.6196 0.7714 0.1448
vn 0.3240 0.7167 0.6176
vn 0.1067 0.6317 0.7678
vn 0.1258 0.6582 0.7422
vn -0.2968 0.0495 0.9536
vn -0.4279 -0.2633 0.8646
vn -0.7853 0.0715 0.6149
vn -0.8838 -0.1516 0.4426
vn -0.9849 0.1655 0.0500
vn -0.9972 -0.0322 -0.0673
vn -0.8340 0.3022 -0.4615
vn -0.8568 0.0365 -0.5143
vn -0.3668 0.4269 -0.8265
vn -0.4607 0.1175 -0.8797
vn 0.1156 0.4433 -0.8889
vn -0.8569 -0.2476 0.4520
vn -0.9837 -0.1420 -0.1100
vn -0.9911 -0.1328 -0.0053
vn 0.9151 0.0130 -0.4029
vn 0.9972 -0.0465 0.0590
vn 0.9836 -0.1806 0.0033
vn 0.8486 0.3617 -0.3859
vn 0.5346 0.3963 -0.7464
vn 0.3338 0.8725 -0.3568
vn 0.1150 0.8758 -0.4687
vn -0.2375 0.8908 -0.3873
vn -0.5554 0.8124 -0.1775
vn -0.7860 0.5976 0.1579
vn -0.3816 0.6804 0.6256
vn -0.0553 0.6636 0.7460
vn 0.3957 0.9035 -0.1645
vn 0.0403 0.1215 -0.9918
vn 0.5518 0.0637 -0.8315
vn 0.8733 -0.1484 -0.4639
vn 0.8592 -0.1092 -0.4998
vn 0.9911 -0.1322 0.0141
vn 0.8875 -0.0245 -0.4601
vn 0.9973 -0.0480 0.0558
vn 0.9998 -0.0048 0.0155
vn 0.8821 -0.0316 -0.4700
vn 0.6989 -0.5441 -0.4642
vn 0.4000 -0.6273 -0.6681
vn 0.6148 -0.0837 -0.7842
vn -0.0261 -0.6621 -0.7489
vn 0.0394 -0.1078 -0.9934
vn -0.5372 -0.0680 -0.8407
vn 0.9407 -0.3384 -0.0234
vn 0.6430 0.0012 -0.7659
vn 0.5659 -0.0985 -0.8185
vn 0.5058 -0.1137 -0.8551
vn -0.0078 -0.0776 -0.9969
vn -0.4949 -0.0832 -0.8650
vn -0.8394 -0.0944 -0.5353
vn -0.8335 -0.0792 -0.5468
vn -0.8604 0.0086 -0.5094
vn -0.5214 -0.0539 -0.8516
vn 0.0219 -0.0604 -0.9979
vn -0.5732 0.0283 -0.8189
vn 0.0644 0.0244 -0.9976
vn -0.8680 -0.0554 -0.4933
vn -0.9984 -0.0367 0.0432
vn -0.8341 -0.1622 0.5272
vn -0.4717 -0.3111 0.8250
vn 0.1199 -0.2910 0.9492
vn 0.6784 -0.2166 0.7020
vn 0.8868 -0.1900 0.4212
vn 0.6199 -0.1716 0.7656
vn 0.8686 -0.1538 0.4711
vn -0.6313 -0.0312 0.7748
vn -0.6240 -0.1356 0.7695
vn 0.0048 -0.1242 0.9922
vn 0.0439 -0.0293 0.9986
vn -0.5725 -0.1421 0.8075
vn 0.0126 -0.1533 0.9881
vn -0.8597 -0.0470 0.5085
vn -0.9933 -0.0687 0.0930
vn -0.8508 -0.1248 0.5105
vn -0.4366 -0.6674 -0.6033
vn -0.6992 -0.6178 -0.3597
vn -0.8722 -0.4769 0.1091
vn -0.6398 -0.6613 0.3916
vn -0.5355 -0.6543 0.5340
vn -0.0670 -0.7083 0.7027
vn 0.6406 -0.0761 0.7640
vn 0.6725 -0.0332 0.7393
vn 0.4293 -0.6716 0.6038
vn 0.8877 -0.0148 0.4601
vn 0.8733 -0.0467 0.4848
vn 0.7199 -0.5752 0.3885
vn 0.3015 -0.9503 -0.0777
vn -0.0225 -0.9980 -0.0593
vn -0.1431 -0.9890 -0.0376
vn -0.1707 -0.9853 0.0074
vn -0.2504 -0.9680 0.0118
vn -0.1430 0.9785 0.1485
vn -0.1962 0.9618 0.1909
vn 0.0537 0.9843 0.1679
vn 0.1645 0.9783 0.1259
vn 0.0250 0.9894 0.1431
usemtl mannequin_body_d
s 1
f 5/1/1 7/2/2 1/3/3
f 1/3/3 4/4/4 5/1/1
f 4/4/4 1/3/3 57/5/5
f 57/5/5 2/6/6 4/4/4
f 2/6/6 58/7/7 3/8/8
f 3/8/8 96/9/9 2/6/6
f 4/4/4 2/6/6 96/9/9
f 96/9/9 95/10/10 4/4/4
f 4/4/4 95/10/10 106/11/11
f 106/11/11 5/1/1 4/4/4
f 6/12/12 5/1/1 106/11/11
f 7/2/2 5/1/1 6/12/12
f 6/12/12 8/13/13 7/2/2
f 8/13/13 6/12/12 23/14/14
f 23/14/14 15/15/15 8/13/13
f 15/15/15 23/14/14 9/16/16
f 9/16/16 10/17/17 15/15/15
f 10/17/17 9/16/16 22/18/18
f 22/18/18 16/19/19 10/17/17
f 16/19/19 22/18/18 20/20/20
f 20/20/20 11/21/21 16/19/19
f 11/21/21 20/20/20 18/22/22
f 8/13/13 15/15/15 12/23/23
f 12/23/23 13/24/24 14/25/25
f 13/24/24 12/23/23 15/15/15
f 15/15/15 10/17/17 13/24/24
f 13/24/24 10/17/17 16/19/19
f 25/26/26 56/27/27 27/28/28
f 56/27/27 25/26/26 17/29/29
f 26/30/30 17/29/29 25/26/26
f 17/29/29 26/30/30 99/31/31
f 99/31/31 26/30/30 18/22/22
f 18/22/22 19/32/32 99/31/31
f 19/32/32 18/22/22 20/20/20
f 20/20/20 101/33/33 19/32/32
f 101/33/33 20/20/20 22/18/18
f 22/18/18 21/34/34 101/33/33
f 21/34/34 22/18/18 9/16/16
f 9/16/16 103/35/35 21/34/34
f 103/35/35 9/16/16 23/14/14
f 23/14/14 24/36/36 103/35/35
f 105/37/37 24/36/36 23/14/14
f 23/14/14 6/12/12 105/37/37
f 106/11/11 105/37/37 6/12/12
f 17/29/29 58/38/7 56/27/27
f 58/38/7 17/29/29 98/39/38
f 99/31/31 98/39/38 17/29/29
f 98/39/38 3/40/8 58/38/7
f 18/22/22 39/41/39 11/21/21
f 39/41/39 18/22/22 26/30/30
f 26/30/30 37/42/40 39/41/39
f 25/26/26 37/42/40 26/30/30
f 37/42/40 25/26/26 36/43/41
f 27/28/28 36/43/41 25/26/26
f 28/44/42 36/43/41 27/28/28
f 27/28/28 59/45/43 28/44/42
f 34/46/44 28/44/42 59/45/43
f 59/45/43 79/47/45 34/46/44
f 34/46/44 79/47/45 83/48/46
f 83/48/46 32/49/47 34/46/44
f 93/50/48 32/49/47 83/48/46
f 32/49/47 93/50/48 29/51/49
f 29/51/49 30/52/50 32/49/47
f 30/52/50 29/51/49 91/53/51
f 91/53/51 48/54/52 30/52/50
f 31/55/53 48/54/52 91/53/51
f 83/48/46 82/56/54 93/50/48
f 32/49/47 30/52/50 33/57/55
f 33/57/55 34/46/44 32/49/47
f 28/44/42 34/46/44 33/57/55
f 33/57/55 35/58/56 28/44/42
f 36/43/41 28/44/42 35/58/56
f 35/58/56 45/59/57 36/43/41
f 36/43/41 45/59/57 37/42/40
f 37/42/40 45/59/57 38/60/58
f 38/60/58 39/41/39 37/42/40
f 39/41/39 38/60/58 40/61/59
f 40/61/59 11/21/21 39/41/39
f 16/19/19 11/21/21 40/61/59
f 40/61/59 43/62/60 16/19/19
f 16/19/19 43/62/60 13/24/24
f 13/24/24 43/62/60 42/63/61
f 42/63/61 14/25/25 13/24/24
f 14/25/25 42/63/61 41/64/62
f 41/64/62 42/63/61 46/65/63
f 46/65/63 42/63/61 43/62/60
f 43/62/60 40/61/59 46/65/63
f 46/65/63 40/61/59 38/60/58
f 38/60/58 44/66/64 46/65/63
f 44/66/64 38/60/58 45/59/57
f 45/59/57 35/58/56 44/66/64
f 44/66/64 35/58/56 33/57/55
f 46/65/63 49/67/65 41/64/62
f 49/67/65 46/65/63 44/66/64
f 44/66/64 47/68/66 49/67/65
f 33/57/55 47/68/66 44/66/64
f 47/68/66 33/57/55 30/52/50
f 30/52/50 48/54/52 47/68/66
f 49/67/65 47/68/66 48/54/52
f 48/54/52 31/55/53 49/67/65
f 49/67/65 31/55/53 50/69/67
f 50/69/67 41/64/62 49/67/65
f 52/70/68 41/64/62 50/69/67
f 41/64/62 52/70/68 14/25/25
f 51/71/69 14/25/25 52/70/68
f 14/25/25 51/71/69 12/23/23
f 53/72/70 12/23/23 51/71/69
f 12/23/23 53/72/70 8/13/13
f 8/13/13 53/72/70 54/73/71
f 54/73/71 7/2/2 8/13/13
f 7/2/2 54/73/71 55/74/72
f 55/74/72 1/3/3 7/2/2
f 1/3/3 55/74/72 60/75/73
f 60/75/73 57/5/5 1/3/3
f 56/76/27 57/5/5 60/75/73
f 57/5/5 56/76/27 58/7/7
f 58/7/7 2/6/6 57/5/5
f 55/74/72 76/77/74 80/78/75
f 80/78/75 60/75/73 55/74/72
f 60/75/73 80/78/75 59/79/43
f 59/79/43 27/80/28 60/75/73
f 60/75/73 27/80/28 56/76/27
f 65/81/76 71/82/77 72/83/78
f 72/83/78 62/84/79 65/81/76
f 61/85/80 65/81/76 62/84/79
f 62/84/79 73/86/81 61/85/80
f 61/85/80 73/86/81 54/73/71
f 54/73/71 53/72/70 61/85/80
f 51/71/69 61/85/80 53/72/70
f 61/85/80 51/71/69 63/87/82
f 52/70/68 63/87/82 51/71/69
f 63/87/82 52/70/68 68/88/83
f 50/69/67 68/88/83 52/70/68
f 68/88/83 64/89/84 63/87/82
f 63/87/82 64/89/84 71/82/77
f 71/82/77 65/81/76 63/87/82
f 63/87/82 65/81/76 61/85/80
f 91/53/51 66/90/85 31/55/53
f 50/69/67 31/55/53 66/90/85
f 66/90/85 67/91/86 50/69/67
f 68/88/83 50/69/67 67/91/86
f 67/91/86 69/92/87 68/88/83
f 64/89/84 68/88/83 69/92/87
f 69/92/87 70/93/88 64/89/84
f 64/89/84 70/93/88 88/94/89
f 88/94/89 71/82/77 64/89/84
f 71/82/77 88/94/89 74/95/90
f 74/95/90 72/83/78 71/82/77
f 75/96/91 72/83/78 74/95/90
f 62/84/79 72/83/78 75/96/91
f 75/96/91 77/97/92 62/84/79
f 73/86/81 62/84/79 77/97/92
f 77/97/92 76/77/74 73/86/81
f 54/73/71 73/86/81 76/77/74
f 76/77/74 55/74/72 54/73/71
f 74/95/90 86/98/93 75/96/91
f 81/99/94 75/96/91 86/98/93
f 77/97/92 75/96/91 81/99/94
f 81/99/94 78/100/95 77/97/92
f 76/77/74 77/97/92 78/100/95
f 78/100/95 80/78/75 76/77/74
f 80/78/75 78/100/95 79/101/45
f 79/101/45 59/79/43 80/78/75
f 83/102/46 79/101/45 78/100/95
f 78/100/95 81/99/94 83/102/46
f 82/103/54 83/102/46 81/99/94
f 81/99/94 84/104/96 82/103/54
f 86/98/93 84/104/96 81/99/94
f 82/105/54 84/106/96 85/107/97
f 92/108/98 85/107/97 84/106/96
f 84/106/96 86/109/93 92/108/98
f 87/110/99 92/108/98 86/109/93
f 86/109/93 74/111/90 87/110/99
f 87/110/99 74/111/90 88/112/89
f 88/112/89 89/113/100 87/110/99
f 89/113/100 88/112/89 70/114/88
f 70/114/88 90/115/101 89/113/100
f 90/115/101 70/114/88 69/116/87
f 69/116/87 67/117/86 90/115/101
f 89/113/100 90/115/101 67/117/86
f 67/117/86 66/118/85 89/113/100
f 87/110/99 89/113/100 66/118/85
f 66/118/85 91/119/51 87/110/99
f 87/110/99 91/119/51 29/120/49
f 29/120/49 92/108/98 87/110/99
f 92/108/98 29/120/49 93/121/48
f 93/121/48 85/107/97 92/108/98
f 85/107/97 93/121/48 82/105/54
f 106/122/11 95/123/10 94/124/102
f 97/125/103 94/124/102 95/123/10
f 95/123/10 96/126/9 97/125/103
f 97/125/103 96/126/9 3/127/8
f 3/127/8 98/128/38 97/125/103
f 94/124/102 97/125/103 98/128/38
f 98/128/38 99/129/31 94/124/102
f 100/130/104 94/124/102 99/129/31
f 99/129/31 19/131/32 100/130/104
f 100/130/104 19/131/32 101/132/33
f 101/132/33 102/133/105 100/130/104
f 102/133/105 101/132/33 21/134/34
f 21/134/34 104/135/106 102/133/105
f 104/135/106 21/134/34 103/136/35
f 103/136/35 24/137/36 104/135/106
f 104/135/106 24/137/36 105/138/37
f 105/138/37 102/133/105 104/135/106
f 100/130/104 102/133/105 105/138/37
f 105/138/37 106/122/11 100/130/104
f 94/124/102 100/130/104 106/122/11
