# Blender v2.77 (sub 0) OBJ File: ''
# www.blender.org
mtllib upperarm.mtl
o mannequin_idle_reference.006
v 1.379315 4.538445 -2.264287
v 2.063787 4.206076 -1.212636
v 1.823284 1.662029 -1.077409
v 1.196523 -5.056717 -2.248863
v 1.055718 -1.680419 -2.041165
v 1.583951 -1.947201 -0.979743
v 1.243744 -8.056025 -2.125971
v 1.637167 -5.298918 -0.968000
v 1.009558 -10.868410 -1.585160
v 0.362297 -11.532240 -0.709359
v 0.353431 -11.524929 -1.295628
v 0.246957 -11.003731 -1.864402
v 0.011939 -4.924008 -2.684362
v -2.043295 -7.944921 -1.135900
v -1.417118 -10.975090 -0.020962
v 0.327902 -11.490778 0.040880
v -1.221171 -11.055875 -0.954938
v -0.626089 -11.075507 -1.604741
v -1.320289 -7.963297 -2.147390
v 0.003743 -8.002302 -2.550813
v -1.122997 -10.851938 0.911265
v 0.190201 -11.136847 1.373693
v -0.612347 -10.588971 1.471330
v 0.786524 -10.440826 1.469373
v 0.045606 -10.339662 1.664334
v 0.281371 -11.364676 0.874009
v -2.013038 -4.982941 -1.203587
v -2.300385 -5.001077 0.013617
v -1.930857 -7.730749 0.783268
v -2.269099 -7.884533 -0.020631
v -1.209821 1.676115 -2.085472
v -0.002422 -1.602514 -2.442766
v -1.305469 -4.871370 -2.290221
v -0.705750 -7.400587 1.341638
v -1.362841 -7.540805 1.218149
v -1.895151 -4.948838 0.879613
v -1.272313 -1.556314 -2.160856
v -1.965011 -1.633545 -1.228824
v -1.896019 1.647436 -1.233503
v -2.119681 3.876111 -1.182846
v -2.072163 -1.632981 0.001038
v -2.164133 5.462592 -0.930099
v -2.387600 5.509075 0.244516
v -2.207597 3.862247 0.141611
v -1.768475 4.081005 1.482256
v -1.147625 1.867637 1.193066
v -1.725043 1.836322 -0.007891
v 0.111632 -7.452403 1.097974
v -0.278151 -4.873916 1.516949
v -1.106709 -4.896459 1.341360
v -0.773610 -1.675402 1.657027
v -1.499568 -1.624676 0.996734
v -1.231530 5.773251 -1.849824
v -1.259165 4.451636 -2.097714
v 0.143929 1.684938 -2.377939
v -0.001246 -1.737008 1.872097
v 0.077428 1.393827 2.114425
v 0.124133 4.114017 2.519900
v -0.632325 1.559625 1.910340
v 0.744396 1.374364 1.929627
v 1.517580 -10.595440 0.933793
v 1.128301 -7.741187 0.742800
v 1.158800 -5.080406 0.853537
v 0.476789 -4.946210 1.293221
v 1.280900 -1.930509 1.178653
v 0.679762 -1.820702 1.682299
v -0.858152 4.201405 2.340515
v 0.235751 6.089945 2.751170
v -2.089593 5.782537 1.520827
v -1.941921 7.167859 1.464445
v 0.920386 4.156806 2.319205
v 1.145826 5.990567 2.502021
v 1.048274 6.988559 2.268809
v 1.731748 5.934070 1.670435
v -0.948770 7.310449 2.327629
v -1.118419 6.043364 2.438493
v 1.627686 -10.848508 -0.761467
v 1.891052 -8.033697 0.027445
v 1.667900 -2.007228 0.176182
v 1.709942 1.583076 0.188501
v 1.247751 1.469746 1.302698
v 1.427510 4.323498 1.616714
v 2.056078 4.265017 0.261341
v 1.751120 6.857081 1.457534
v 2.232298 5.825871 0.236276
v 2.109560 7.517691 0.100582
v 1.847045 -10.782724 0.053198
v 1.905813 -8.120121 -0.954531
v 1.612731 -5.241776 0.137586
v 2.085943 5.726353 -1.262559
v 2.312703 6.866675 0.185810
v 1.632927 7.524516 0.843545
v 0.191340 8.474214 0.091008
v 0.913607 7.675755 1.429959
v 0.182347 7.191081 2.566052
v 0.144318 8.009027 1.701212
v -0.736898 8.214046 1.532604
v -1.868147 7.767084 0.149923
v -1.450176 8.076819 0.903361
v -1.284636 8.335773 0.119982
v -0.745998 8.531397 0.117193
v -0.841768 8.037346 -1.109747
v -2.270164 6.930807 0.230745
v -1.570267 7.928111 -0.545448
v -1.959733 6.829540 -0.822739
v -1.081191 6.852361 -1.683020
v 0.326899 8.130556 -1.393804
v 1.315331 7.981359 -1.214321
v 1.980863 7.735028 -0.643626
v 2.125932 6.894844 -1.122786
v 1.256203 5.836380 -2.335318
v 1.238951 1.787145 -2.024888
v 0.264580 4.639652 -2.604124
v 1.250418 6.942903 -2.057128
v 1.043301 8.178173 0.076796
v 1.613469 7.900244 0.068989
v 0.269223 6.966111 -2.267059
v 0.256220 5.947652 -2.554380
vt 0.9287 0.0342
vt 0.9453 0.0327
vt 0.9253 0.0249
vt 0.9551 0.0747
vt 0.9888 0.2812
vt 0.9707 0.2524
vt 0.9570 0.2656
vt 0.9487 0.2183
vt 0.9639 0.2090
vt 0.9512 0.1689
vt 0.9683 0.1577
vt 0.9570 0.1206
vt 0.9746 0.1099
vt 0.9717 0.0674
vt 0.9629 0.0273
vt 0.9292 0.0142
vt 0.9150 0.0371
vt 0.9370 0.0806
vt 0.9399 0.1274
vt 0.9043 0.0381
vt 0.9019 0.0859
vt 0.9170 0.0859
vt 0.8906 0.0381
vt 0.8887 0.0137
vt 0.9297 0.2236
vt 0.9326 0.1758
vt 0.9170 0.1323
vt 0.8979 0.1294
vt 0.8882 0.0854
vt 0.8765 0.0376
vt 0.8604 0.0181
vt 0.8677 0.0405
vt 0.8569 0.0342
vt 0.8579 0.0459
vt 0.8467 0.0381
vt 0.8384 0.0889
vt 0.8530 0.0894
vt 0.8848 0.1289
vt 0.8730 0.0845
vt 0.9048 0.2275
vt 0.9102 0.1807
vt 0.8926 0.1782
vt 0.8804 0.1772
vt 0.8696 0.1274
vt 0.8633 0.0864
vt 0.8618 0.1284
vt 0.8677 0.1787
vt 0.8730 0.2329
vt 0.8872 0.2261
vt 0.8765 0.2666
vt 0.8965 0.2690
vt 0.9131 0.2769
vt 0.9033 0.2988
vt 0.8872 0.2988
vt 0.8652 0.2725
vt 0.8594 0.2349
vt 0.8481 0.1294
vt 0.8545 0.1807
vt 0.8423 0.2319
vt 0.8481 0.2744
vt 0.8716 0.2993
vt 0.8921 0.3179
vt 0.9155 0.3184
vt 0.9224 0.3008
vt 0.9409 0.2734
vt 0.9336 0.3169
vt 0.8423 0.1802
vt 0.8311 0.2300
vt 0.8320 0.2734
vt 0.8203 0.2305
vt 0.8286 0.1792
vt 0.8335 0.1284
vt 0.8369 0.0303
vt 0.8213 0.0083
vt 0.8228 0.0845
vt 0.8193 0.1265
vt 0.8169 0.1763
vt 0.8105 0.2290
vt 0.8193 0.2744
vt 0.8315 0.3052
vt 0.8535 0.3037
vt 0.8721 0.3198
vt 0.8174 0.3032
vt 0.8081 0.2739
vt 0.8052 0.2983
vt 0.8159 0.3193
vt 0.8325 0.3228
vt 0.8511 0.3242
vt 0.8027 0.0103
vt 0.8086 0.0317
vt 0.8218 0.0342
vt 0.8140 0.0771
vt 0.8086 0.1211
vt 0.8013 0.1714
vt 0.7925 0.2271
vt 0.7871 0.2681
vt 0.7832 0.2915
vt 0.7993 0.3120
vt 0.8066 0.3276
vt 0.7798 0.3076
vt 0.7881 0.3213
vt 0.7764 0.3179
vt 0.7988 0.0728
vt 0.7915 0.1172
vt 0.7832 0.1694
vt 0.7725 0.2246
vt 0.7642 0.2632
vt 0.7598 0.2866
vt 0.7588 0.3052
vt 0.7637 0.3198
vt 0.7729 0.3296
vt 0.7739 0.3530
vt 0.8208 0.3687
vt 0.8296 0.3354
vt 0.8530 0.3369
vt 0.8892 0.3608
vt 0.8770 0.3325
vt 0.8955 0.3516
vt 0.8945 0.3291
vt 0.9092 0.3374
vt 0.9253 0.3350
vt 0.9380 0.3608
vt 0.9443 0.3311
vt 0.9893 0.3379
vt 0.9653 0.3208
vt 0.9810 0.3091
vt 0.9873 0.2964
vt 0.9717 0.3062
vt 0.9736 0.2915
vt 0.9932 0.3135
vt 0.9585 0.2993
vt 0.9541 0.3135
vn 0.0737 -0.4800 -0.8741
vn 0.5911 -0.4788 -0.6491
vn 0.1641 -0.9452 -0.2821
vn 0.6453 -0.0857 -0.7591
vn 0.9294 0.0061 -0.3690
vn 0.9561 -0.0638 -0.2859
vn 0.5928 -0.0516 -0.8037
vn 0.6150 -0.0682 -0.7855
vn 0.9677 -0.0888 -0.2358
vn 0.6630 0.0148 -0.7484
vn 0.9700 -0.0085 -0.2428
vn 0.7044 0.0143 -0.7096
vn 0.9848 0.0389 -0.1691
vn 0.9630 -0.0086 -0.2694
vn 0.7685 -0.5526 -0.3224
vn 0.1251 -0.9915 -0.0346
vn -0.4277 -0.6275 -0.6506
vn 0.0082 -0.1278 -0.9918
vn 0.0324 0.0159 -0.9993
vn -0.6777 -0.6715 -0.2996
vn -0.9130 -0.1292 -0.3870
vn -0.5868 -0.1353 -0.7983
vn -0.7436 -0.6615 0.0976
vn 0.0894 -0.9887 0.1200
vn 0.0461 -0.0226 -0.9987
vn 0.0655 0.0380 -0.9971
vn -0.5884 0.0040 -0.8086
vn -0.9218 0.0099 -0.3876
vn -0.9861 -0.1307 0.1019
vn -0.6308 -0.6012 0.4905
vn 0.1035 -0.9346 0.3402
vn -0.4171 -0.3706 0.8298
vn 0.0580 -0.7583 0.6493
vn 0.0251 -0.0813 0.9964
vn 0.4394 -0.1897 0.8780
vn 0.3228 0.0412 0.9456
vn 0.0186 0.0161 0.9997
vn -0.9944 0.0293 0.1011
vn -0.7911 -0.0863 0.6055
vn -0.5177 0.0003 -0.8555
vn -0.5436 0.0310 -0.8387
vn -0.9361 0.0199 -0.3511
vn -0.9750 0.0609 0.2137
vn -0.7443 0.0266 0.6673
vn -0.4239 -0.0179 0.9055
vn -0.3701 -0.0170 0.9288
vn -0.7813 0.0397 0.6228
vn -0.9593 -0.0607 0.2756
vn -0.9588 -0.0104 -0.2838
vn -0.9753 -0.1762 0.1328
vn -0.9232 -0.0458 -0.3817
vn -0.5331 0.0639 -0.8436
vn -0.9018 0.0881 -0.4230
vn -0.9994 -0.0194 0.0293
vn -0.8123 -0.2183 0.5408
vn -0.8536 -0.0998 0.5112
vn 0.0366 -0.0944 0.9948
vn -0.4804 -0.0473 0.8758
vn -0.5723 -0.0820 0.8159
vn -0.4485 -0.1659 0.8782
vn -0.8663 -0.0298 0.4986
vn -0.9670 0.2505 -0.0447
vn -0.8303 0.2687 -0.4882
vn -0.5739 0.1621 -0.8027
vn -0.0365 -0.0103 -0.9993
vn -0.5222 0.3424 -0.7810
vn -0.0038 -0.0935 0.9956
vn -0.0161 -0.1094 0.9939
vn 0.0229 -0.1408 0.9897
vn 0.5495 -0.1114 0.8280
vn 0.4627 -0.0940 0.8815
vn 0.4075 -0.1264 0.9044
vn 0.7059 -0.3799 0.5977
vn 0.5557 0.0868 0.8268
vn 0.6970 -0.0744 0.7131
vn 0.8026 -0.0637 0.5930
vn 0.8581 -0.0794 0.5073
vn 0.5605 -0.1449 0.8154
vn 0.0423 0.0449 0.9981
vn -0.4759 0.0171 0.8793
vn -0.8089 0.3552 0.4684
vn 0.5777 0.0382 0.8153
vn 0.8635 -0.1319 0.4868
vn 0.8788 -0.0296 0.4762
vn 0.5488 0.4529 0.7026
vn 0.1228 0.4629 0.8779
vn -0.3782 0.4299 0.8198
vn 0.8415 -0.5270 0.1187
vn 0.9314 0.0687 0.3575
vn 0.9523 0.0167 0.3048
vn 0.9872 -0.0276 0.1572
vn 0.9713 -0.0822 0.2234
vn 0.9726 -0.0953 0.2120
vn 0.9864 -0.0830 0.1418
vn 0.8096 0.3220 0.4907
vn 0.4896 0.7527 0.4402
vn 0.9778 0.1341 0.1609
vn 0.6246 0.6533 0.4278
vn 0.8227 0.5239 0.2203
vn 0.8838 0.1901 -0.4273
vn 0.7423 0.6365 -0.2092
vn 0.4914 0.8444 0.2133
vn 0.3598 0.9235 0.1328
vn 0.1880 0.9821 0.0113
vn 0.2645 0.8149 0.5157
vn -0.1973 0.8468 0.4939
vn -0.1452 0.9867 -0.0735
vn -0.5989 0.7475 0.2873
vn -0.4803 0.8742 -0.0711
vn -0.8316 0.5534 -0.0470
vn -0.6608 0.6277 -0.4114
vn -0.3363 0.7252 -0.6008
vn 0.0017 0.8282 -0.5604
vn 0.4151 0.7873 -0.4559
vn 0.4774 0.3663 -0.7986
vn 0.5279 0.1141 -0.8416
vn -0.1076 0.1502 -0.9828
vn -0.0995 0.4343 -0.8952
usemtl mannequin_body_d
s 1
f 12/1/1 9/2/2 11/3/3
f 7/4/4 9/2/2 12/1/1
f 90/5/5 2/6/6 1/7/7
f 112/8/8 1/7/7 2/6/6
f 2/6/6 3/9/9 112/8/8
f 5/10/10 112/8/8 3/9/9
f 3/9/9 6/11/11 5/10/10
f 4/12/12 5/10/10 6/11/11
f 6/11/11 8/13/13 4/12/12
f 7/4/4 4/12/12 8/13/13
f 8/13/13 88/14/14 7/4/4
f 9/2/2 7/4/4 88/14/14
f 88/14/14 77/15/15 9/2/2
f 9/2/2 77/15/15 10/16/16
f 10/16/16 11/3/3 9/2/2
f 18/17/17 11/3/3 10/16/16
f 18/17/17 12/1/1 11/3/3
f 20/18/18 12/1/1 18/17/17
f 12/1/1 20/18/18 7/4/4
f 4/12/12 7/4/4 20/18/18
f 20/18/18 13/19/19 4/12/12
f 5/10/10 4/12/12 13/19/19
f 17/20/20 14/21/21 19/22/22
f 14/21/21 17/20/20 15/23/23
f 16/24/24 15/23/23 17/20/20
f 17/20/20 10/16/16 16/24/24
f 10/16/16 17/20/20 18/17/17
f 19/22/22 18/17/17 17/20/20
f 18/17/17 19/22/22 20/18/18
f 13/19/19 20/18/18 19/22/22
f 55/25/25 112/8/8 5/10/10
f 5/10/10 32/26/26 55/25/25
f 13/19/19 32/26/26 5/10/10
f 32/26/26 13/19/19 33/27/27
f 19/22/22 33/27/27 13/19/19
f 27/28/28 33/27/27 19/22/22
f 19/22/22 14/21/21 27/28/28
f 27/28/28 14/21/21 30/29/29
f 15/23/23 30/29/29 14/21/21
f 30/29/29 15/23/23 21/30/30
f 21/30/30 15/23/23 16/24/24
f 16/24/24 26/31/31 21/30/30
f 23/32/32 21/30/30 26/31/31
f 26/31/31 22/33/33 23/32/32
f 23/32/32 22/33/33 25/34/34
f 24/35/35 25/34/34 22/33/33
f 25/34/34 24/35/35 48/36/36
f 48/36/36 34/37/37 25/34/34
f 24/35/35 22/33/33 26/31/31
f 30/29/29 28/38/38 27/28/28
f 28/38/38 30/29/29 29/39/39
f 21/30/30 29/39/39 30/29/29
f 29/39/39 21/30/30 23/32/32
f 31/40/40 55/25/25 32/26/26
f 32/26/26 37/41/41 31/40/40
f 33/27/27 37/41/41 32/26/26
f 38/42/42 37/41/41 33/27/27
f 33/27/27 27/28/28 38/42/42
f 41/43/43 38/42/42 27/28/28
f 27/28/28 28/38/38 41/43/43
f 41/43/43 28/38/38 36/44/44
f 29/39/39 36/44/44 28/38/38
f 36/44/44 29/39/39 35/45/45
f 23/32/32 35/45/45 29/39/39
f 35/45/45 23/32/32 25/34/34
f 25/34/34 34/37/37 35/45/45
f 50/46/46 35/45/45 34/37/37
f 35/45/45 50/46/46 36/44/44
f 52/47/47 36/44/44 50/46/46
f 36/44/44 52/47/47 41/43/43
f 47/48/48 41/43/43 52/47/47
f 39/49/49 38/42/42 41/43/43
f 37/41/41 38/42/42 39/49/49
f 39/49/49 31/40/40 37/41/41
f 47/48/48 44/50/50 40/51/51
f 41/43/43 47/48/48 39/49/49
f 40/51/51 39/49/49 47/48/48
f 31/40/40 39/49/49 40/51/51
f 40/51/51 54/52/52 31/40/40
f 54/52/52 40/51/51 42/53/53
f 42/53/53 40/51/51 44/50/50
f 44/50/50 43/54/54 42/53/53
f 43/54/54 44/50/50 45/55/55
f 46/56/56 45/55/55 44/50/50
f 44/50/50 47/48/48 46/56/56
f 52/47/47 46/56/56 47/48/48
f 49/57/57 34/37/37 48/36/36
f 34/37/37 49/57/57 50/46/46
f 51/58/58 50/46/46 49/57/57
f 50/46/46 51/58/58 52/47/47
f 52/47/47 51/58/58 59/59/59
f 59/59/59 46/56/56 52/47/47
f 46/56/56 59/59/59 67/60/60
f 67/60/60 45/55/55 46/56/56
f 69/61/61 45/55/55 67/60/60
f 45/55/55 69/61/61 43/54/54
f 103/62/62 43/54/54 69/61/61
f 43/54/54 103/62/62 105/63/63
f 105/63/63 42/53/53 43/54/54
f 53/64/64 42/53/53 105/63/63
f 42/53/53 53/64/64 54/52/52
f 113/65/65 54/52/52 53/64/64
f 54/52/52 113/65/65 55/25/25
f 55/25/25 31/40/40 54/52/52
f 105/63/63 106/66/66 53/64/64
f 49/57/57 56/67/67 51/58/58
f 51/58/58 56/67/67 57/68/68
f 57/68/68 59/59/59 51/58/58
f 58/69/69 67/60/60 59/59/59
f 59/59/59 57/68/68 58/69/69
f 58/69/69 57/68/68 60/70/70
f 60/70/70 57/68/68 56/67/67
f 56/67/67 66/71/71 60/70/70
f 66/71/71 56/67/67 49/57/57
f 49/57/57 64/72/72 66/71/71
f 48/36/36 64/72/72 49/57/57
f 61/73/73 26/31/31 16/74/24
f 26/31/31 61/73/73 24/35/35
f 24/35/35 61/73/73 62/75/74
f 62/75/74 48/36/36 24/35/35
f 48/36/36 62/75/74 63/76/75
f 63/76/75 64/72/72 48/36/36
f 64/72/72 63/76/75 65/77/76
f 65/77/76 66/71/71 64/72/72
f 66/71/71 65/77/76 81/78/77
f 81/78/77 60/70/70 66/71/71
f 71/79/78 60/70/70 81/78/77
f 60/70/70 71/79/78 58/69/69
f 68/80/79 58/69/69 71/79/78
f 67/60/60 58/69/69 68/80/79
f 68/80/79 76/81/80 67/60/60
f 67/60/60 76/81/80 69/61/61
f 70/82/81 69/61/61 76/81/80
f 69/61/61 70/82/81 103/62/62
f 71/79/78 72/83/82 68/80/79
f 81/78/77 82/84/83 71/79/78
f 72/83/82 71/79/78 82/84/83
f 82/84/83 74/85/84 72/83/82
f 73/86/85 72/83/82 74/85/84
f 68/80/79 72/83/82 73/86/85
f 73/86/85 95/87/86 68/80/79
f 76/81/80 68/80/79 95/87/86
f 95/87/86 75/88/87 76/81/80
f 76/81/80 75/88/87 70/82/81
f 16/74/24 10/89/16 77/90/15
f 77/90/15 87/91/88 16/74/24
f 16/74/24 87/91/88 61/73/73
f 61/73/73 87/91/88 78/92/89
f 78/92/89 62/75/74 61/73/73
f 62/75/74 78/92/89 89/93/90
f 89/93/90 63/76/75 62/75/74
f 63/76/75 89/93/90 79/94/91
f 79/94/91 65/77/76 63/76/75
f 65/77/76 79/94/91 80/95/92
f 80/95/92 81/78/77 65/77/76
f 81/78/77 80/95/92 83/96/93
f 83/96/93 82/84/83 81/78/77
f 82/84/83 83/96/93 85/97/94
f 85/97/94 74/85/84 82/84/83
f 84/98/95 74/85/84 85/97/94
f 74/85/84 84/98/95 73/86/85
f 94/99/96 73/86/85 84/98/95
f 85/97/94 91/100/97 84/98/95
f 84/98/95 92/101/98 94/99/96
f 92/101/98 84/98/95 91/100/97
f 91/100/97 86/102/99 92/101/98
f 87/91/88 77/90/15 88/103/14
f 88/103/14 78/92/89 87/91/88
f 78/92/89 88/103/14 8/104/13
f 8/104/13 89/93/90 78/92/89
f 89/93/90 8/104/13 6/105/11
f 6/105/11 79/94/91 89/93/90
f 80/95/92 79/94/91 6/105/11
f 6/105/11 3/106/9 80/95/92
f 83/96/93 80/95/92 3/106/9
f 3/106/9 2/107/6 83/96/93
f 83/96/93 2/107/6 90/108/5
f 90/108/5 85/97/94 83/96/93
f 85/97/94 90/108/5 110/109/100
f 110/109/100 91/100/97 85/97/94
f 91/100/97 110/109/100 109/110/101
f 109/110/101 86/102/99 91/100/97
f 86/102/99 109/110/101 116/111/102
f 116/111/102 92/101/98 86/102/99
f 92/101/98 116/111/102 115/112/103
f 115/112/103 94/99/96 92/101/98
f 94/99/96 115/112/103 93/113/104
f 93/113/104 96/114/105 94/99/96
f 97/115/106 96/114/105 93/113/104
f 93/113/104 101/116/107 97/115/106
f 99/117/108 97/115/106 101/116/107
f 101/116/107 100/118/109 99/117/108
f 95/87/86 73/86/85 94/99/96
f 94/99/96 96/114/105 95/87/86
f 75/88/87 95/87/86 96/114/105
f 96/114/105 97/115/106 75/88/87
f 70/82/81 75/88/87 97/115/106
f 97/115/106 99/117/108 70/82/81
f 70/82/81 99/117/108 98/119/110
f 98/119/110 99/117/108 100/118/109
f 100/118/109 104/120/111 98/119/110
f 104/120/111 100/118/109 101/116/107
f 101/116/107 102/121/112 104/120/111
f 102/121/112 101/116/107 93/122/104
f 98/119/110 103/62/62 70/82/81
f 105/63/63 103/62/62 98/119/110
f 98/119/110 104/120/111 105/63/63
f 106/66/66 105/63/63 104/120/111
f 104/120/111 102/121/112 106/66/66
f 106/66/66 102/121/112 107/123/113
f 93/122/104 107/123/113 102/121/112
f 107/123/113 93/122/104 115/124/103
f 115/124/103 108/125/114 107/123/113
f 109/126/101 108/125/114 115/124/103
f 108/125/114 109/126/101 110/127/100
f 110/127/100 114/128/115 108/125/114
f 114/128/115 110/127/100 90/5/5
f 90/5/5 111/129/116 114/128/115
f 1/7/7 111/129/116 90/5/5
f 111/129/116 1/7/7 113/65/65
f 113/65/65 1/7/7 112/8/8
f 112/8/8 55/25/25 113/65/65
f 107/123/113 108/125/114 114/128/115
f 115/124/103 116/130/102 109/126/101
f 114/128/115 111/129/116 118/131/117
f 118/131/117 117/132/118 114/128/115
f 114/128/115 117/132/118 107/123/113
f 107/123/113 117/132/118 106/66/66
f 106/66/66 117/132/118 118/131/117
f 118/131/117 53/64/64 106/66/66
f 53/64/64 118/131/117 113/65/65
f 113/65/65 118/131/117 111/129/116
