# Blender v2.79 (sub 0) OBJ File: ''
# www.blender.org
mtllib ear.mtl
o Fox_ears_mesh.001_Fox_ears.001
v 0.568689 -0.184991 -0.101684
v 0.629909 -0.630629 0.037095
v 0.623844 -0.791772 -0.207671
v 0.422098 1.074723 0.156830
v 0.450518 0.556375 -0.251553
v 0.507919 0.553533 0.037556
v 0.507694 0.246659 -0.310489
v 0.534653 0.194234 -0.061235
v 0.564421 -0.059228 -0.508641
v 0.591942 -0.429038 -0.591757
v 0.611038 -1.250970 -0.561617
v 0.405699 -0.656024 -1.165398
v 0.473659 -1.658358 -0.979517
v 0.399183 0.209975 -0.644011
v 0.207548 0.659162 -0.491755
v 0.373797 1.088674 -0.004910
v 0.257647 1.324081 0.037213
v 0.205077 0.151614 -0.908954
v 0.417606 -0.264859 -0.986600
v 0.202044 -0.443034 -1.236353
v -0.190886 0.461576 -0.419935
v -0.350394 -0.126788 -0.703041
v -0.530347 -0.846970 -0.893002
v 0.160820 -1.158211 -1.394198
v 0.066575 -1.953902 -0.895368
v -0.321637 -1.746545 -0.637614
v -0.568876 -1.511021 -0.097399
v -0.817462 -0.820517 -0.109208
v -0.791177 -0.279126 -0.164529
v -0.532256 0.366943 -0.071143
v -0.514957 -1.537539 0.277441
v -0.742650 -1.032202 0.212807
v -0.726025 -0.521054 0.112548
v -0.632567 -0.045941 0.139530
v -0.405099 0.558606 0.259418
v -0.251432 0.928588 0.025921
v -0.089115 1.197898 0.288345
v -0.032052 1.309385 0.097830
v -0.044071 0.938020 -0.160193
v 0.082862 1.353223 0.035506
v 0.117123 1.593292 0.175743
v 0.252705 1.725642 0.211643
v 0.134646 1.554849 0.294540
v 0.270678 1.754054 0.252594
v 0.324034 1.572883 0.180938
v 0.361216 1.387063 0.181832
v 0.378290 1.248212 0.291754
v 0.317519 1.549140 0.311517
v 0.270678 1.690906 0.297520
v 0.287976 1.478315 0.330934
v 0.333695 0.923261 0.351321
v 0.478938 0.781930 0.250629
v 0.306960 0.445111 0.293372
v 0.529037 0.272826 0.193675
v 0.293706 -0.015794 0.296184
v 0.573070 -0.148951 0.167864
v 0.285843 -0.490338 0.384124
v 0.246078 0.937205 0.290783
v 0.197888 0.559636 0.242368
v 0.149699 0.117305 0.214199
v 0.134422 -0.384883 0.215816
v 0.236418 -0.933650 0.404514
v 0.463436 -0.926349 0.398551
v 0.506796 -0.680590 0.282926
v 0.093871 -0.957650 0.338364
vt 0.452720 0.569090
vt 0.469750 0.666700
vt 0.468060 0.712420
vt 0.435810 0.394290
vt 0.419840 0.403850
vt 0.411940 0.270180
vt 0.435750 0.477180
vt 0.443250 0.480430
vt 0.451530 0.554550
vt 0.459190 0.642560
vt 0.464500 0.830560
vt 0.407370 0.715050
vt 0.426280 0.939050
vt 0.405560 0.497410
vt 0.352250 0.388700
vt 0.398500 0.272690
vt 0.366190 0.217050
vt 0.351560 0.520200
vt 0.410690 0.618750
vt 0.350720 0.668560
vt 0.241410 0.431610
vt 0.197030 0.576960
vt 0.146970 0.749350
vt 0.339250 0.838660
vt 0.313030 1.004060
vt 0.205030 0.947250
vt 0.136250 0.873980
vt 0.067090 0.715550
vt 0.074410 0.592970
vt 0.146440 0.441050
vt 0.087910 0.752870
vt 0.151250 0.866830
vt 0.092530 0.638830
vt 0.118530 0.528580
vt 0.181810 0.385280
vt 0.224560 0.308420
vt 0.269720 0.237200
vt 0.285590 0.218280
vt 0.282250 0.312830
vt 0.317560 0.210400
vt 0.327090 0.150220
vt 0.364810 0.118510
vt 0.331970 0.154870
vt 0.369810 0.110520
vt 0.384660 0.154730
vt 0.395000 0.197450
vt 0.399750 0.225500
vt 0.382840 0.155580
vt 0.369810 0.123460
vt 0.374620 0.171180
vt 0.387340 0.298150
vt 0.427750 0.334220
vt 0.379910 0.410180
vt 0.441690 0.453340
vt 0.376220 0.516110
vt 0.453940 0.551280
vt 0.374030 0.622160
vt 0.362970 0.297080
vt 0.349560 0.385640
vt 0.336160 0.488390
vt 0.331910 0.603850
vt 0.360280 0.723420
vt 0.423440 0.721950
vt 0.435500 0.669500
vt 0.320630 0.731280
vn 0.9953 0.0949 -0.0211
vn 0.9962 0.0703 0.0509
vn 0.9908 0.0979 -0.0938
vn 0.9880 0.1321 -0.0799
vn 0.8952 0.2757 -0.3501
vn 0.9761 0.1906 -0.1047
vn 0.9572 0.2113 -0.1977
vn 0.9941 0.1054 -0.0264
vn 0.9632 0.1922 -0.1879
vn 0.9803 0.0792 -0.1810
vn 0.9733 0.0098 -0.2293
vn 0.8172 0.0875 -0.5697
vn 0.7148 -0.2131 -0.6661
vn 0.8039 0.3675 -0.4677
vn 0.2865 0.5584 -0.7785
vn 0.8118 0.3229 -0.4866
vn 0.3731 0.4058 -0.8343
vn 0.0897 0.5325 -0.8417
vn 0.7840 0.2839 -0.5521
vn 0.0086 0.3388 -0.9408
vn -0.5688 0.4763 -0.6705
vn -0.6496 0.3789 -0.6591
vn -0.8106 -0.0137 -0.5854
vn -0.0757 -0.1927 -0.9783
vn -0.2361 -0.4717 -0.8496
vn -0.7568 -0.3192 -0.5704
vn -0.9372 -0.3228 -0.1320
vn -0.9950 -0.0974 -0.0211
vn -0.9704 0.2211 -0.0970
vn -0.8940 0.3979 -0.2063
vn -0.9698 -0.2073 0.1282
vn -0.9229 -0.3716 0.1010
vn -0.9453 0.1021 0.3099
vn -0.9326 0.2551 0.2555
vn -0.9194 0.3713 0.1293
vn -0.8323 0.4723 -0.2901
vn -0.8855 0.4596 0.0683
vn -0.8116 0.4952 -0.3099
vn -0.4179 0.4898 -0.7651
vn -0.2670 0.4473 -0.8536
vn -0.7535 0.5980 -0.2733
vn 0.0560 0.5548 -0.8301
vn -0.7953 0.4937 0.3517
vn 0.1919 0.9441 0.2681
vn 0.8605 0.2885 -0.4198
vn 0.9480 0.2238 -0.2263
vn 0.8517 0.1347 0.5064
vn 0.8483 0.2086 0.4866
vn 0.2289 0.3922 0.8910
vn 0.1934 0.0773 0.9781
vn 0.0013 -0.0147 0.9999
vn 0.8572 0.0645 0.5110
vn -0.0292 -0.0397 0.9988
vn 0.8815 0.0475 0.4697
vn -0.0702 0.0639 0.9955
vn 0.8128 0.0892 0.5756
vn 0.0366 0.1628 0.9860
vn -0.5714 -0.0162 0.8205
vn -0.4994 -0.0305 0.8658
vn -0.4658 0.0151 0.8848
vn -0.5868 0.1209 0.8007
vn -0.3956 0.1286 0.9094
vn 0.3187 0.1560 0.9349
vn 0.6835 0.1241 0.7193
vn -0.4413 0.2084 0.8729
usemtl 材質1.003
s 1
f 1/1/1 2/2/2 3/3/3
f 6/4/4 5/5/5 4/6/6
f 5/5/5 6/4/4 7/7/7
f 8/8/8 7/7/7 6/4/4
f 7/7/7 8/8/8 9/9/9
f 1/1/1 9/9/9 8/8/8
f 9/9/9 1/1/1 10/10/10
f 2/2/2 10/10/10 1/1/1
f 11/11/11 10/10/10 2/2/2
f 10/10/10 11/11/11 12/12/12
f 13/13/13 12/12/12 11/11/11
f 9/9/9 14/14/14 7/7/7
f 7/7/7 14/14/14 5/5/5
f 15/15/15 5/5/5 14/14/14
f 5/5/5 15/15/15 16/16/16
f 17/17/17 16/16/16 15/15/15
f 14/14/14 18/18/18 15/15/15
f 19/19/19 18/18/18 14/14/14
f 18/18/18 19/19/19 20/20/20
f 18/18/18 21/21/21 15/15/15
f 21/21/21 18/18/18 22/22/22
f 20/20/20 22/22/22 18/18/18
f 22/22/22 20/20/20 23/23/23
f 23/23/23 20/20/20 24/24/24
f 24/24/24 20/20/20 12/12/12
f 19/19/19 12/12/12 20/20/20
f 12/12/12 19/19/19 10/10/10
f 10/10/10 19/19/19 9/9/9
f 14/14/14 9/9/9 19/19/19
f 12/12/12 13/13/13 24/24/24
f 25/25/25 24/24/24 13/13/13
f 26/26/26 24/24/24 25/25/25
f 24/24/24 26/26/26 23/23/23
f 27/27/27 23/23/23 26/26/26
f 28/28/28 23/23/23 27/27/27
f 29/29/29 23/23/23 28/28/28
f 23/23/23 29/29/29 22/22/22
f 30/30/30 22/22/22 29/29/29
f 22/22/22 30/30/30 21/21/21
f 32/31/31 27/27/27 31/32/32
f 27/27/27 32/31/31 28/28/28
f 33/33/33 28/28/28 32/31/31
f 28/28/28 33/33/33 29/29/29
f 34/34/34 29/29/29 33/33/33
f 29/29/29 34/34/34 30/30/30
f 35/35/35 30/30/30 34/34/34
f 30/30/30 35/35/35 36/36/36
f 37/37/37 36/36/36 35/35/35
f 36/36/36 37/37/37 38/38/38
f 36/36/36 21/21/21 30/30/30
f 21/21/21 36/36/36 39/39/39
f 38/38/38 39/39/39 36/36/36
f 39/39/39 38/38/38 40/40/40
f 41/41/41 40/40/40 38/38/38
f 42/42/42 40/40/40 41/41/41
f 17/17/17 40/40/40 42/42/42
f 40/40/40 17/17/17 39/39/39
f 15/15/15 39/39/39 17/17/17
f 39/39/39 15/15/15 21/21/21
f 43/43/43 38/38/38 37/37/37
f 38/38/38 43/43/43 41/41/41
f 44/44/44 41/41/41 43/43/43
f 41/41/41 44/44/44 42/42/42
f 45/45/45 42/42/42 44/44/44
f 42/42/42 45/45/45 17/17/17
f 46/46/46 17/17/17 45/45/45
f 17/17/17 46/46/46 16/16/16
f 4/6/6 16/16/16 46/46/46
f 16/16/16 4/6/6 5/5/5
f 47/47/47 46/46/46 48/48/48
f 45/45/45 48/48/48 46/46/46
f 44/44/44 48/48/48 45/45/45
f 48/48/48 44/44/44 49/49/49
f 43/43/43 49/49/49 44/44/44
f 50/50/50 48/48/48 49/49/49
f 48/48/48 50/50/50 47/47/47
f 51/51/51 47/47/47 50/50/50
f 47/47/47 51/51/51 52/52/52
f 53/53/53 52/52/52 51/51/51
f 52/52/52 53/53/53 54/54/54
f 55/55/55 54/54/54 53/53/53
f 54/54/54 55/55/55 56/56/56
f 57/57/57 56/56/56 55/55/55
f 50/50/50 58/58/58 51/51/51
f 59/59/59 51/51/51 58/58/58
f 51/51/51 59/59/59 53/53/53
f 60/60/60 53/53/53 59/59/59
f 53/53/53 60/60/60 55/55/55
f 61/61/61 55/55/55 60/60/60
f 55/55/55 61/61/61 57/57/57
f 62/62/62 57/57/57 61/61/61
f 63/63/63 57/57/57 62/62/62
f 64/64/64 57/57/57 63/63/63
f 62/62/62 61/61/61 65/65/65
f 57/57/57 64/64/64 56/56/56
f 2/2/2 56/56/56 64/64/64
f 1/1/1 56/56/56 2/2/2
f 56/56/56 1/1/1 54/54/54
f 8/8/8 54/54/54 1/1/1
f 6/4/4 54/54/54 8/8/8
f 54/54/54 6/4/4 52/52/52
f 4/6/6 52/52/52 6/4/4
f 52/52/52 4/6/6 47/47/47
f 46/46/46 47/47/47 4/6/6
o Fox_ears_mesh_Fox_ears
v -0.632567 -0.045941 0.139530
v -0.536750 -0.486705 -0.004914
v -0.726025 -0.521054 0.112548
v -0.519675 -0.901994 -0.001023
v -0.742650 -1.032202 0.212807
v -0.467442 -1.355279 0.032952
v -0.514957 -1.537539 0.277441
v -0.085857 -1.267464 -0.209178
v 0.270678 1.690906 0.297520
v 0.134646 1.554849 0.294540
v 0.129030 1.257913 0.081328
v -0.089115 1.197898 0.288345
v 0.055004 0.847963 -0.093350
v -0.405099 0.558606 0.259418
v -0.165724 0.353141 -0.120858
v -0.394765 -0.123164 -0.099259
v -0.115400 -0.496661 -0.366207
v 0.091961 -1.085873 -0.508602
v 0.292583 -0.906905 -0.423839
v 0.246415 -1.294028 -0.367903
v 0.093871 -0.957650 0.338364
v 0.287640 -0.118689 -0.162077
v 0.134422 -0.384883 0.215816
v 0.149699 0.117305 0.214199
v 0.327067 0.302674 -0.173270
v 0.197888 0.559636 0.242368
v 0.181263 0.399682 -0.279360
v -0.069008 -0.085181 -0.318532
v 0.173063 -0.131814 -0.401617
v 0.356498 0.875724 -0.056510
v 0.246078 0.937205 0.290783
v 0.306848 1.373182 0.169624
v 0.287976 1.478315 0.330934
vt 0.008330 0.941400
vt 0.071870 0.943290
vt 0.039700 0.767940
vt 0.077600 1.091590
vt 0.002750 1.112400
vt 0.095140 1.249860
vt 0.079180 1.285620
vt 0.223230 1.247650
vt 0.342910 0.126660
vt 0.297240 0.175760
vt 0.295360 0.307890
vt 0.222130 0.304380
vt 0.270510 0.475850
vt 0.116060 0.536890
vt 0.196420 0.656430
vt 0.119530 0.824450
vt 0.213310 0.990500
vt 0.282920 1.218770
vt 0.350270 1.144420
vt 0.334770 1.276340
vt 0.283560 1.070520
vt 0.348610 0.830440
vt 0.297170 0.880140
vt 0.302300 0.700440
vt 0.361840 0.680840
vt 0.318470 0.538580
vt 0.312900 0.658910
vt 0.228890 0.837330
vt 0.310150 0.864080
vt 0.371720 0.461450
vt 0.334650 0.397480
vt 0.355050 0.255930
vt 0.348710 0.198780
vn 0.5760 0.0071 0.8174
vn 0.6157 -0.0369 0.7871
vn 0.6476 -0.2040 0.7342
vn 0.6182 0.1263 0.7758
vn 0.7089 0.2170 0.6711
vn 0.6686 0.2180 0.7109
vn 0.7934 0.3894 0.4679
vn 0.5319 0.4041 0.7442
vn -0.3582 -0.4726 0.8052
vn 0.6051 -0.4463 0.6593
vn 0.2667 -0.4308 0.8621
vn 0.7009 -0.3701 0.6097
vn 0.4324 -0.3533 0.8296
vn 0.7015 -0.3390 0.6269
vn 0.5852 -0.2723 0.7638
vn 0.6266 -0.1446 0.7658
vn 0.4221 -0.0729 0.9036
vn 0.2434 0.2462 0.9381
vn -0.7770 -0.0171 0.6293
vn -0.5913 0.4747 0.6519
vn -0.9551 0.0405 -0.2936
vn -0.9955 0.0172 -0.0930
vn -0.9280 0.0016 -0.3725
vn -0.9270 0.0672 -0.3689
vn -0.9862 0.0257 0.1637
vn -0.9288 0.1226 -0.3497
vn -0.0417 -0.2463 0.9683
vn 0.4337 -0.1899 0.8808
vn -0.3589 -0.1053 0.9274
vn -0.8163 -0.1973 0.5429
vn -0.9588 0.0895 -0.2695
vn -0.9160 -0.1952 0.3506
vn -0.9933 -0.0015 -0.1157
usemtl 材質2
s 1
f 68/66/66 67/67/67 66/68/68
f 67/67/67 68/66/66 69/69/69
f 70/70/70 69/69/69 68/66/66
f 69/69/69 70/70/70 71/71/71
f 72/72/72 71/71/71 70/70/70
f 69/69/69 71/71/71 73/73/73
f 74/74/74 75/75/75 76/76/76
f 77/77/77 76/76/76 75/75/75
f 76/76/76 77/77/77 78/78/78
f 79/79/79 78/78/78 77/77/77
f 78/78/78 79/79/79 80/80/80
f 66/68/68 80/80/80 79/79/79
f 80/80/80 66/68/68 81/81/81
f 67/67/67 81/81/81 66/68/68
f 81/81/81 67/67/67 82/82/82
f 69/69/69 82/82/82 67/67/67
f 82/82/82 83/83/83 84/84/84
f 82/82/82 69/69/69 83/83/83
f 73/73/73 83/83/83 69/69/69
f 85/85/85 83/83/83 73/73/73
f 83/83/83 85/85/85 84/84/84
f 86/86/86 84/84/84 85/85/85
f 84/84/84 86/86/86 87/87/87
f 88/88/88 87/87/87 86/86/86
f 89/89/89 87/87/87 88/88/88
f 87/87/87 89/89/89 90/90/90
f 91/91/91 90/90/90 89/89/89
f 92/92/92 80/80/80 93/93/93
f 81/81/81 93/93/93 80/80/80
f 82/82/82 93/93/93 81/81/81
f 93/93/93 82/82/82 94/94/94
f 84/84/84 94/94/94 82/82/82
f 87/87/87 94/94/94 84/84/84
f 90/90/90 94/94/94 87/87/87
f 94/94/94 90/90/90 92/92/92
f 95/95/95 92/92/92 90/90/90
f 94/94/94 92/92/92 93/93/93
f 90/90/90 91/91/91 95/95/95
f 96/96/96 95/95/95 91/91/91
f 95/95/95 96/96/96 97/97/97
f 98/98/98 97/97/97 96/96/96
f 74/74/74 97/97/97 98/98/98
f 76/76/76 97/97/97 74/74/74
f 97/97/97 76/76/76 95/95/95
f 78/78/78 95/95/95 76/76/76
f 95/95/95 78/78/78 92/92/92
f 80/80/80 92/92/92 78/78/78
