# Blender v2.77 (sub 0) OBJ File: ''
# www.blender.org
mtllib calf.mtl
o mannequin_idle_reference.011
v -0.925829 11.748070 1.357477
v -1.184319 11.948677 -0.344189
v 0.028283 11.771650 0.903827
v 1.345973 12.142866 -0.465787
v 2.110235 12.030087 2.385134
v 2.350505 11.613365 3.797880
v 1.261185 11.888025 1.273424
v -1.317309 10.861927 4.225858
v -1.661358 11.852692 2.459830
v -3.444939 10.348644 1.765574
v -2.541360 11.684647 2.529590
v -1.988659 11.861820 1.148903
v -0.097817 12.010359 -0.773870
v -3.153690 9.873142 -0.134850
v -1.820898 -2.111263 -1.761082
v 0.015932 -6.621163 -3.239439
v -0.888618 -9.474342 -2.925462
v -0.853237 -6.581310 -2.768929
v -1.502468 -9.514538 -2.105092
v -1.490049 -6.523281 -1.933677
v -2.889728 2.139500 -0.541215
v 0.911943 -6.849575 0.897517
v 1.633843 -6.905666 -0.097178
v 0.814894 -9.898487 0.848854
v 1.515984 -10.038734 -0.190287
v 2.031144 -9.767323 -1.225867
v 0.893234 -6.630264 -2.899217
v -0.015997 -1.840649 -3.047509
v 0.159334 -9.444134 -3.412641
v 0.970764 -9.457264 -3.115360
v 1.782784 -9.578377 -2.268500
v 1.878545 -11.030926 -1.273581
v 1.308483 -11.195572 -0.446043
v 0.732584 -11.298008 0.395097
v -0.793197 -9.695065 0.800042
v 0.067963 -6.703678 1.280569
v 0.081213 -9.738667 1.215641
v 1.037703 -2.608006 1.247969
v 3.072914 2.270969 -0.275494
v 2.404546 -2.164394 -0.712937
v 2.747154 1.884655 1.272060
v 1.966974 -2.372944 0.238801
v -1.773758 -11.210567 -1.225963
v -1.476848 -11.438011 -0.464938
v -1.461568 -9.630943 -0.193063
v -0.695377 -6.616055 0.853299
v 1.355975 1.272381 2.309816
v 3.718427 6.510918 0.678505
v -0.060527 -2.739742 1.668267
v -0.342477 0.943081 2.638484
v -0.984288 -2.706020 1.270520
v -1.559189 1.417465 2.150856
v -0.440427 5.649078 4.386087
v 0.898212 8.668888 5.154784
v 1.615774 5.332684 4.091355
v 3.361324 5.864613 2.488297
v 2.997637 10.130474 -0.536271
v 2.572295 12.003683 0.990443
v -0.419617 10.588997 4.552899
v 0.928903 10.908537 4.465619
v 2.912436 9.211155 3.691712
v 2.924125 11.673664 2.501917
v 3.517015 9.684917 1.699071
v -1.679728 6.558762 3.477196
v -2.441148 2.030842 0.961583
v -1.756748 9.554653 4.289937
v -0.795987 8.755283 5.247151
v -2.923570 9.958637 3.265477
v -2.096118 11.453205 3.689821
v -3.193661 6.878174 2.295568
v -3.755550 6.920952 0.754111
v -2.164619 -2.323330 -0.724251
v -1.754589 -2.533955 0.267163
v -1.775058 -6.494869 -1.017429
v -1.802408 -9.561951 -1.157861
v -1.389698 -6.539185 -0.158576
v -1.045457 -1.928280 -2.636801
v -1.633248 2.335014 -2.994314
v 1.082415 -1.843239 -2.697552
v -0.233147 2.677681 -3.304932
v -0.250007 6.633713 -3.445941
v 1.352875 2.777317 -2.947456
v 2.053884 -6.674885 -0.979066
v 1.684224 -6.578831 -1.956527
v 2.005225 -1.963085 -1.771498
v 2.556693 2.529053 -1.658787
v 3.049463 6.810764 -1.400282
v -0.342777 10.094494 -2.144327
v 1.444114 10.439960 -1.932482
v 1.501934 6.970280 -3.089582
v -1.959588 9.731632 -1.884866
v -3.348740 6.320545 -1.134197
v -1.977289 6.152290 -3.034781
v -2.554580 2.188480 -1.927643
v -1.258218 -11.702335 -1.236336
v -0.829878 -11.495476 0.355608
v -0.734327 -11.717888 -1.199150
v 0.116493 -11.581009 -1.197708
v 0.045033 -11.451107 0.671726
v 1.259294 -11.418785 -1.258368
v 1.652764 -11.122841 -2.047550
v 0.811404 -11.442879 -1.218456
v 0.270752 -11.151672 -3.020947
v 1.007254 -11.151386 -2.740975
v -0.853158 -11.215439 -2.654818
v -1.487128 -11.285919 -1.959352
vt 0.4060 0.7461
vt 0.4282 0.7594
vt 0.4021 0.7595
vt 0.3643 0.7419
vt 0.3467 0.7567
vt 0.3350 0.7535
vt 0.3359 0.7705
vt 0.3242 0.7673
vt 0.3245 0.7920
vt 0.3362 0.7953
vt 0.3418 0.8240
vt 0.3833 0.8279
vt 0.3796 0.8417
vt 0.4058 0.8417
vt 0.4302 0.8212
vt 0.4429 0.8000
vt 0.4409 0.7827
vt 0.5039 0.9691
vt 0.4680 0.9387
vt 0.4700 0.9170
vt 0.5415 0.9937
vt 0.5029 0.9917
vt 0.4663 0.9698
vt 0.4958 0.8734
vt 0.4973 0.8980
vt 0.4656 0.8838
vt 0.4700 0.9023
vt 0.5000 0.9203
vt 0.5029 0.9402
vt 0.5420 0.9725
vt 0.5996 0.9682
vt 0.5991 0.9564
vt 0.6548 0.9229
vt 0.6548 0.9119
vt 0.7085 0.9003
vt 0.6533 0.8996
vt 0.7080 0.8901
vt 0.7070 0.8795
vt 0.7451 0.8847
vt 0.7451 0.8751
vt 0.7075 0.9112
vt 0.7451 0.8658
vt 0.7700 0.8821
vt 0.7710 0.9018
vt 0.7461 0.9012
vt 0.7456 0.9099
vt 0.7456 0.9213
vt 0.7075 0.9219
vt 0.6543 0.9387
vt 0.7710 0.9113
vt 0.7705 0.9224
vt 0.7451 0.8220
vt 0.7441 0.8325
vt 0.7051 0.8319
vt 0.7065 0.8480
vt 0.7446 0.8451
vt 0.7446 0.8549
vt 0.7065 0.8563
vt 0.7065 0.8671
vt 0.6519 0.8848
vt 0.7695 0.8749
vt 0.7695 0.8646
vt 0.7695 0.8539
vt 0.7690 0.8423
vt 0.7681 0.8289
vt 0.7686 0.8179
vt 0.7451 0.8096
vt 0.7051 0.8192
vt 0.6479 0.8317
vt 0.6494 0.8486
vt 0.7686 0.8053
vt 0.5923 0.8643
vt 0.5918 0.8755
vt 0.5347 0.8789
vt 0.6509 0.8739
vt 0.6489 0.8586
vt 0.5908 0.8430
vt 0.5908 0.8239
vt 0.7456 0.7963
vt 0.7461 0.7860
vt 0.7695 0.7791
vt 0.7690 0.7913
vt 0.7051 0.8093
vt 0.6475 0.8149
vt 0.5908 0.8018
vt 0.5342 0.8038
vt 0.5332 0.8333
vt 0.5337 0.8542
vt 0.6455 0.8060
vt 0.7056 0.7927
vt 0.6445 0.7908
vt 0.5894 0.7831
vt 0.5352 0.7788
vt 0.4937 0.7955
vt 0.4937 0.8240
vt 0.4944 0.8456
vt 0.4617 0.8632
vt 0.4609 0.7894
vt 0.4624 0.7678
vt 0.4587 0.8138
vt 0.4602 0.8333
vt 0.5322 0.7615
vt 0.4932 0.7695
vt 0.4888 0.7526
vt 0.5884 0.7675
vt 0.5303 0.7468
vt 0.4851 0.7383
vt 0.4558 0.7574
vt 0.4495 0.7451
vt 0.4504 0.7258
vt 0.4861 0.7161
vt 0.5317 0.7246
vt 0.5894 0.7454
vt 0.6450 0.7803
vt 0.7056 0.7839
vt 0.5479 0.9432
vt 0.5454 0.9236
vt 0.5967 0.9166
vt 0.5986 0.9360
vt 0.5942 0.8947
vt 0.5430 0.9017
vt 0.7549 0.9465
vt 0.7432 0.9487
vt 0.7495 0.9386
vt 0.7588 0.9517
vt 0.7378 0.9622
vt 0.7651 0.9606
vt 0.7407 0.9742
vt 0.7500 0.9798
vt 0.7700 0.9675
vt 0.7646 0.9789
vt 0.7725 0.9713
vt 0.7788 0.9799
vt 0.7842 0.9703
vt 0.7856 0.9577
vt 0.7852 0.9494
vt 0.7710 0.9370
vt 0.7603 0.9368
vn -0.6196 0.7667 0.1676
vn -0.3240 0.6980 0.6386
vn 0.1962 0.9557 0.2194
vn -0.3957 0.9080 -0.1376
vn 0.1430 0.9737 0.1774
vn -0.3338 0.8827 -0.3307
vn -0.0537 0.9789 0.1971
vn -0.1150 0.8893 -0.4425
vn 0.2375 0.9019 -0.3607
vn -0.1645 0.9741 0.1549
vn 0.5554 0.8173 -0.1533
vn -0.0250 0.9847 0.1724
vn 0.7860 0.5927 0.1755
vn 0.3816 0.6616 0.6455
vn 0.0553 0.6412 0.7654
vn -0.1258 0.6359 0.7614
vn -0.1067 0.6086 0.7862
vn -0.8486 0.3730 -0.3750
vn -0.9972 -0.0482 0.0576
vn -0.9404 0.3364 0.0496
vn 0.8340 0.3158 -0.4523
vn 0.3668 0.4512 -0.8135
vn -0.1156 0.4695 -0.8753
vn -0.5346 0.4182 -0.7343
vn -0.9151 0.0250 -0.4024
vn -0.9836 -0.1806 -0.0020
vn -0.8733 -0.1346 -0.4681
vn -0.8592 -0.0943 -0.5028
vn -0.5659 -0.0742 -0.8211
vn -0.6430 0.0239 -0.7655
vn -0.0219 -0.0308 -0.9993
vn -0.0644 0.0540 -0.9965
vn 0.5732 0.0526 -0.8177
vn -0.0394 -0.0782 -0.9961
vn 0.5372 -0.0430 -0.8423
vn -0.8875 -0.0109 -0.4606
vn 0.8680 -0.0407 -0.4948
vn 0.0261 -0.6396 -0.7682
vn -0.4000 -0.6072 -0.6865
vn -0.6148 -0.0604 -0.7864
vn -0.8821 -0.0176 -0.4707
vn -0.9998 -0.0052 0.0153
vn -0.9973 -0.0496 0.0544
vn -0.9911 -0.1326 0.0101
vn -0.6989 -0.5301 -0.4801
vn -0.9407 -0.3376 -0.0334
vn -0.0048 -0.1536 0.9881
vn 0.6240 -0.1584 0.7652
vn 0.6313 -0.0542 0.7736
vn 0.8597 -0.0621 0.5069
vn 0.8508 -0.1399 0.5065
vn 0.9933 -0.0715 0.0909
vn 0.9984 -0.0379 0.0421
vn 0.8604 0.0237 -0.5089
vn 0.5214 -0.0286 -0.8528
vn 0.4366 -0.6492 -0.6228
vn 0.6992 -0.6069 -0.3778
vn 0.8722 -0.4799 0.0949
vn 0.6398 -0.6726 0.3718
vn 0.5355 -0.6698 0.5143
vn 0.0670 -0.7288 0.6814
vn -0.6406 -0.0988 0.7614
vn -0.0439 -0.0589 0.9973
vn 0.5725 -0.1660 0.8029
vn 0.8341 -0.1778 0.5221
vn -0.4293 -0.6892 0.5836
vn 0.9837 -0.1386 -0.1141
vn 0.8394 -0.0785 -0.5379
vn 0.8568 0.0518 -0.5130
vn 0.8335 -0.0629 -0.5489
vn 0.9911 -0.1326 -0.0092
vn 0.8569 -0.2610 0.4445
vn 0.4717 -0.3355 0.8154
vn -0.8877 -0.0285 0.4595
vn -0.7199 -0.5864 0.3712
vn -0.6725 -0.0551 0.7380
vn -0.0126 -0.1825 0.9831
vn -0.1199 -0.3190 0.9401
vn 0.4279 -0.2889 0.8564
vn 0.8838 -0.1646 0.4379
vn 0.9972 -0.0302 -0.0683
vn -0.6199 -0.1943 0.7602
vn -0.8733 -0.0611 0.4833
vn -0.8686 -0.1677 0.4663
vn -0.6784 -0.2373 0.6952
vn -0.3022 -0.2961 0.9061
vn 0.2968 0.0212 0.9547
vn 0.7853 0.0532 0.6167
vn 0.9849 0.1640 0.0548
vn -0.6735 -0.2371 0.7001
vn -0.3530 0.0167 0.9355
vn -0.6085 0.0512 0.7919
vn -0.8868 -0.2024 0.4154
vn -0.8211 -0.1820 0.5409
vn -0.8217 0.0852 0.5635
vn -0.5518 0.0883 -0.8292
vn -0.0403 0.1509 -0.9877
vn 0.0078 -0.0480 -0.9988
vn -0.5058 -0.0883 -0.8581
vn 0.4949 -0.0575 -0.8670
vn 0.4607 0.1435 -0.8759
vn -0.3015 -0.9476 -0.1059
vn 0.0225 -0.9958 -0.0889
vn 0.1431 -0.9874 -0.0669
vn 0.1707 -0.9851 -0.0218
vn 0.2504 -0.9680 -0.0169
usemtl mannequin_body_d
s 1
f 11/1/1 69/2/2 9/3/3
f 9/3/3 12/4/4 11/1/1
f 12/4/4 9/3/3 1/5/5
f 1/5/5 2/6/6 12/4/4
f 2/6/6 1/5/5 3/7/7
f 3/7/7 13/8/8 2/6/6
f 4/9/9 13/8/8 3/7/7
f 3/7/7 7/10/10 4/9/9
f 58/11/11 4/9/9 7/10/10
f 7/10/10 5/12/12 58/11/11
f 62/13/13 58/11/11 5/12/12
f 5/12/12 6/14/14 62/13/13
f 60/15/15 6/14/14 5/12/12
f 5/12/12 7/10/10 60/15/15
f 60/15/15 7/10/10 3/7/7
f 3/7/7 59/16/16 60/15/15
f 59/16/16 3/7/7 1/5/5
f 1/5/5 8/17/17 59/16/16
f 8/17/17 1/5/5 9/3/3
f 9/3/3 69/2/2 8/17/17
f 14/18/18 12/19/4 2/20/6
f 71/21/19 10/22/20 14/18/18
f 12/19/4 14/18/18 10/22/20
f 10/22/20 11/23/1 12/19/4
f 57/24/21 89/25/22 4/26/9
f 13/27/8 4/26/9 89/25/22
f 89/25/22 88/28/23 13/27/8
f 2/20/6 13/27/8 88/28/23
f 88/28/23 91/29/24 2/20/6
f 2/20/6 91/29/24 14/18/18
f 92/30/25 14/18/18 91/29/24
f 14/18/18 92/30/25 71/21/19
f 21/31/26 71/21/19 92/30/25
f 92/30/25 94/32/27 21/31/26
f 21/31/26 94/32/27 15/33/28
f 77/34/29 15/33/28 94/32/27
f 15/33/28 77/34/29 18/35/30
f 18/35/30 77/34/29 28/36/31
f 28/36/31 16/37/32 18/35/30
f 27/38/33 16/37/32 28/36/31
f 29/39/34 16/37/32 27/38/33
f 27/38/33 30/40/35 29/39/34
f 18/35/30 20/41/36 15/33/28
f 31/42/37 30/40/35 27/38/33
f 103/43/38 105/44/39 17/45/40
f 17/45/40 29/39/34 103/43/38
f 16/37/32 29/39/34 17/45/40
f 17/45/40 18/35/30 16/37/32
f 18/35/30 17/45/40 19/46/41
f 19/46/41 20/41/36 18/35/30
f 20/41/36 19/46/41 75/47/42
f 75/47/42 74/48/43 20/41/36
f 20/41/36 74/48/43 72/49/44
f 72/49/44 15/33/28 20/41/36
f 15/33/28 72/49/44 21/31/26
f 106/50/45 43/51/46 75/47/42
f 75/47/42 19/46/41 106/50/45
f 105/44/39 106/50/45 19/46/41
f 19/46/41 17/45/40 105/44/39
f 37/52/47 24/53/48 22/54/49
f 23/55/50 22/54/49 24/53/48
f 24/53/48 25/56/51 23/55/50
f 23/55/50 25/56/51 26/57/52
f 26/57/52 83/58/53 23/55/50
f 83/58/53 26/57/52 31/42/37
f 31/42/37 84/59/54 83/58/53
f 27/38/33 84/59/54 31/42/37
f 84/59/54 27/38/33 79/60/55
f 28/36/31 79/60/55 27/38/33
f 103/43/38 29/39/34 30/40/35
f 30/40/35 104/61/56 103/43/38
f 104/61/56 30/40/35 31/42/37
f 31/42/37 101/62/57 104/61/56
f 101/62/57 31/42/37 26/57/52
f 26/57/52 32/63/58 101/62/57
f 32/63/58 26/57/52 25/56/51
f 25/56/51 33/64/59 32/63/58
f 34/65/60 33/64/59 25/56/51
f 25/56/51 24/53/48 34/65/60
f 99/66/61 34/65/60 24/53/48
f 24/53/48 37/52/47 99/66/61
f 99/66/61 37/52/47 35/67/62
f 35/67/62 37/52/47 36/68/63
f 22/54/49 36/68/63 37/52/47
f 36/68/63 22/54/49 38/69/64
f 38/69/64 22/54/49 23/55/50
f 23/55/50 42/70/65 38/69/64
f 35/67/62 96/71/66 99/66/61
f 39/72/67 86/73/68 87/74/69
f 85/75/70 86/73/68 39/72/67
f 39/72/67 40/76/71 85/75/70
f 40/76/71 39/72/67 41/77/72
f 41/77/72 42/70/65 40/76/71
f 42/70/65 41/77/72 47/78/73
f 47/78/73 38/69/64 42/70/65
f 45/79/74 75/80/42 43/81/46
f 43/81/46 44/82/75 45/79/74
f 45/79/74 44/82/75 96/71/66
f 96/71/66 35/67/62 45/79/74
f 45/79/74 35/67/62 46/83/76
f 36/68/63 46/83/76 35/67/62
f 46/83/76 36/68/63 49/84/77
f 38/69/64 49/84/77 36/68/63
f 50/85/78 49/84/77 38/69/64
f 38/69/64 47/78/73 50/85/78
f 50/85/78 47/78/73 55/86/79
f 55/86/79 47/78/73 41/77/72
f 41/77/72 56/87/80 55/86/79
f 56/87/80 41/77/72 39/72/67
f 39/72/67 48/88/81 56/87/80
f 87/74/69 48/88/81 39/72/67
f 48/88/81 87/74/69 57/24/21
f 89/25/22 57/24/21 87/74/69
f 49/84/77 51/89/82 46/83/76
f 51/89/82 49/84/77 50/85/78
f 46/83/76 76/90/83 45/79/74
f 76/90/83 46/83/76 51/89/82
f 51/89/82 73/91/84 76/90/83
f 73/91/84 51/89/82 52/92/85
f 50/85/78 52/92/85 51/89/82
f 52/92/85 50/85/78 53/93/86
f 55/86/79 53/93/86 50/85/78
f 53/93/86 55/86/79 54/94/87
f 61/95/88 54/94/87 55/86/79
f 55/86/79 56/87/80 61/95/88
f 63/96/89 61/95/88 56/87/80
f 56/87/80 48/88/81 63/96/89
f 57/24/21 63/96/89 48/88/81
f 63/96/89 57/24/21 58/97/11
f 4/26/9 58/97/11 57/24/21
f 54/94/87 60/98/15 59/99/16
f 60/98/15 54/94/87 61/95/88
f 61/95/88 6/100/14 60/98/15
f 62/101/13 6/100/14 61/95/88
f 61/95/88 63/96/89 62/101/13
f 58/97/11 62/101/13 63/96/89
f 53/93/86 64/102/90 52/92/85
f 64/102/90 53/93/86 67/103/91
f 67/103/91 66/104/92 64/102/90
f 52/92/85 65/105/93 73/91/84
f 65/105/93 52/92/85 64/102/90
f 64/102/90 70/106/94 65/105/93
f 70/106/94 64/102/90 66/104/92
f 66/104/92 68/107/95 70/106/94
f 54/94/87 67/103/91 53/93/86
f 59/99/16 67/103/91 54/94/87
f 66/104/92 67/103/91 59/99/16
f 59/99/16 8/108/17 66/104/92
f 66/104/92 8/108/17 69/109/2
f 69/109/2 68/107/95 66/104/92
f 68/107/95 69/109/2 11/110/1
f 11/110/1 10/111/20 68/107/95
f 70/106/94 68/107/95 10/111/20
f 10/111/20 71/112/19 70/106/94
f 65/105/93 70/106/94 71/112/19
f 71/112/19 21/113/26 65/105/93
f 65/105/93 21/113/26 72/114/44
f 72/114/44 73/91/84 65/105/93
f 73/91/84 72/114/44 74/115/43
f 74/115/43 76/90/83 73/91/84
f 76/90/83 74/115/43 75/80/42
f 75/80/42 45/79/74 76/90/83
f 93/116/96 81/117/97 80/118/98
f 80/118/98 78/119/99 93/116/96
f 28/36/31 77/34/29 78/119/99
f 78/119/99 80/118/98 28/36/31
f 79/60/55 28/36/31 80/118/98
f 80/118/98 82/120/100 79/60/55
f 82/120/100 80/118/98 81/117/97
f 81/117/97 90/121/101 82/120/100
f 42/70/65 23/55/50 83/58/53
f 83/58/53 40/76/71 42/70/65
f 40/76/71 83/58/53 84/59/54
f 84/59/54 85/75/70 40/76/71
f 79/60/55 85/75/70 84/59/54
f 86/73/68 85/75/70 79/60/55
f 79/60/55 82/120/100 86/73/68
f 87/74/69 86/73/68 82/120/100
f 82/120/100 90/121/101 87/74/69
f 87/74/69 90/121/101 89/25/22
f 88/28/23 89/25/22 90/121/101
f 90/121/101 81/117/97 88/28/23
f 91/29/24 88/28/23 81/117/97
f 81/117/97 93/116/96 91/29/24
f 91/29/24 93/116/96 92/30/25
f 94/32/27 92/30/25 93/116/96
f 93/116/96 78/119/99 94/32/27
f 94/32/27 78/119/99 77/34/29
f 95/122/102 44/123/75 43/124/46
f 44/123/75 95/122/102 97/125/103
f 97/125/103 96/126/66 44/123/75
f 96/126/66 97/125/103 98/127/104
f 98/127/104 99/128/61 96/126/66
f 34/129/60 99/128/61 98/127/104
f 98/127/104 102/130/105 34/129/60
f 33/131/59 34/129/60 102/130/105
f 102/130/105 100/132/106 33/131/59
f 32/133/58 33/131/59 100/132/106
f 100/132/106 101/134/57 32/133/58
f 101/134/57 100/132/106 102/130/105
f 102/130/105 104/135/56 101/134/57
f 104/135/56 102/130/105 98/127/104
f 98/127/104 103/136/38 104/135/56
f 105/137/39 103/136/38 98/127/104
f 98/127/104 97/125/103 105/137/39
f 106/138/45 105/137/39 97/125/103
f 97/125/103 95/122/102 106/138/45
f 43/124/46 106/138/45 95/122/102
