# Blender v2.77 (sub 0) OBJ File: ''
# www.blender.org
mtllib foot.mtl
o mannequin_idle_reference.013
v -1.549326 -1.015178 -6.410233
v -2.285675 -0.789954 -2.256741
v -2.073946 -1.550281 -4.321331
v -2.180925 -1.314979 -2.321768
v -2.925417 -1.297519 5.335472
v -2.451836 -1.221912 3.734260
v -2.628777 -1.746528 3.669494
v -2.746327 -0.796573 5.015249
v -2.133056 -0.344218 5.896624
v -2.161416 -0.255511 -4.622356
v -2.129075 -1.065669 -4.580330
v -0.833545 0.122464 5.177593
v -1.236446 -0.263496 6.729693
v -2.977137 -1.862434 5.534513
v -3.038616 -1.643943 7.664094
v -2.937567 -0.733451 6.886302
v 0.098495 -0.232604 7.419265
v -0.463885 1.236493 3.029209
v 0.634356 1.329736 3.000835
v 1.723397 0.055879 4.966909
v 2.343857 -0.430690 5.380930
v 2.140366 -0.022735 4.562684
v -1.528496 -1.452117 8.479795
v -1.726635 -0.593551 8.073992
v 0.630506 0.083608 5.169143
v 1.727467 -1.700477 7.444377
v 1.870327 -1.844958 6.756218
v 2.554328 -1.898646 5.935343
v 2.447666 -2.041523 3.544694
v 2.587817 -1.508292 3.455789
v 2.541008 -0.710467 0.568235
v 2.549177 -0.188407 0.549044
v 2.472507 -0.765670 3.356695
v 2.249296 0.111997 3.183054
v 2.587238 -0.969531 5.884140
v 1.790277 -0.483115 7.155487
v 2.622397 -1.474082 6.066262
v 1.728338 -1.342452 7.605577
v -0.065135 -1.046901 8.547644
v 0.183686 -1.699039 8.355753
v -1.185805 -2.026767 7.700212
v 2.487227 0.408818 0.417819
v 2.547218 -0.731013 -2.087348
v 2.419858 -1.466746 -4.224758
v 2.524028 -0.983947 -4.468519
v -0.430035 -1.441383 -6.266645
v -1.608206 0.069253 -6.557155
v -0.464775 -0.814136 -7.377971
v -0.492994 0.300202 -7.433607
v 0.720146 0.350434 -7.386584
v 0.738166 -0.776206 -7.303736
v 1.852917 0.183835 -6.407053
v 1.853288 -0.947047 -6.316624
v 2.607578 -0.204700 -2.028162
v 0.634526 2.417901 0.726384
v 1.532797 1.266576 3.051575
v 2.006515 0.837098 3.014005
v 1.601227 2.357022 0.516303
v 2.735268 0.793939 -3.957005
v 2.636907 -0.104415 -4.346895
v 1.847386 1.130727 -6.028827
v 0.711496 1.305119 -7.150093
v 2.645037 0.474419 -2.084563
v 2.707528 1.299748 -2.485887
v -0.499985 1.218770 -7.208761
v -1.603856 1.629097 -5.766907
v -1.512416 2.154728 -4.941471
v 0.709946 2.111585 -6.572167
v -0.509125 1.995850 -6.631104
v -0.644405 2.024445 -3.697674
v 0.703835 2.518333 -5.511293
v -0.494126 2.390182 -5.548429
v 1.828286 2.516098 -4.735312
v 2.483027 2.281419 -4.035398
v 1.904426 2.007943 -5.221760
v 2.807508 1.644073 -4.125494
v 2.073207 2.124413 -1.027211
v 2.256808 1.491288 0.077466
v 0.584656 2.523679 -0.761274
v -0.548545 1.916225 -0.565364
v -0.399805 2.032750 0.929274
v 2.495167 2.107583 -2.557713
v 0.494126 2.422910 -2.162068
v 1.572656 2.588593 -0.892730
v -0.798495 1.693158 -2.012975
v 0.621366 2.464391 -3.787796
v 1.612697 2.702378 -2.240054
v 1.696187 2.629784 -3.793703
v -1.213804 1.703828 1.060518
v -1.393906 1.703743 -0.419077
v -1.553335 2.024007 -3.613516
v -1.604266 0.905846 -6.339685
v -2.291617 -0.184585 -2.167813
v -2.095626 -0.344821 0.542725
v -2.238277 -0.822997 0.354546
v -2.235516 -0.552367 3.575889
v -1.888376 0.294740 3.189869
v -2.496807 -0.407359 4.659898
v -2.084306 -0.208079 4.941568
v -1.363496 0.885922 3.140244
v -1.854786 1.508748 -0.451028
v -1.627505 1.713440 -1.987790
v -2.002745 1.837727 -3.643633
v -2.072316 1.568261 -1.914068
v -2.275677 1.048856 -1.841002
v -2.175066 1.178117 -3.916542
v -2.011516 0.282475 0.669610
v -1.804946 1.089269 0.619490
v -2.172096 0.469785 -4.368494
v -2.323367 0.450631 -2.005514
v -0.387095 -1.561843 -2.741704
v 0.378755 -1.267692 0.657494
v 2.350348 -1.122356 -2.205532
v 1.673287 -1.353667 -2.541098
v 1.819527 -1.559497 -5.391068
v 0.749037 -1.421447 -6.243943
v -1.504296 -1.611816 -5.471166
v -0.908585 -1.361705 0.804545
v -1.455486 -1.504562 -2.559008
v -1.826406 -2.335685 3.773502
v -0.658235 -2.417438 3.809909
v 1.636407 -1.270312 0.459151
v 0.686506 -1.528010 -2.724333
v -2.134476 -1.340850 0.344740
v -1.547126 -1.441520 0.525634
v -2.579436 -2.200252 3.599496
v -2.891877 -2.341731 5.499959
v -2.589327 -2.196384 6.752429
v 0.342915 -1.988898 7.289486
v 0.662936 -2.440341 3.664912
v 1.754057 -2.300273 3.729116
v 2.338046 -1.100410 0.534708
vt 0.9180 0.6790
vt 0.9473 0.6816
vt 0.9390 0.6953
vt 0.9131 0.7100
vt 0.9287 0.7112
vt 0.9258 0.7214
vt 0.9561 0.7280
vt 0.9697 0.7192
vt 0.9839 0.7146
vt 0.9854 0.7693
vt 0.9971 0.7653
vt 0.9995 0.8345
vt 0.9863 0.8326
vt 0.9790 0.9204
vt 0.9663 0.9149
vt 0.9473 0.9485
vt 0.9438 0.9362
vt 0.9248 0.9419
vt 0.9307 0.9254
vt 0.9058 0.9214
vt 0.9238 0.8806
vt 0.9067 0.9490
vt 0.9263 0.9609
vt 0.9526 0.9608
vt 0.9902 0.9244
vt 0.9619 0.9679
vt 0.9370 0.9846
vt 0.9253 0.9753
vt 0.9077 0.9680
vt 0.8867 0.9555
vt 0.8794 0.9181
vt 0.9058 0.8734
vt 0.8848 0.8693
vt 0.8584 0.9138
vt 0.8672 0.8679
vt 0.8486 0.9061
vt 0.8545 0.8688
vt 0.8398 0.8763
vt 0.8613 0.9527
vt 0.8452 0.9257
vt 0.8882 0.9738
vt 0.9058 0.9800
vt 0.9058 0.9965
vt 0.8560 0.9727
vt 0.8833 0.9808
vt 0.8721 0.9957
vt 0.8423 0.9741
vt 0.8315 0.9501
vt 0.8218 0.9541
vt 0.8052 0.8931
vt 0.7930 0.8995
vt 0.7988 0.8184
vt 0.8096 0.8193
vt 0.8213 0.8855
vt 0.8218 0.8187
vt 0.8384 0.9405
vt 0.8599 0.9677
vt 0.8350 0.8157
vt 0.8306 0.7616
vt 0.8203 0.7559
vt 0.8125 0.7493
vt 0.8477 0.7122
vt 0.8369 0.7068
vt 0.8618 0.6877
vt 0.8794 0.6978
vt 0.8916 0.6782
vt 0.8994 0.6975
vt 0.9141 0.6980
vt 0.9009 0.7100
vt 0.8848 0.7122
vt 0.8564 0.7258
vt 0.9092 0.8302
vt 0.8911 0.8229
vt 0.8760 0.8170
vt 0.8564 0.8091
vt 0.8433 0.7655
vt 0.8628 0.7400
vt 0.8867 0.7241
vt 0.9014 0.7192
vt 0.9121 0.7188
vt 0.8589 0.7634
vt 0.8726 0.7451
vt 0.8867 0.7373
vt 0.9014 0.7278
vt 0.9116 0.7271
vt 0.9243 0.7319
vt 0.9121 0.7378
vt 0.9238 0.7427
vt 0.9004 0.7383
vt 0.9204 0.7817
vt 0.9160 0.7584
vt 0.9277 0.7577
vt 0.8999 0.7570
vt 0.8882 0.7449
vt 0.8789 0.7498
vt 0.8711 0.7665
vt 0.8701 0.7906
vt 0.8804 0.7942
vt 0.8950 0.7990
vt 0.9150 0.8046
vt 0.8838 0.7748
vt 0.8994 0.7786
vt 0.8872 0.7551
vt 0.9243 0.8352
vt 0.9302 0.8081
vt 0.9331 0.7811
vt 0.9336 0.7560
vt 0.9419 0.7495
vt 0.9482 0.7385
vt 0.9731 0.7734
vt 0.9736 0.8348
vt 0.9536 0.9039
vt 0.9409 0.9247
vt 0.9385 0.8878
vt 0.9424 0.8300
vt 0.9385 0.8076
vt 0.9409 0.7814
vt 0.9507 0.7819
vt 0.9609 0.7782
vt 0.9590 0.8347
vt 0.6821 0.6519
vt 0.7036 0.6467
vt 0.6792 0.5996
vt 0.6626 0.6060
vt 0.6377 0.6218
vt 0.6504 0.6606
vt 0.6616 0.6560
vt 0.6475 0.6138
vt 0.6284 0.5942
vt 0.6323 0.5745
vt 0.6455 0.5559
vt 0.6641 0.5491
vt 0.6846 0.5547
vt 0.6968 0.5962
vt 0.7124 0.6394
vt 0.7329 0.6855
vt 0.7148 0.6926
vt 0.6934 0.6980
vt 0.6763 0.7048
vt 0.6987 0.5679
vt 0.7090 0.5952
vt 0.7207 0.6333
vt 0.7437 0.6787
vt 0.7578 0.7041
vt 0.7583 0.7234
vt 0.7402 0.7444
vt 0.7144 0.7471
vt 0.6875 0.7478
vt 0.6729 0.7400
vt 0.6641 0.7056
vn -0.0559 -0.9441 -0.3249
vn -0.3916 -0.8871 -0.2444
vn -0.6935 -0.4781 -0.5390
vn -0.3065 0.0857 -0.9480
vn -0.8224 0.0201 -0.5685
vn -0.8198 0.2533 -0.5136
vn -0.9830 -0.0056 -0.1834
vn -0.9590 -0.1736 -0.2237
vn -0.6741 -0.7318 -0.1002
vn -0.9951 -0.0974 -0.0149
vn -0.7375 -0.6750 0.0204
vn -0.6909 -0.7127 -0.1211
vn -0.9986 0.0504 -0.0147
vn -0.9835 0.0927 -0.1553
vn -0.9424 0.2928 -0.1616
vn -0.9607 0.2589 -0.1001
vn -0.8918 0.4523 0.0002
vn -0.4558 0.8867 0.0772
vn -0.4830 0.8500 0.2102
vn -0.1432 0.9438 0.2977
vn -0.5160 0.8068 0.2877
vn -0.1861 0.9653 0.1830
vn -0.7655 0.6296 0.1327
vn -0.9937 -0.1069 -0.0345
vn -0.6868 -0.6911 -0.2253
vn -0.6362 -0.7698 0.0509
vn -0.3635 -0.9132 0.1839
vn -0.7856 -0.2683 0.5575
vn -0.3067 0.7248 0.6169
vn 0.1220 0.9026 0.4128
vn 0.0667 0.9409 0.3319
vn -0.1712 0.9018 0.3968
vn -0.0224 0.8901 0.4552
vn 0.3115 0.8822 0.3531
vn 0.3477 0.8327 0.4309
vn 0.6697 0.6985 0.2521
vn 0.8150 0.5325 0.2282
vn 0.9484 0.3049 0.0868
vn 0.5228 0.6532 0.5477
vn 0.7629 0.6316 0.1375
vn 0.2011 0.3293 0.9225
vn -0.2585 -0.2672 0.9283
vn -0.0415 -0.9341 0.3546
vn 0.5428 -0.6609 0.5181
vn 0.2352 -0.6171 0.7509
vn 0.1112 -0.9738 0.1982
vn 0.3723 -0.8929 0.2529
vn 0.9432 -0.0715 0.3244
vn 0.6964 -0.6727 0.2498
vn 0.9955 -0.0812 -0.0484
vn 0.6935 -0.7087 -0.1294
vn 0.6435 -0.7560 -0.1192
vn 0.9754 -0.2197 -0.0178
vn 0.9786 0.2046 0.0210
vn 0.9969 0.0631 0.0460
vn 0.9281 0.3136 0.2004
vn 0.6413 0.0662 0.7644
vn 0.9807 0.1767 0.0832
vn 0.9966 -0.0782 0.0248
vn 0.9585 -0.2848 0.0128
vn 0.6527 -0.7553 0.0584
vn 0.9515 -0.2293 -0.2050
vn 0.6623 -0.7483 -0.0381
vn 0.3986 -0.8850 -0.2403
vn 0.7049 -0.4289 -0.5648
vn 0.1112 -0.9355 -0.3353
vn 0.3137 -0.4598 -0.8307
vn -0.2347 -0.4783 -0.8462
vn 0.3567 0.0871 -0.9301
vn 0.8133 0.0786 -0.5764
vn 0.9794 -0.0453 -0.1969
vn -0.2990 0.9358 0.1867
vn -0.1176 0.9662 0.2292
vn 0.4838 0.8491 0.2120
vn 0.9051 0.4032 0.1346
vn 0.9966 -0.0157 0.0804
vn 0.9826 -0.0402 -0.1813
vn 0.8102 0.2953 -0.5063
vn 0.3516 0.4018 -0.8455
vn -0.3209 0.3934 -0.8615
vn 0.9851 0.1170 0.1256
vn 0.9391 0.1331 -0.3169
vn 0.7065 0.4885 -0.5119
vn 0.2864 0.7466 -0.6004
vn -0.3205 0.7409 -0.5901
vn -0.7760 0.5042 -0.3789
vn -0.2552 0.9530 -0.1630
vn -0.5473 0.8278 -0.1227
vn 0.1054 0.9687 -0.2248
vn -0.2370 0.9695 0.0613
vn -0.1924 0.9722 0.1332
vn -0.1879 0.9727 0.1362
vn -0.2088 0.9779 0.0113
vn 0.3735 0.8700 -0.3219
vn 0.7028 0.6967 -0.1434
vn 0.8068 0.5752 0.1346
vn 0.7732 0.6099 0.1736
vn 0.3406 0.9332 0.1142
vn -0.2541 0.9667 0.0282
vn -0.3595 0.9322 -0.0404
vn 0.1991 0.9783 0.0566
vn -0.3371 0.9413 0.0160
vn 0.1461 0.9883 -0.0449
vn -0.5461 0.8167 0.1866
vn -0.3605 0.9304 0.0662
vn -0.1550 0.9821 0.1067
vn -0.7544 0.6561 -0.0163
vn -0.9696 0.2001 -0.1407
vn -0.9836 0.0740 -0.1645
vn -0.9998 -0.0182 -0.0083
vn -0.9804 0.1944 0.0327
vn -0.9456 0.2904 -0.1464
vn -0.7825 0.6213 0.0399
vn -0.8361 0.5444 0.0674
vn -0.8633 0.4817 0.1506
vn -0.6862 0.6977 0.2056
vn -0.6945 0.7123 0.1012
vn -0.9732 0.2184 0.0721
vn -0.9997 0.0144 0.0197
vn -0.9783 0.1940 0.0729
vn 0.0261 -0.9901 -0.1378
vn 0.0920 -0.9832 -0.1576
vn 0.0073 -0.9995 0.0289
vn 0.0734 -0.9966 0.0366
vn 0.1273 -0.9846 -0.1192
vn 0.2026 -0.9760 0.0804
vn -0.1238 -0.9909 0.0515
vn 0.0182 -0.9925 -0.1205
vn -0.0738 -0.9863 -0.1475
vn -0.0318 -0.9932 -0.1117
vn 0.0620 -0.9900 -0.1264
vn 0.2022 -0.9747 -0.0955
usemtl mannequin_body_d
s 1
f 46/1/1 117/2/2 1/3/3
f 49/4/4 47/5/5 92/6/6
f 92/6/6 47/5/5 10/7/7
f 10/7/7 47/5/5 1/3/3
f 1/3/3 11/8/8 10/7/7
f 11/8/8 1/3/3 117/2/2
f 117/2/2 3/9/9 11/8/8
f 2/10/10 11/8/8 3/9/9
f 3/9/9 4/11/11 2/10/10
f 2/10/10 4/11/11 124/12/12
f 124/12/12 95/13/13 2/10/10
f 7/14/14 95/13/13 124/12/12
f 95/13/13 7/14/14 6/15/15
f 5/16/16 6/15/15 7/14/14
f 6/15/15 5/16/16 8/17/17
f 9/18/18 8/17/17 5/16/16
f 8/17/17 9/18/18 99/19/19
f 12/20/20 99/19/19 9/18/18
f 100/21/21 99/19/19 12/20/20
f 10/7/7 11/8/8 2/10/10
f 9/18/18 13/22/22 12/20/20
f 13/22/22 9/18/18 16/23/23
f 5/16/16 16/23/23 9/18/18
f 16/23/23 5/16/16 14/24/24
f 7/14/14 14/24/24 5/16/16
f 124/12/12 126/25/25 7/14/14
f 7/14/14 126/25/25 127/26/26
f 127/26/26 14/24/24 7/14/14
f 14/24/24 127/26/26 128/27/27
f 128/27/27 15/28/28 14/24/24
f 14/24/24 15/28/28 16/23/23
f 24/29/29 16/23/23 15/28/28
f 16/23/23 24/29/29 13/22/22
f 17/30/30 13/22/22 24/29/29
f 12/20/20 13/22/22 17/30/30
f 17/30/30 25/31/31 12/20/20
f 18/32/32 12/20/20 25/31/31
f 25/31/31 19/33/33 18/32/32
f 19/33/33 25/31/31 20/34/34
f 20/34/34 56/35/35 19/33/33
f 56/35/35 20/34/34 22/36/36
f 22/36/36 57/37/37 56/35/35
f 34/38/38 57/37/37 22/36/36
f 36/39/39 20/34/34 25/31/31
f 20/34/34 36/39/39 21/40/40
f 21/40/40 22/36/36 20/34/34
f 22/36/36 21/40/40 34/38/38
f 39/41/41 24/29/29 23/42/42
f 15/28/28 23/42/42 24/29/29
f 41/43/43 23/42/42 15/28/28
f 15/28/28 128/27/27 41/43/43
f 25/31/31 17/30/30 36/39/39
f 26/44/44 40/45/45 129/46/46
f 129/46/46 27/47/47 26/44/44
f 37/48/48 26/44/44 27/47/47
f 27/47/47 28/49/49 37/48/48
f 30/50/50 37/48/48 28/49/49
f 28/49/49 29/51/51 30/50/50
f 30/50/50 29/51/51 132/52/52
f 132/52/52 31/53/53 30/50/50
f 33/54/54 30/50/50 31/53/53
f 31/53/53 32/55/55 33/54/54
f 34/38/38 33/54/54 32/55/55
f 33/54/54 34/38/38 21/40/40
f 21/40/40 35/56/56 33/54/54
f 35/56/56 21/40/40 36/39/39
f 36/39/39 38/57/57 35/56/56
f 38/57/57 36/39/39 17/30/30
f 17/30/30 39/41/41 38/57/57
f 24/29/29 39/41/41 17/30/30
f 30/50/50 33/54/54 35/56/56
f 35/56/56 37/48/48 30/50/50
f 37/48/48 35/56/56 38/57/57
f 38/57/57 26/44/44 37/48/48
f 40/45/45 26/44/44 38/57/57
f 38/57/57 39/41/41 40/45/45
f 23/42/42 40/45/45 39/41/41
f 40/45/45 23/42/42 41/43/43
f 41/43/43 129/46/46 40/45/45
f 57/37/37 34/38/38 42/58/58
f 32/55/55 42/58/58 34/38/38
f 42/58/58 32/55/55 54/59/59
f 54/59/59 32/55/55 31/53/53
f 31/53/53 43/60/60 54/59/59
f 43/60/60 31/53/53 132/52/52
f 132/52/52 113/61/61 43/60/60
f 45/62/62 43/60/60 113/61/61
f 113/61/61 44/63/63 45/62/62
f 45/62/62 44/63/63 115/64/64
f 115/64/64 53/65/65 45/62/62
f 53/65/65 115/64/64 116/66/66
f 116/66/66 51/67/67 53/65/65
f 51/67/67 116/66/66 46/1/1
f 46/1/1 48/68/68 51/67/67
f 1/3/3 48/68/68 46/1/1
f 48/68/68 1/3/3 47/5/5
f 47/5/5 49/4/4 48/68/68
f 51/67/67 48/68/68 49/4/4
f 49/4/4 50/69/69 51/67/67
f 51/67/67 50/69/69 52/70/70
f 52/70/70 53/65/65 51/67/67
f 53/65/65 52/70/70 60/71/71
f 60/71/71 45/62/62 53/65/65
f 43/60/60 45/62/62 60/71/71
f 60/71/71 54/59/59 43/60/60
f 81/72/72 18/32/32 19/33/33
f 19/33/33 55/73/73 81/72/72
f 55/73/73 19/33/33 56/35/35
f 56/35/35 58/74/74 55/73/73
f 58/74/74 56/35/35 57/37/37
f 57/37/37 78/75/75 58/74/74
f 42/58/58 78/75/75 57/37/37
f 78/75/75 42/58/58 63/76/76
f 54/59/59 63/76/76 42/58/58
f 59/77/77 63/76/76 54/59/59
f 54/59/59 60/71/71 59/77/77
f 61/78/78 59/77/77 60/71/71
f 60/71/71 52/70/70 61/78/78
f 62/79/79 61/78/78 52/70/70
f 52/70/70 50/69/69 62/79/79
f 65/80/80 62/79/79 50/69/69
f 50/69/69 49/4/4 65/80/80
f 92/6/6 65/80/80 49/4/4
f 63/76/76 64/81/81 78/75/75
f 64/81/81 63/76/76 59/77/77
f 59/77/77 76/82/82 64/81/81
f 75/83/83 76/82/82 59/77/77
f 59/77/77 61/78/78 75/83/83
f 68/84/84 75/83/83 61/78/78
f 61/78/78 62/79/79 68/84/84
f 69/85/85 68/84/84 62/79/79
f 62/79/79 65/80/80 69/85/85
f 69/85/85 65/80/80 92/6/6
f 92/6/6 66/86/86 69/85/85
f 72/87/87 69/85/85 66/86/86
f 66/86/86 67/88/88 72/87/87
f 75/83/83 68/84/84 71/89/89
f 72/87/87 71/89/89 68/84/84
f 68/84/84 69/85/85 72/87/87
f 85/90/90 70/91/91 91/92/92
f 67/88/88 91/92/92 70/91/91
f 70/91/91 72/87/87 67/88/88
f 72/87/87 70/91/91 86/93/93
f 86/93/93 71/89/89 72/87/87
f 73/94/94 71/89/89 86/93/93
f 71/89/89 73/94/94 75/83/83
f 75/83/83 73/94/94 74/95/95
f 74/95/95 76/82/82 75/83/83
f 76/82/82 74/95/95 82/96/96
f 82/96/96 64/81/81 76/82/82
f 64/81/81 82/96/96 77/97/97
f 77/97/97 78/75/75 64/81/81
f 78/75/75 77/97/97 84/98/98
f 84/98/98 58/74/74 78/75/75
f 58/74/74 84/98/98 79/99/99
f 79/99/99 55/73/73 58/74/74
f 55/73/73 79/99/99 80/100/100
f 80/100/100 81/72/72 55/73/73
f 77/97/97 82/96/96 87/101/101
f 87/101/101 84/98/98 77/97/97
f 84/98/98 87/101/101 83/102/102
f 83/102/102 79/99/99 84/98/98
f 83/102/102 85/90/90 80/100/100
f 70/91/91 85/90/90 83/102/102
f 83/102/102 86/93/93 70/91/91
f 86/93/93 83/102/102 87/101/101
f 87/101/101 88/103/103 86/93/93
f 88/103/103 87/101/101 82/96/96
f 82/96/96 74/95/95 88/103/103
f 74/95/95 73/94/94 88/103/103
f 86/93/93 88/103/103 73/94/94
f 80/100/100 79/99/99 83/102/102
f 12/20/20 18/32/32 100/21/21
f 89/104/104 100/21/21 18/32/32
f 18/32/32 81/72/72 89/104/104
f 90/105/105 89/104/104 81/72/72
f 81/72/72 80/100/100 90/105/105
f 90/105/105 80/100/100 85/90/90
f 85/90/90 102/106/106 90/105/105
f 91/92/92 102/106/106 85/90/90
f 102/106/106 91/92/92 103/107/107
f 91/92/92 67/88/88 103/107/107
f 106/108/108 103/107/107 67/88/88
f 67/88/88 66/86/86 106/108/108
f 109/109/109 106/108/108 66/86/86
f 66/86/86 92/6/6 109/109/109
f 10/7/7 109/109/109 92/6/6
f 109/109/109 10/7/7 93/110/110
f 2/10/10 93/110/110 10/7/7
f 93/110/110 2/10/10 95/13/13
f 95/13/13 94/111/111 93/110/110
f 6/15/15 94/111/111 95/13/13
f 94/111/111 6/15/15 96/112/112
f 8/17/17 96/112/112 6/15/15
f 96/112/112 8/17/17 98/113/113
f 99/19/19 98/113/113 8/17/17
f 97/114/114 98/113/113 99/19/19
f 99/19/19 100/21/21 97/114/114
f 108/115/115 97/114/114 100/21/21
f 100/21/21 89/104/104 108/115/115
f 108/115/115 89/104/104 90/105/105
f 90/105/105 101/116/116 108/115/115
f 101/116/116 90/105/105 102/106/106
f 102/106/106 104/117/117 101/116/116
f 103/107/107 104/117/117 102/106/106
f 105/118/118 104/117/117 103/107/107
f 103/107/107 106/108/108 105/118/118
f 110/119/119 105/118/118 106/108/108
f 97/114/114 108/115/115 107/120/120
f 107/120/120 108/115/115 105/118/118
f 105/118/118 108/115/115 101/116/116
f 101/116/116 104/117/117 105/118/118
f 105/118/118 110/119/119 107/120/120
f 106/108/108 109/109/109 110/119/119
f 93/110/110 110/119/119 109/109/109
f 110/119/119 93/110/110 94/111/111
f 94/111/111 107/120/120 110/119/119
f 96/112/112 107/120/120 94/111/111
f 107/120/120 96/112/112 97/114/114
f 98/113/113 97/114/114 96/112/112
f 112/121/121 118/122/122 111/123/123
f 111/123/123 123/124/124 112/121/121
f 113/125/61 132/126/52 122/127/125
f 122/127/125 114/128/126 113/125/61
f 44/129/63 113/125/61 114/128/126
f 114/128/126 115/130/64 44/129/63
f 115/130/64 114/128/126 123/124/124
f 123/124/124 116/131/66 115/130/64
f 116/131/66 123/124/124 111/123/123
f 111/123/123 46/132/1 116/131/66
f 117/133/2 46/132/1 111/123/123
f 111/123/123 119/134/127 117/133/2
f 119/134/127 111/123/123 118/122/122
f 118/122/122 125/135/128 119/134/127
f 120/136/129 125/135/128 118/122/122
f 118/122/122 121/137/130 120/136/129
f 130/138/131 121/137/130 118/122/122
f 118/122/122 112/121/121 130/138/131
f 131/139/132 130/138/131 112/121/121
f 112/121/121 122/127/125 131/139/132
f 122/127/125 112/121/121 123/124/124
f 123/124/124 114/128/126 122/127/125
f 3/140/9 117/133/2 119/134/127
f 119/134/127 4/141/11 3/140/9
f 4/141/11 119/134/127 125/135/128
f 125/135/128 124/142/12 4/141/11
f 126/143/25 124/142/12 125/135/128
f 125/135/128 120/136/129 126/143/25
f 127/144/26 126/143/25 120/136/129
f 120/136/129 128/145/27 127/144/26
f 128/145/27 120/136/129 121/137/130
f 121/137/130 41/146/43 128/145/27
f 129/147/46 41/146/43 121/137/130
f 121/137/130 130/138/131 129/147/46
f 27/148/47 129/147/46 130/138/131
f 130/138/131 131/139/132 27/148/47
f 28/149/49 27/148/47 131/139/132
f 131/139/132 29/150/51 28/149/49
f 29/150/51 131/139/132 122/127/125
f 122/127/125 132/126/52 29/150/51
