# Blender v2.77 (sub 0) OBJ File: ''
# www.blender.org
mtllib thigh.mtl
o mannequin_idle_reference.009
v 1.281762 -9.606686 -2.442542
v -0.051908 -9.563377 -2.868042
v -1.228090 -9.666836 -0.209985
v 0.102291 -9.265903 0.284539
v -2.478461 -7.805264 1.664411
v -1.180120 -9.370144 1.901756
v -1.660990 -7.773968 2.851216
v 1.663292 -7.794228 2.768709
v -0.012999 -7.755402 3.439221
v 1.414272 -9.557766 1.858458
v 0.169731 -9.233643 2.305366
v 2.183363 -9.801823 0.856339
v 1.829561 -9.947811 -0.280264
v 1.211881 -9.666592 -0.027648
v 2.167482 -9.592148 -1.498827
v 2.323582 -7.896557 -1.523431
v 2.541662 -5.617928 -1.358386
v 3.008873 -3.182701 1.847545
v 4.192832 2.551338 -0.041227
v 3.797623 2.521214 2.322767
v 2.967773 -5.547573 0.152580
v 2.492461 -9.462944 -0.254561
v 2.501112 -7.867924 1.685168
v 2.699602 -7.842701 0.067716
v 1.619002 -5.773788 2.845619
v 2.731733 -5.511139 1.762899
v 3.413052 -0.492771 2.115251
v 2.187232 1.957264 4.659420
v 1.490613 -7.929016 -2.565530
v 2.953824 -3.164829 -1.795612
v 3.401123 -3.157471 -0.087335
v 3.894932 -0.503479 -0.106035
v 3.756642 5.841446 -2.224174
v 3.738754 9.088718 -2.193114
v 4.253963 5.814941 0.021287
v 3.508223 11.445396 1.765417
v 4.452973 9.108082 -0.021426
v 2.381552 5.736904 -3.929981
v 3.580574 2.428997 -2.238727
v 1.960912 -0.742367 -3.488726
v 3.353822 -0.623436 -2.127568
v 1.800722 -3.197781 -2.914173
v 1.544962 -5.648312 -2.295364
v -0.072739 -7.845577 -3.251769
v -1.675050 -7.947361 -3.078813
v -1.261119 -9.583572 -2.792832
v -1.665300 -9.396561 -2.796547
v -2.352751 -7.727726 -2.023917
v 2.869851 5.476822 4.447728
v 3.960872 5.756786 2.287485
v 4.128745 9.054981 2.228174
v 2.885242 11.844170 -0.209132
v 4.175583 11.355778 -0.167821
v 1.538383 11.230827 -3.258000
v -2.065391 10.196285 -3.370848
v -0.180539 10.622669 -3.885713
v -2.154081 8.317867 -4.080227
v 2.227691 8.639771 4.450900
v 1.703312 10.870071 3.594696
v 1.681381 11.140156 -0.055106
v 3.448574 11.601368 -1.847346
v -3.593441 10.168610 -1.845579
v -4.329322 8.531551 -0.054532
v -3.844211 8.374599 -2.195232
v -1.581600 9.977219 0.023488
v -0.065938 -5.558830 -3.097167
v -3.760212 5.919724 -2.222179
v -2.159661 5.639359 -4.108122
v -0.090360 8.519131 -4.718969
v 0.330290 5.618092 -4.733423
v 1.829231 8.835480 -3.966379
v 0.127141 2.160732 -4.588009
v 2.243592 2.223587 -3.923561
v -2.104240 2.338390 -3.841824
v -1.832090 -3.096283 -3.087733
v -0.025269 -0.727356 -4.004766
v -0.026419 -3.149212 -3.460037
v -1.711920 -5.446175 -2.952345
v -2.858681 -3.068764 -1.915670
v -1.974521 -0.604347 -3.384923
v -3.615591 2.596756 -2.183387
v -3.269670 -0.545639 -2.056020
v -3.271911 -3.081139 -0.011992
v -2.676041 -7.776928 -0.138248
v -2.492701 -5.399654 -1.912992
v -1.952991 -9.649536 -1.604268
v -2.313051 -9.464401 -0.318285
v -1.698941 -9.845383 -0.148158
v -1.953100 -9.635643 0.901817
v 0.105831 5.323605 5.331023
v -1.826200 2.478943 3.909258
v -2.242740 -0.904697 3.540076
v -0.191240 1.803211 5.227081
v -0.505750 -1.540535 4.626991
v -2.931790 -3.200146 1.877714
v -2.112271 -3.697430 3.167123
v 1.760122 -3.611248 3.229812
v -0.631019 -4.223423 3.893680
v 1.990502 -1.102894 3.986636
v -3.443261 -0.501366 1.964128
v -3.785091 -0.442348 -0.106952
v -2.856030 -5.408215 0.009065
v -1.958780 -5.927883 2.937738
v -2.705931 -5.529018 1.785427
v -0.438229 -6.323406 3.628987
v -4.171968 9.954254 -0.143379
v -2.914321 10.204281 -0.099402
v -1.875230 9.791809 3.615114
v 0.279761 10.249332 0.120576
v 0.047650 8.232349 5.194280
v -0.011370 10.187996 4.168118
v -1.863400 5.793411 4.296021
v -3.510900 6.092075 2.168701
v -2.015571 8.195019 4.377684
v -3.961711 3.076382 -0.137243
v -3.383811 2.925644 2.056215
v -3.807061 8.343998 2.305072
v -3.457361 9.910175 1.854572
v -4.064933 6.459251 -0.109502
vt 0.9619 0.4194
vt 0.9639 0.4463
vt 0.9492 0.4453
vt 0.9033 0.4170
vt 0.9053 0.3979
vt 0.9302 0.3887
vt 0.8042 0.3853
vt 0.9775 0.3882
vt 0.7534 0.3984
vt 0.7358 0.3955
vt 0.7383 0.3862
vt 0.7764 0.4019
vt 0.8042 0.4033
vt 0.7358 0.4194
vt 0.7339 0.3999
vt 0.7588 0.4194
vt 0.7773 0.4199
vt 0.8013 0.4204
vt 0.8242 0.4199
vt 0.8281 0.3994
vt 0.8594 0.3921
vt 0.8843 0.3984
vt 0.8838 0.4175
vt 0.7373 0.4463
vt 0.8237 0.4429
vt 0.8408 0.4189
vt 0.8481 0.3965
vt 0.8667 0.3945
vt 0.8652 0.3999
vt 0.8613 0.4185
vt 0.8809 0.4438
vt 0.8608 0.4448
vt 0.8638 0.4722
vt 0.8433 0.4722
vt 0.8643 0.5022
vt 0.8438 0.5029
vt 0.8643 0.5371
vt 0.8442 0.5374
vt 0.8457 0.5742
vt 0.8423 0.4458
vt 0.8232 0.4678
vt 0.8223 0.4966
vt 0.8213 0.5315
vt 0.8271 0.5715
vt 0.9282 0.4180
vt 0.9009 0.4434
vt 0.8833 0.4717
vt 0.8843 0.5005
vt 0.8843 0.5352
vt 0.8838 0.5742
vt 0.8643 0.5745
vt 0.8843 0.6113
vt 0.8652 0.6121
vt 0.8755 0.6328
vt 0.8516 0.6458
vt 0.8472 0.6118
vt 0.9087 0.6079
vt 0.9038 0.5725
vt 0.9043 0.5325
vt 0.9048 0.4990
vt 0.9028 0.4707
vt 0.9282 0.4438
vt 0.9482 0.4165
vt 0.9458 0.3979
vt 0.9502 0.4004
vt 0.9634 0.3975
vt 0.8228 0.6077
vt 0.8184 0.6333
vt 0.8179 0.6494
vt 0.8521 0.6614
vt 0.8960 0.6487
vt 0.9087 0.6252
vt 0.9297 0.6345
vt 0.9277 0.6040
vt 0.9473 0.6145
vt 0.9463 0.6021
vt 0.9663 0.6030
vt 0.9663 0.5750
vt 0.8022 0.6211
vt 0.8032 0.6455
vt 0.9082 0.6658
vt 0.9302 0.6514
vt 0.9536 0.6504
vt 0.9771 0.6209
vt 0.9834 0.6055
vt 0.9829 0.5818
vt 0.9766 0.6562
vt 0.9980 0.6323
vt 0.9277 0.4712
vt 0.9272 0.4990
vt 0.9258 0.5315
vt 0.9487 0.5002
vt 0.9473 0.5337
vt 0.9663 0.5012
vt 0.9663 0.5371
vt 0.9468 0.5713
vt 0.9238 0.5710
vt 0.9492 0.4722
vt 0.9653 0.4727
vt 0.9834 0.5432
vt 0.9844 0.5029
vt 0.9854 0.4731
vt 0.9858 0.4463
vt 0.9849 0.4194
vt 0.9824 0.3999
vt 0.9854 0.3960
vt 1.0010 0.3979
vt 0.7808 0.5374
vt 0.7998 0.5298
vt 0.8022 0.5701
vt 0.7754 0.4985
vt 0.7964 0.4917
vt 0.7744 0.4668
vt 0.7939 0.4609
vt 0.7549 0.5027
vt 0.7573 0.4722
vt 0.7583 0.4453
vt 0.7749 0.4414
vt 0.7959 0.4370
vt 0.8018 0.6033
vt 0.7817 0.5752
vt 0.7554 0.5420
vt 0.7354 0.5029
vt 0.7368 0.4731
vt 0.7490 0.6401
vt 0.7397 0.6438
vt 0.7344 0.6279
vt 0.7441 0.6230
vt 0.7729 0.6382
vt 0.7778 0.6177
vt 0.7808 0.6025
vt 0.7554 0.5781
vt 0.7344 0.5432
vt 0.7344 0.5818
vt 0.7549 0.6038
vt 0.7344 0.6055
vn -0.9287 -0.1014 -0.3566
vn -0.9097 -0.0834 -0.4068
vn -0.5053 -0.0431 -0.8618
vn 0.5911 -0.0297 -0.8061
vn 0.3370 -0.7270 -0.5982
vn 0.1214 -0.7428 -0.6584
vn -0.0309 -0.9974 0.0648
vn 0.2485 -0.9671 0.0547
vn -0.5023 -0.8061 0.3130
vn -0.0363 -0.9983 0.0451
vn -0.2401 -0.8267 0.5087
vn -0.0151 -0.8231 0.5677
vn -0.9876 -0.1556 -0.0195
vn -0.8472 -0.5312 0.0070
vn -0.8946 -0.2729 0.3538
vn -0.5577 -0.3622 0.7468
vn 0.0446 -0.3518 0.9350
vn 0.5605 -0.2481 0.7901
vn 0.2138 -0.8210 0.5293
vn -0.3134 -0.9495 0.0132
vn 0.6512 -0.6619 -0.3713
vn 0.8894 -0.0512 -0.4542
vn -0.9925 -0.1149 -0.0414
vn 0.5513 -0.1039 0.8278
vn 0.8852 -0.2072 0.4165
vn 0.5305 -0.7999 0.2804
vn -0.0103 -0.9921 -0.1246
vn 0.8949 -0.4437 -0.0479
vn 0.9912 -0.1254 -0.0414
vn 0.8586 -0.1445 -0.4917
vn 0.9890 -0.1397 -0.0473
vn 0.9822 -0.1843 -0.0346
vn 0.8967 -0.1711 0.4082
vn 0.9905 -0.1352 -0.0244
vn 0.9096 -0.1563 0.3848
vn 0.9964 -0.0714 -0.0449
vn 0.9304 -0.1059 0.3507
vn 0.9447 -0.0063 0.3279
vn 0.8916 -0.1225 0.4358
vn 0.5489 -0.2232 0.8055
vn 0.5643 -0.2328 0.7921
vn 0.5538 -0.1385 0.8210
vn 0.6644 0.0373 0.7464
vn 0.1567 -0.0588 -0.9859
vn 0.5804 -0.1058 -0.8074
vn 0.8438 -0.2155 -0.4915
vn 0.8625 -0.1532 -0.4823
vn 0.8905 -0.0627 -0.4505
vn 0.8922 0.0064 -0.4516
vn 0.9983 -0.0273 -0.0517
vn 0.8263 0.0902 -0.5559
vn 0.9967 0.0524 -0.0615
vn 0.8320 0.5547 -0.0080
vn 0.4753 0.7830 0.4011
vn 0.8896 0.1485 0.4318
vn 0.4967 0.1910 -0.8466
vn 0.6019 0.0348 -0.7978
vn 0.5610 -0.0920 -0.8227
vn 0.4884 -0.2021 -0.8489
vn 0.5074 -0.2264 -0.8314
vn 0.1631 -0.0660 -0.9844
vn -0.5087 -0.0691 -0.8581
vn -0.1272 -0.7679 -0.6277
vn -0.5597 -0.4813 -0.6746
vn -0.5804 -0.7915 -0.1913
vn 0.5134 0.2446 0.8225
vn 0.0996 0.8179 0.5667
vn -0.4479 0.8923 0.0558
vn -0.1599 0.9871 0.0041
vn 0.4689 0.7551 -0.4582
vn 0.0905 0.8268 -0.5551
vn -0.1439 0.7778 -0.6118
vn 0.0067 0.1902 -0.9817
vn -0.4273 0.7460 -0.5107
vn -0.5325 0.1565 -0.8318
vn -0.8838 0.0855 -0.4600
vn -0.9103 -0.0284 -0.4130
vn -0.1760 0.7776 0.6037
vn -0.3342 0.9404 0.0627
vn -0.0378 0.9969 0.0690
vn -0.5888 0.7439 -0.3160
vn -0.9995 0.0264 0.0125
vn -0.9969 -0.0727 0.0310
vn 0.0198 0.9983 0.0543
vn -0.7940 0.6070 0.0313
vn 0.0458 -0.1778 -0.9830
vn -0.0267 -0.1954 -0.9803
vn -0.0079 -0.1216 -0.9925
vn -0.5325 -0.1491 -0.8332
vn -0.5465 -0.1095 -0.8302
vn -0.8674 -0.1499 -0.4744
vn -0.8990 -0.0728 -0.4317
vn -0.5351 -0.0279 -0.8443
vn 0.0752 -0.0075 -0.9971
vn -0.5201 -0.1248 -0.8449
vn -0.8832 -0.1519 -0.4436
vn -0.9978 -0.0448 0.0477
vn -0.9924 -0.1196 -0.0273
vn -0.9830 -0.1815 -0.0265
vn -0.6893 -0.0245 0.7240
vn -0.1982 -0.0817 0.9767
vn -0.1009 -0.0004 0.9949
vn -0.7061 -0.0804 0.7035
vn -0.1444 -0.2067 0.9677
vn -0.7023 -0.1356 0.6988
vn -0.0954 -0.1949 0.9761
vn -0.9181 -0.0777 0.3885
vn -0.9286 -0.1452 0.3413
vn -0.9468 -0.1085 0.3029
vn -0.6762 -0.1295 0.7252
vn -0.0453 -0.1168 0.9921
vn -0.0559 0.2270 0.9723
vn -0.6296 -0.0596 0.7746
vn -0.8944 -0.0395 0.4454
vn -0.5588 0.7547 0.3437
vn -0.4207 0.7501 0.5101
vn -0.5706 0.1578 0.8059
vn -0.8971 -0.0857 0.4335
vn -0.8814 0.0897 0.4637
usemtl mannequin_body_d
s 1
f 48/1/1 85/2/2 78/3/3
f 29/4/4 1/5/5 2/6/6
f 4/7/7 2/6/6 1/5/5
f 2/6/6 4/7/7 3/8/8
f 89/9/9 88/10/10 3/11/8
f 3/11/8 6/12/11 89/9/9
f 6/12/11 3/11/8 4/7/7
f 4/7/7 11/13/12 6/12/11
f 84/14/13 87/15/14 89/9/9
f 89/9/9 5/16/15 84/14/13
f 5/16/15 89/9/9 6/12/11
f 6/12/11 7/17/16 5/16/15
f 7/17/16 6/12/11 11/13/12
f 11/13/12 9/18/17 7/17/16
f 8/19/18 9/18/17 11/13/12
f 11/13/12 10/20/19 8/19/18
f 10/20/19 11/13/12 4/7/7
f 4/7/7 14/21/20 10/20/19
f 1/5/5 14/21/20 4/7/7
f 14/21/20 1/5/5 15/22/21
f 15/22/21 1/5/5 29/4/4
f 29/4/4 16/23/22 15/22/21
f 102/24/23 84/14/13 5/16/15
f 25/25/24 8/19/18 23/26/25
f 23/26/25 8/19/18 10/20/19
f 10/20/19 12/27/26 23/26/25
f 12/27/26 10/20/19 14/21/20
f 14/21/20 13/28/27 12/27/26
f 15/22/21 13/28/27 14/21/20
f 13/28/27 15/22/21 22/29/28
f 22/29/28 15/22/21 16/23/22
f 16/23/22 24/30/29 22/29/28
f 24/30/29 16/23/22 17/31/30
f 17/31/30 21/32/31 24/30/29
f 31/33/32 21/32/31 17/31/30
f 21/32/31 31/33/32 18/34/33
f 18/34/33 31/33/32 32/35/34
f 32/35/34 27/36/35 18/34/33
f 27/36/35 32/35/34 19/37/36
f 19/37/36 20/38/37 27/36/35
f 50/39/38 20/38/37 19/37/36
f 18/34/33 26/40/39 21/32/31
f 22/29/28 12/27/26 13/28/27
f 12/27/26 22/29/28 24/30/29
f 24/30/29 23/26/25 12/27/26
f 23/26/25 24/30/29 21/32/31
f 21/32/31 26/40/39 23/26/25
f 23/26/25 26/40/39 25/25/24
f 97/41/40 25/25/24 26/40/39
f 26/40/39 18/34/33 97/41/40
f 99/42/41 97/41/40 18/34/33
f 18/34/33 27/36/35 99/42/41
f 28/43/42 99/42/41 27/36/35
f 27/36/35 20/38/37 28/43/42
f 49/44/43 28/43/42 20/38/37
f 2/6/6 44/45/44 29/4/4
f 43/46/45 29/4/4 44/45/44
f 16/23/22 29/4/4 43/46/45
f 43/46/45 17/31/30 16/23/22
f 30/47/46 17/31/30 43/46/45
f 17/31/30 30/47/46 31/33/32
f 31/33/32 30/47/46 41/48/47
f 41/48/47 32/35/34 31/33/32
f 32/35/34 41/48/47 39/49/48
f 39/49/48 19/37/36 32/35/34
f 19/37/36 39/49/48 33/50/49
f 33/50/49 35/51/50 19/37/36
f 35/51/50 33/50/49 34/52/51
f 34/52/51 37/53/52 35/51/50
f 53/54/53 37/53/52 34/52/51
f 37/53/52 53/54/53 36/55/54
f 36/55/54 51/56/55 37/53/52
f 35/51/50 37/53/52 51/56/55
f 51/56/55 50/39/38 35/51/50
f 19/37/36 35/51/50 50/39/38
f 71/57/56 34/52/51 33/50/49
f 33/50/49 38/58/57 71/57/56
f 38/58/57 33/50/49 39/49/48
f 39/49/48 73/59/58 38/58/57
f 73/59/58 39/49/48 41/48/47
f 41/48/47 40/60/59 73/59/58
f 40/60/59 41/48/47 30/47/46
f 30/47/46 42/61/60 40/60/59
f 43/46/45 42/61/60 30/47/46
f 42/61/60 43/46/45 66/62/61
f 44/45/44 66/62/61 43/46/45
f 66/62/61 44/45/44 45/63/62
f 46/64/63 45/63/62 44/45/44
f 45/63/62 46/64/63 47/65/64
f 86/66/65 47/65/64 46/64/63
f 47/65/64 86/66/65 48/1/1
f 48/1/1 45/63/62 47/65/64
f 78/3/3 45/63/62 48/1/1
f 20/38/37 50/39/38 49/44/43
f 58/67/66 49/44/43 50/39/38
f 50/39/38 51/56/55 58/67/66
f 59/68/67 58/67/66 51/56/55
f 51/56/55 36/55/54 59/68/67
f 60/69/68 59/68/67 36/55/54
f 36/55/54 52/70/69 60/69/68
f 52/70/69 36/55/54 53/54/53
f 53/54/53 61/71/70 52/70/69
f 34/52/51 61/71/70 53/54/53
f 54/72/71 61/71/70 34/52/51
f 34/52/51 71/57/56 54/72/71
f 56/73/72 54/72/71 71/57/56
f 71/57/56 69/74/73 56/73/72
f 55/75/74 56/73/72 69/74/73
f 69/74/73 57/76/75 55/75/74
f 55/75/74 57/76/75 64/77/76
f 67/78/77 64/77/76 57/76/75
f 58/67/66 59/68/67 111/79/78
f 109/80/79 111/79/78 59/68/67
f 59/68/67 60/69/68 109/80/79
f 60/81/68 52/70/69 61/71/70
f 61/71/70 54/72/71 60/81/68
f 109/82/79 60/81/68 54/72/71
f 54/72/71 56/73/72 109/82/79
f 65/83/80 109/82/79 56/73/72
f 56/73/72 55/75/74 65/83/80
f 65/83/80 55/75/74 62/84/81
f 64/77/76 62/84/81 55/75/74
f 62/84/81 64/77/76 63/85/82
f 119/86/83 63/85/82 64/77/76
f 62/84/81 107/87/84 65/83/80
f 63/85/82 106/88/85 62/84/81
f 45/63/62 78/3/3 66/62/61
f 77/89/86 66/62/61 78/3/3
f 66/62/61 77/89/86 42/61/60
f 40/60/59 42/61/60 77/89/86
f 77/89/86 76/90/87 40/60/59
f 40/60/59 76/90/87 72/91/88
f 72/91/88 76/90/87 80/92/89
f 80/92/89 74/93/90 72/91/88
f 74/93/90 80/92/89 82/94/91
f 82/94/91 81/95/92 74/93/90
f 68/96/93 74/93/90 81/95/92
f 81/95/92 67/78/77 68/96/93
f 57/76/75 68/96/93 67/78/77
f 68/96/93 57/76/75 69/74/73
f 69/74/73 70/97/94 68/96/93
f 70/97/94 69/74/73 71/57/56
f 71/57/56 38/58/57 70/97/94
f 70/97/94 38/58/57 73/59/58
f 73/59/58 72/91/88 70/97/94
f 72/91/88 73/59/58 40/60/59
f 72/91/88 74/93/90 68/96/93
f 68/96/93 70/97/94 72/91/88
f 75/98/95 80/92/89 76/90/87
f 76/90/87 77/89/86 75/98/95
f 78/3/3 75/98/95 77/89/86
f 75/98/95 78/3/3 85/2/2
f 85/2/2 79/99/96 75/98/95
f 80/92/89 75/98/95 79/99/96
f 79/99/96 82/94/91 80/92/89
f 64/77/76 67/78/77 119/86/83
f 115/100/97 119/86/83 67/78/77
f 67/78/77 81/95/92 115/100/97
f 101/101/98 115/100/97 81/95/92
f 81/95/92 82/94/91 101/101/98
f 83/102/99 101/101/98 82/94/91
f 82/94/91 79/99/96 83/102/99
f 102/103/23 83/102/99 79/99/96
f 79/99/96 85/2/2 102/103/23
f 84/104/13 102/103/23 85/2/2
f 85/2/2 48/1/1 84/104/13
f 87/105/14 84/104/13 48/1/1
f 48/1/1 86/66/65 87/105/14
f 87/105/14 86/66/65 88/106/10
f 88/106/10 86/66/65 3/8/8
f 46/64/63 3/8/8 86/66/65
f 3/8/8 46/64/63 2/6/6
f 44/45/44 2/6/6 46/64/63
f 88/106/10 89/107/9 87/105/14
f 91/108/100 93/109/101 90/110/102
f 93/109/101 91/108/100 92/111/103
f 92/111/103 94/112/104 93/109/101
f 94/112/104 92/111/103 96/113/105
f 96/113/105 98/114/106 94/112/104
f 100/115/107 92/111/103 91/108/100
f 92/111/103 100/115/107 95/116/108
f 95/116/108 96/113/105 92/111/103
f 96/113/105 95/116/108 104/117/109
f 104/117/109 103/118/110 96/113/105
f 98/114/106 96/113/105 103/118/110
f 103/118/110 105/119/111 98/114/106
f 98/114/106 105/119/111 25/25/24
f 25/25/24 97/41/40 98/114/106
f 94/112/104 98/114/106 97/41/40
f 97/41/40 99/42/41 94/112/104
f 93/109/101 94/112/104 99/42/41
f 99/42/41 28/43/42 93/109/101
f 90/110/102 93/109/101 28/43/42
f 28/43/42 49/44/43 90/110/102
f 111/79/78 110/120/112 58/67/66
f 58/67/66 110/120/112 90/110/102
f 112/121/113 90/110/102 110/120/112
f 90/110/102 112/121/113 91/108/100
f 116/122/114 91/108/100 112/121/113
f 91/108/100 116/122/114 100/115/107
f 101/123/98 100/115/107 116/122/114
f 100/115/107 101/123/98 83/124/99
f 83/124/99 95/116/108 100/115/107
f 95/116/108 83/124/99 102/24/23
f 102/24/23 104/117/109 95/116/108
f 5/16/15 104/117/109 102/24/23
f 103/118/110 104/117/109 5/16/15
f 5/16/15 7/17/16 103/118/110
f 105/119/111 103/118/110 7/17/16
f 7/17/16 9/18/17 105/119/111
f 25/25/24 105/119/111 9/18/17
f 9/18/17 8/19/18 25/25/24
f 90/110/102 49/44/43 58/67/66
f 107/125/84 62/126/81 106/127/85
f 106/127/85 118/128/115 107/125/84
f 65/129/80 107/125/84 118/128/115
f 118/128/115 108/130/116 65/129/80
f 109/80/79 65/129/80 108/130/116
f 108/130/116 111/79/78 109/80/79
f 111/79/78 108/130/116 114/131/117
f 114/131/117 110/120/112 111/79/78
f 110/120/112 114/131/117 112/121/113
f 113/132/118 112/121/113 114/131/117
f 112/121/113 113/132/118 116/122/114
f 115/133/97 116/122/114 113/132/118
f 116/122/114 115/133/97 101/123/98
f 113/132/118 119/134/83 115/133/97
f 119/134/83 113/132/118 117/135/119
f 114/131/117 117/135/119 113/132/118
f 117/135/119 114/131/117 108/130/116
f 108/130/116 118/128/115 117/135/119
f 63/136/82 117/135/119 118/128/115
f 118/128/115 106/127/85 63/136/82
f 117/135/119 63/136/82 119/134/83
