# Blender v2.77 (sub 0) OBJ File: ''
# www.blender.org
mtllib sleeves.mtl
o Nakao_Meiko_Base_mesh.007_Nakao_Meiko_Base.019
v 0.068754 0.238371 0.025343
v 0.106654 0.266371 0.024323
v 0.123254 0.248871 0.063723
v 0.092534 0.218571 0.064863
v 0.159714 0.207611 0.082283
v 0.135294 0.175911 0.082623
v 0.140894 0.296772 0.023563
v 0.153954 0.279191 0.062583
v 0.184114 0.239311 0.081903
v 0.076894 0.231611 -0.051377
v 0.113494 0.260531 -0.050817
v 0.104034 0.266691 -0.014237
v 0.062454 0.244791 -0.012957
v 0.150034 0.294231 -0.049317
v 0.139394 0.300531 -0.013497
v 0.116134 0.190131 -0.096097
v 0.151574 0.229211 -0.096657
v 0.131234 0.254751 -0.082677
v 0.099494 0.217091 -0.082857
v 0.180534 0.260931 -0.098757
v 0.160474 0.286031 -0.081917
v 0.194754 0.113411 -0.047257
v 0.216774 0.137911 -0.047617
v 0.190654 0.171991 -0.092317
v 0.166114 0.138971 -0.090377
v 0.245094 0.180371 -0.073877
v 0.217054 0.216451 -0.102917
v 0.209214 0.101351 0.024023
v 0.227794 0.132271 0.024603
v 0.232014 0.129611 -0.010477
v 0.214874 0.102671 -0.010037
v 0.247074 0.160571 0.025263
v 0.248094 0.155632 -0.010397
v 0.135294 0.175911 0.082623
v 0.159714 0.207611 0.082283
v 0.195674 0.166351 0.064623
v 0.175534 0.136011 0.065263
v 0.184114 0.239311 0.081903
v 0.220834 0.200191 0.069903
v 0.068754 0.238371 0.025343
v 0.092534 0.218571 0.064863
v 0.135294 0.175911 0.082623
v 0.076894 0.231611 -0.051377
v 0.062454 0.244791 -0.012957
v 0.116134 0.190131 -0.096097
v 0.099494 0.217091 -0.082857
v 0.194754 0.113411 -0.047257
v 0.166114 0.138971 -0.090377
v 0.209214 0.101351 0.024023
v 0.214874 0.102671 -0.010037
v 0.135294 0.175911 0.082623
v 0.175534 0.136011 0.065263
v -0.076178 0.138217 0.030223
v -0.015606 0.187591 0.028463
v 0.027234 0.153231 0.067963
v -0.028480 0.103102 0.070903
v 0.080174 0.104271 0.084863
v 0.029141 0.053780 0.086783
v -0.084368 0.131764 -0.053257
v -0.021286 0.183051 -0.051397
v -0.026146 0.194591 -0.011377
v -0.087797 0.143885 -0.011337
v -0.016204 0.062818 -0.103217
v 0.048034 0.110011 -0.101037
v 0.009094 0.152631 -0.086077
v -0.054326 0.102906 -0.088397
v 0.108303 -0.038500 -0.045417
v 0.156714 0.017112 -0.046057
v 0.107074 0.061671 -0.084737
v 0.050300 0.010662 -0.087037
v 0.185934 -0.092528 0.046163
v 0.193531 -0.022009 0.037843
v 0.187131 -0.006669 -0.007157
v 0.165468 -0.068589 -0.003877
v 0.029141 0.053780 0.086783
v 0.080174 0.104271 0.084863
v 0.161334 0.040491 0.060403
v 0.127602 -0.018429 0.062083
v -0.138851 0.088842 0.031823
v -0.107478 0.113494 0.031003
v -0.055913 0.076061 0.072183
v -0.083365 0.049039 0.073383
v 0.005739 0.024101 0.087843
v -0.017663 -0.005613 0.088703
v -0.147570 0.081979 -0.054877
v -0.115960 0.106863 -0.054077
v -0.119553 0.119429 -0.011297
v -0.151328 0.095009 -0.011217
v -0.074026 0.010608 -0.105297
v -0.045115 0.036721 -0.104297
v -0.084623 0.077451 -0.089417
v -0.114920 0.051998 -0.090377
v 0.073155 -0.105469 -0.044677
v 0.090738 -0.071993 -0.045037
v 0.026624 -0.018910 -0.087457
v 0.002912 -0.048464 -0.087837
v 0.174771 -0.176448 0.052723
v 0.180152 -0.134434 0.049303
v 0.155765 -0.105754 -0.003157
v 0.146243 -0.142973 -0.002277
v -0.017663 -0.005613 0.088703
v 0.005739 0.024101 0.087843
v 0.116767 -0.056218 0.072703
v 0.106169 -0.091957 0.076703
v -0.219692 0.025153 0.033903
v -0.150963 -0.016522 0.076703
v -0.341326 -0.216729 0.085883
v -0.429466 -0.145989 0.038123
v -0.510146 -0.387249 0.094483
v -0.611206 -0.292389 0.042383
v -0.071818 -0.074346 0.090943
v -0.238506 -0.309409 0.097303
v -0.391246 -0.507888 0.102443
v -0.179253 0.056971 0.032863
v -0.117164 0.016258 0.075123
v -0.044750 -0.039944 0.089983
v -0.229615 0.017345 -0.056977
v -0.233445 0.031695 -0.011097
v -0.442886 -0.135109 -0.010977
v -0.434946 -0.150329 -0.061097
v -0.622866 -0.278029 -0.010817
v -0.611206 -0.292389 -0.065197
v -0.188592 0.049644 -0.055937
v -0.192386 0.063334 -0.011157
v -0.145016 -0.053491 -0.107857
v -0.191474 -0.012190 -0.093037
v -0.390246 -0.190129 -0.098977
v -0.335526 -0.244389 -0.113457
v -0.563606 -0.338889 -0.104897
v -0.505086 -0.401069 -0.118997
v -0.109521 -0.021442 -0.106617
v -0.153188 0.019912 -0.091717
v 0.035981 -0.176270 -0.043877
v -0.051590 -0.115576 -0.089097
v -0.203706 -0.345009 -0.094357
v -0.079326 -0.443769 -0.041857
v -0.344046 -0.532608 -0.099397
v -0.191406 -0.661969 -0.039477
v 0.054604 -0.140887 -0.044317
v -0.024321 -0.082029 -0.088497
v 0.164484 -0.253880 0.058783
v 0.126580 -0.217749 -0.001737
v 0.072974 -0.506789 0.005023
v 0.141214 -0.568729 0.076623
v 0.012874 -0.741109 0.011943
v 0.106874 -0.824149 0.094403
v 0.169737 -0.215200 0.055743
v 0.136485 -0.180387 -0.002037
v -0.071818 -0.074346 0.090943
v 0.078809 -0.163240 0.080323
v -0.016966 -0.476489 0.099443
v -0.238506 -0.309409 0.097303
v -0.101886 -0.686909 0.103083
v -0.391246 -0.507888 0.102443
v -0.044750 -0.039944 0.089983
v 0.088422 -0.121957 0.079623
vt 0.0833 0.9543
vt 0.1667 0.9510
vt 0.1667 0.9021
vt 0.0833 0.9086
vt 0.0000 0.9576
vt 0.0000 0.9151
vt 0.0833 1.0000
vt 0.1667 1.0000
vt 0.0000 1.0000
vt 0.2500 0.9503
vt 0.3333 0.9495
vt 0.3333 0.8990
vt 0.2500 0.9005
vt 0.2500 1.0000
vt 0.3333 1.0000
vt 0.4167 0.9520
vt 0.5000 0.9545
vt 0.5000 0.9091
vt 0.4167 0.9040
vt 0.4167 1.0000
vt 0.5000 1.0000
vt 0.5833 0.9572
vt 0.6667 0.9598
vt 0.6667 0.9196
vt 0.5833 0.9143
vt 0.5833 1.0000
vt 0.6667 1.0000
vt 0.7500 0.9584
vt 0.8333 0.9571
vt 0.8333 0.9142
vt 0.7500 0.9169
vt 0.7500 1.0000
vt 0.8333 1.0000
vt 0.9167 0.9573
vt 1.0000 0.9576
vt 1.0000 0.9151
vt 0.9167 0.9146
vt 0.9167 1.0000
vt 1.0000 1.0000
vt 0.0833 0.8104
vt 0.1667 0.8014
vt 0.1667 0.7008
vt 0.0833 0.7121
vt 0.0000 0.8193
vt 0.0000 0.7234
vt 0.0833 0.9086
vt 0.1667 0.9021
vt 0.0000 0.9151
vt 0.2500 0.7976
vt 0.3333 0.7938
vt 0.3333 0.6887
vt 0.2500 0.6947
vt 0.2500 0.9005
vt 0.3333 0.8990
vt 0.4167 0.7986
vt 0.5000 0.8034
vt 0.5000 0.6978
vt 0.4167 0.6932
vt 0.4167 0.9040
vt 0.5000 0.9091
vt 0.5833 0.8088
vt 0.6667 0.8142
vt 0.6667 0.7088
vt 0.5833 0.7033
vt 0.5833 0.9143
vt 0.6667 0.9196
vt 0.7500 0.8095
vt 0.8333 0.8047
vt 0.8333 0.6953
vt 0.7500 0.7020
vt 0.7500 0.9169
vt 0.8333 0.9142
vt 0.9167 0.8120
vt 1.0000 0.8193
vt 1.0000 0.7234
vt 0.9167 0.7094
vt 0.9167 0.9146
vt 1.0000 0.9151
vt 0.0833 0.6667
vt 0.1667 0.6545
vt 0.1667 0.6083
vt 0.0833 0.6213
vt 0.0000 0.6788
vt 0.0000 0.6342
vt 0.2500 0.6483
vt 0.3333 0.6421
vt 0.3333 0.5954
vt 0.2500 0.6019
vt 0.4167 0.6469
vt 0.5000 0.6517
vt 0.5000 0.6057
vt 0.4167 0.6006
vt 0.5833 0.6577
vt 0.6667 0.6637
vt 0.6667 0.6187
vt 0.5833 0.6122
vt 0.7500 0.6559
vt 0.8333 0.6481
vt 0.8333 0.6008
vt 0.7500 0.6097
vt 0.9167 0.6634
vt 1.0000 0.6788
vt 1.0000 0.6342
vt 0.9167 0.6175
vt 0.0833 0.2550
vt 0.0833 0.5100
vt 0.1667 0.4890
vt 0.1667 0.2445
vt 0.0833 0.0000
vt 0.1667 0.0000
vt 0.0000 0.2655
vt 0.0000 0.5310
vt 0.0000 0.0000
vt 0.0833 0.5656
vt 0.1667 0.5486
vt 0.0000 0.5826
vt 0.2500 0.2408
vt 0.2500 0.4817
vt 0.3333 0.4744
vt 0.3333 0.2372
vt 0.2500 0.0000
vt 0.3333 0.0000
vt 0.2500 0.5418
vt 0.3333 0.5349
vt 0.4167 0.2417
vt 0.4167 0.4835
vt 0.5000 0.4926
vt 0.5000 0.2463
vt 0.4167 0.0000
vt 0.5000 0.0000
vt 0.4167 0.5420
vt 0.5000 0.5492
vt 0.5833 0.2540
vt 0.5833 0.5080
vt 0.6667 0.5234
vt 0.6667 0.2617
vt 0.5833 0.0000
vt 0.6667 0.0000
vt 0.5833 0.5601
vt 0.6667 0.5710
vt 0.7500 0.2592
vt 0.7500 0.5185
vt 0.8333 0.5136
vt 0.8333 0.2568
vt 0.7500 0.0000
vt 0.8333 0.0000
vt 0.7500 0.5641
vt 0.8333 0.5572
vt 0.9167 0.2612
vt 0.9167 0.5223
vt 1.0000 0.5310
vt 1.0000 0.2655
vt 0.9167 0.0000
vt 1.0000 0.0000
vt 0.9167 0.5699
vt 1.0000 0.5826
vn -0.4121 0.4596 0.7867
vn -0.5817 0.7523 0.3093
vn -0.5593 0.7286 0.3953
vn -0.3967 0.4173 0.8176
vn -0.2304 0.2040 0.9514
vn -0.2194 0.1793 0.9590
vn -0.4459 0.4961 0.7450
vn -0.6424 0.7120 0.2834
vn -0.2447 0.2321 0.9414
vn -0.5906 0.7944 -0.1419
vn -0.6125 0.6799 -0.4032
vn -0.4979 0.7141 -0.4920
vn -0.5051 0.8523 -0.1359
vn -0.6811 0.7240 -0.1094
vn -0.6389 0.6778 -0.3637
vn -0.4996 0.4753 -0.7242
vn -0.1511 0.1056 -0.9828
vn -0.1104 0.0854 -0.9902
vn -0.4438 0.4376 -0.7820
vn -0.5463 0.5017 -0.6707
vn -0.2536 0.1212 -0.9597
vn 0.2924 -0.3129 -0.9037
vn 0.5825 -0.5798 -0.5696
vn 0.5958 -0.5324 -0.6012
vn 0.3543 -0.3074 -0.8831
vn -0.0105 -0.2839 -0.9588
vn 0.3006 -0.6223 -0.7228
vn 0.8269 -0.5490 -0.1214
vn 0.7405 -0.4765 0.4739
vn 0.7549 -0.4688 0.4587
vn 0.8133 -0.5564 -0.1701
vn 0.8430 -0.5334 -0.0685
vn 0.6996 -0.5153 0.4949
vn 0.3846 -0.3173 0.8668
vn 0.2090 -0.1854 0.9602
vn 0.2560 -0.1737 0.9509
vn 0.4345 -0.2693 0.8594
vn 0.3129 -0.3343 0.8890
vn 0.1819 -0.1283 0.9749
vn -0.2674 0.3235 0.9076
vn -0.4872 0.6780 0.5504
vn -0.5036 0.6453 0.5744
vn -0.2499 0.3164 0.9151
vn -0.1458 0.1699 0.9746
vn -0.1285 0.1570 0.9792
vn -0.3004 0.4280 0.8524
vn -0.4464 0.7835 0.4322
vn -0.1719 0.1947 0.9657
vn -0.5690 0.8223 -0.0048
vn -0.4582 0.6983 -0.5499
vn -0.5189 0.6617 -0.5412
vn -0.6218 0.7831 0.0023
vn -0.4704 0.8762 -0.1050
vn -0.4061 0.7166 -0.5670
vn -0.2460 0.4034 -0.8813
vn 0.0236 0.0436 -0.9987
vn -0.0072 0.0534 -0.9985
vn -0.2770 0.3744 -0.8849
vn -0.3384 0.4657 -0.8176
vn -0.1126 0.1222 -0.9861
vn 0.2623 -0.2380 -0.9351
vn 0.5282 -0.3176 -0.7875
vn 0.4160 -0.2858 -0.8633
vn 0.2523 -0.2099 -0.9446
vn 0.2961 -0.2064 -0.9326
vn 0.7465 -0.2667 -0.6095
vn 0.8385 -0.2579 -0.4799
vn 0.8731 -0.1102 0.4749
vn 0.9187 -0.0988 0.3825
vn 0.6968 -0.2576 -0.6693
vn 0.9472 -0.1949 -0.2546
vn 0.8647 -0.1053 0.4912
vn 0.4017 -0.0817 0.9121
vn 0.2070 -0.1300 0.9696
vn 0.1769 -0.1099 0.9780
vn 0.2943 0.0267 0.9553
vn 0.4035 -0.1323 0.9053
vn 0.2503 -0.1628 0.9544
vn -0.2429 0.2914 0.9252
vn -0.4952 0.6426 0.5846
vn -0.4889 0.6359 0.5971
vn -0.2281 0.2805 0.9323
vn -0.1267 0.1371 0.9824
vn -0.1147 0.1291 0.9850
vn -0.6108 0.7918 -0.0007
vn -0.5108 0.6642 -0.5459
vn -0.5080 0.6608 -0.5525
vn -0.6110 0.7916 -0.0002
vn -0.2776 0.3664 -0.8881
vn -0.0059 0.0486 -0.9988
vn -0.0060 0.0490 -0.9987
vn -0.2722 0.3610 -0.8919
vn 0.2562 -0.1885 -0.9480
vn 0.4176 -0.2263 -0.8799
vn 0.3903 -0.2112 -0.8961
vn 0.2454 -0.1789 -0.9528
vn 0.6791 -0.1927 -0.7083
vn 0.9325 -0.1052 0.3455
vn 0.9331 -0.1093 0.3426
vn 0.6495 -0.1805 -0.7386
vn 0.2894 0.0921 0.9527
vn 0.1445 -0.0472 0.9883
vn 0.0924 -0.0276 0.9953
vn 0.2264 0.0109 0.9740
vn -0.1487 0.1949 0.9695
vn -0.2116 0.2432 0.9466
vn -0.4882 0.6047 0.6292
vn -0.4549 0.5730 0.6816
vn -0.1179 0.1776 0.9770
vn -0.4475 0.5761 0.6840
vn -0.0521 0.0750 0.9958
vn -0.1023 0.1036 0.9893
vn -0.0227 0.0606 0.9979
vn -0.2138 0.2695 0.9390
vn -0.4828 0.6289 0.6093
vn -0.1029 0.1192 0.9875
vn -0.6238 0.7815 0.0045
vn -0.6185 0.7858 0.0034
vn -0.5069 0.6506 -0.5654
vn -0.4926 0.6181 -0.6126
vn -0.6221 0.7829 0.0038
vn -0.4875 0.6167 -0.6181
vn -0.6115 0.7912 0.0003
vn -0.5049 0.6571 -0.5597
vn -0.2270 0.2918 -0.9291
vn -0.2620 0.3458 -0.9010
vn -0.0064 0.0470 -0.9989
vn -0.0017 0.0416 -0.9991
vn -0.2142 0.2822 -0.9351
vn -0.0059 0.0478 -0.9988
vn -0.2657 0.3551 -0.8963
vn -0.0058 0.0490 -0.9988
vn 0.1946 -0.1075 -0.9749
vn 0.2258 -0.1540 -0.9619
vn 0.3408 -0.1845 -0.9218
vn 0.2688 -0.1304 -0.9543
vn 0.1772 -0.0987 -0.9792
vn 0.2390 -0.1218 -0.9633
vn 0.2346 -0.1698 -0.9571
vn 0.3633 -0.1992 -0.9101
vn 0.4767 -0.1163 -0.8713
vn 0.5835 -0.1673 -0.7946
vn 0.9389 -0.1073 0.3269
vn 0.9568 -0.1279 0.2609
vn 0.4436 -0.1227 -0.8878
vn 0.9191 -0.1508 0.3640
vn 0.6211 -0.1711 -0.7648
vn 0.9337 -0.1121 0.3399
vn 0.0749 0.0191 0.9970
vn 0.1625 0.0042 0.9867
vn 0.0582 0.0065 0.9983
vn 0.0069 0.0199 0.9998
vn 0.0259 0.0079 0.9996
vn 0.0093 0.0187 0.9998
vn 0.1637 -0.0114 0.9864
vn 0.0724 -0.0193 0.9972
usemtl æè³ª7.001
s 1
f 3/1/1 2/2/2 1/3/3
f 4/4/4 3/1/1 1/3/3
f 5/5/5 3/1/1 4/4/4
f 6/6/6 5/5/5 4/4/4
f 8/7/7 7/8/8 2/2/2
f 3/1/1 8/7/7 2/2/2
f 9/9/9 8/7/7 3/1/1
f 5/5/5 9/9/9 3/1/1
f 12/10/10 11/11/11 10/12/12
f 13/13/13 12/10/10 10/12/12
f 2/2/2 12/10/10 13/13/13
f 1/3/3 2/2/2 13/13/13
f 15/14/14 14/15/15 11/11/11
f 12/10/10 15/14/14 11/11/11
f 7/8/8 15/14/14 12/10/10
f 2/2/2 7/8/8 12/10/10
f 18/16/16 17/17/17 16/18/18
f 19/19/19 18/16/16 16/18/18
f 11/11/11 18/16/16 19/19/19
f 10/12/12 11/11/11 19/19/19
f 21/20/20 20/21/21 17/17/17
f 18/16/16 21/20/20 17/17/17
f 14/15/15 21/20/20 18/16/16
f 11/11/11 14/15/15 18/16/16
f 24/22/22 23/23/23 22/24/24
f 25/25/25 24/22/22 22/24/24
f 17/17/17 24/22/22 25/25/25
f 16/18/18 17/17/17 25/25/25
f 27/26/26 26/27/27 23/23/23
f 24/22/22 27/26/26 23/23/23
f 20/21/21 27/26/26 24/22/22
f 17/17/17 20/21/21 24/22/22
f 30/28/28 29/29/29 28/30/30
f 31/31/31 30/28/28 28/30/30
f 23/23/23 30/28/28 31/31/31
f 22/24/24 23/23/23 31/31/31
f 33/32/32 32/33/33 29/29/29
f 30/28/28 33/32/32 29/29/29
f 26/27/27 33/32/32 30/28/28
f 23/23/23 26/27/27 30/28/28
f 36/34/34 35/35/35 34/36/36
f 37/37/37 36/34/34 34/36/36
f 29/29/29 36/34/34 37/37/37
f 28/30/30 29/29/29 37/37/37
f 39/38/38 38/39/39 35/35/35
f 36/34/34 39/38/38 35/35/35
f 32/33/33 39/38/38 36/34/34
f 29/29/29 32/33/33 36/34/34
usemtl æè³ª5.002
f 55/40/40 54/41/41 53/42/42
f 56/43/43 55/40/40 53/42/42
f 57/44/44 55/40/40 56/43/43
f 58/45/45 57/44/44 56/43/43
f 41/46/46 40/47/47 54/41/41
f 55/40/40 41/46/46 54/41/41
f 42/48/48 41/46/46 55/40/40
f 57/44/44 42/48/48 55/40/40
f 61/49/49 60/50/50 59/51/51
f 62/52/52 61/49/49 59/51/51
f 54/41/41 61/49/49 62/52/52
f 53/42/42 54/41/41 62/52/52
f 44/53/53 43/54/54 60/50/50
f 61/49/49 44/53/53 60/50/50
f 40/47/47 44/53/53 61/49/49
f 54/41/41 40/47/47 61/49/49
f 65/55/55 64/56/56 63/57/57
f 66/58/58 65/55/55 63/57/57
f 60/50/50 65/55/55 66/58/58
f 59/51/51 60/50/50 66/58/58
f 46/59/59 45/60/60 64/56/56
f 65/55/55 46/59/59 64/56/56
f 43/54/54 46/59/59 65/55/55
f 60/50/50 43/54/54 65/55/55
f 69/61/61 68/62/62 67/63/63
f 70/64/64 69/61/61 67/63/63
f 64/56/56 69/61/61 70/64/64
f 63/57/57 64/56/56 70/64/64
f 48/65/65 47/66/66 68/62/62
f 69/61/61 48/65/65 68/62/62
f 45/60/60 48/65/65 69/61/61
f 64/56/56 45/60/60 69/61/61
f 73/67/67 72/68/68 71/69/69
f 74/70/70 73/67/67 71/69/69
f 68/62/62 73/67/67 74/70/70
f 67/63/63 68/62/62 74/70/70
f 50/71/71 49/72/72 72/68/68
f 73/67/67 50/71/71 72/68/68
f 47/66/66 50/71/71 73/67/67
f 68/62/62 47/66/66 73/67/67
f 77/73/73 76/74/74 75/75/75
f 78/76/76 77/73/73 75/75/75
f 72/68/68 77/73/73 78/76/76
f 71/69/69 72/68/68 78/76/76
f 52/77/77 51/78/78 76/74/74
f 77/73/73 52/77/77 76/74/74
f 49/72/72 52/77/77 77/73/73
f 72/68/68 49/72/72 77/73/73
f 81/79/79 80/80/80 79/81/81
f 82/82/82 81/79/79 79/81/81
f 83/83/83 81/79/79 82/82/82
f 84/84/84 83/83/83 82/82/82
f 56/43/43 53/42/42 80/80/80
f 81/79/79 56/43/43 80/80/80
f 58/45/45 56/43/43 81/79/79
f 83/83/83 58/45/45 81/79/79
f 87/85/85 86/86/86 85/87/87
f 88/88/88 87/85/85 85/87/87
f 80/80/80 87/85/85 88/88/88
f 79/81/81 80/80/80 88/88/88
f 62/52/52 59/51/51 86/86/86
f 87/85/85 62/52/52 86/86/86
f 53/42/42 62/52/52 87/85/85
f 80/80/80 53/42/42 87/85/85
f 91/89/89 90/90/90 89/91/91
f 92/92/92 91/89/89 89/91/91
f 86/86/86 91/89/89 92/92/92
f 85/87/87 86/86/86 92/92/92
f 66/58/58 63/57/57 90/90/90
f 91/89/89 66/58/58 90/90/90
f 59/51/51 66/58/58 91/89/89
f 86/86/86 59/51/51 91/89/89
f 95/93/93 94/94/94 93/95/95
f 96/96/96 95/93/93 93/95/95
f 90/90/90 95/93/93 96/96/96
f 89/91/91 90/90/90 96/96/96
f 70/64/64 67/63/63 94/94/94
f 95/93/93 70/64/64 94/94/94
f 63/57/57 70/64/64 95/93/93
f 90/90/90 63/57/57 95/93/93
f 99/97/97 98/98/98 97/99/99
f 100/100/100 99/97/97 97/99/99
f 94/94/94 99/97/97 100/100/100
f 93/95/95 94/94/94 100/100/100
f 74/70/70 71/69/69 98/98/98
f 99/97/97 74/70/70 98/98/98
f 67/63/63 74/70/70 99/97/97
f 94/94/94 67/63/63 99/97/97
f 103/101/101 102/102/102 101/103/103
f 104/104/104 103/101/101 101/103/103
f 98/98/98 103/101/101 104/104/104
f 97/99/99 98/98/98 104/104/104
f 78/76/76 75/75/75 102/102/102
f 103/101/101 78/76/76 102/102/102
f 71/69/69 78/76/76 103/101/101
f 98/98/98 71/69/69 103/101/101
f 107/105/105 106/106/106 105/107/107
f 108/108/108 107/105/105 105/107/107
f 109/109/109 107/105/105 108/108/108
f 110/110/110 109/109/109 108/108/108
f 112/111/111 111/112/112 106/106/106
f 107/105/105 112/111/111 106/106/106
f 113/113/113 112/111/111 107/105/105
f 109/109/109 113/113/113 107/105/105
f 115/114/114 114/115/115 105/107/107
f 106/106/106 115/114/114 105/107/107
f 116/116/116 115/114/114 106/106/106
f 111/112/112 116/116/116 106/106/106
f 82/82/82 79/81/81 114/115/115
f 115/114/114 82/82/82 114/115/115
f 84/84/84 82/82/82 115/114/114
f 116/116/116 84/84/84 115/114/114
f 119/117/117 118/118/118 117/119/119
f 120/120/120 119/117/117 117/119/119
f 121/121/121 119/117/117 120/120/120
f 122/122/122 121/121/121 120/120/120
f 108/108/108 105/107/107 118/118/118
f 119/117/117 108/108/108 118/118/118
f 110/110/110 108/108/108 119/117/117
f 121/121/121 110/110/110 119/117/117
f 124/123/123 123/124/124 117/119/119
f 118/118/118 124/123/123 117/119/119
f 114/115/115 124/123/123 118/118/118
f 105/107/107 114/115/115 118/118/118
f 88/88/88 85/87/87 123/124/124
f 124/123/123 88/88/88 123/124/124
f 79/81/81 88/88/88 124/123/123
f 114/115/115 79/81/81 124/123/123
f 127/125/125 126/126/126 125/127/127
f 128/128/128 127/125/125 125/127/127
f 129/129/129 127/125/125 128/128/128
f 130/130/130 129/129/129 128/128/128
f 120/120/120 117/119/119 126/126/126
f 127/125/125 120/120/120 126/126/126
f 122/122/122 120/120/120 127/125/125
f 129/129/129 122/122/122 127/125/125
f 132/131/131 131/132/132 125/127/127
f 126/126/126 132/131/131 125/127/127
f 123/124/124 132/131/131 126/126/126
f 117/119/119 123/124/124 126/126/126
f 92/92/92 89/91/91 131/132/132
f 132/131/131 92/92/92 131/132/132
f 85/87/87 92/92/92 132/131/131
f 123/124/124 85/87/87 132/131/131
f 135/133/133 134/134/134 133/135/135
f 136/136/136 135/133/133 133/135/135
f 137/137/137 135/133/133 136/136/136
f 138/138/138 137/137/137 136/136/136
f 128/128/128 125/127/127 134/134/134
f 135/133/133 128/128/128 134/134/134
f 130/130/130 128/128/128 135/133/133
f 137/137/137 130/130/130 135/133/133
f 140/139/139 139/140/140 133/135/135
f 134/134/134 140/139/139 133/135/135
f 131/132/132 140/139/139 134/134/134
f 125/127/127 131/132/132 134/134/134
f 96/96/96 93/95/95 139/140/140
f 140/139/139 96/96/96 139/140/140
f 89/91/91 96/96/96 140/139/139
f 131/132/132 89/91/91 140/139/139
f 143/141/141 142/142/142 141/143/143
f 144/144/144 143/141/141 141/143/143
f 145/145/145 143/141/141 144/144/144
f 146/146/146 145/145/145 144/144/144
f 136/136/136 133/135/135 142/142/142
f 143/141/141 136/136/136 142/142/142
f 138/138/138 136/136/136 143/141/141
f 145/145/145 138/138/138 143/141/141
f 148/147/147 147/148/148 141/143/143
f 142/142/142 148/147/147 141/143/143
f 139/140/140 148/147/147 142/142/142
f 133/135/135 139/140/140 142/142/142
f 100/100/100 97/99/99 147/148/148
f 148/147/147 100/100/100 147/148/148
f 93/95/95 100/100/100 148/147/147
f 139/140/140 93/95/95 148/147/147
f 151/149/149 150/150/150 149/151/151
f 152/152/152 151/149/149 149/151/151
f 153/153/153 151/149/149 152/152/152
f 154/154/154 153/153/153 152/152/152
f 144/144/144 141/143/143 150/150/150
f 151/149/149 144/144/144 150/150/150
f 146/146/146 144/144/144 151/149/149
f 153/153/153 146/146/146 151/149/149
f 156/155/155 155/156/156 149/151/151
f 150/150/150 156/155/155 149/151/151
f 147/148/148 156/155/155 150/150/150
f 141/143/143 147/148/148 150/150/150
f 104/104/104 101/103/103 155/156/156
f 156/155/155 104/104/104 155/156/156
f 97/99/99 104/104/104 156/155/155
f 147/148/148 97/99/99 156/155/155
